<svg xmlns="http://www.w3.org/2000/svg" xmlns:xlink="http://www.w3.org/1999/xlink" viewBox="0 0 1200 675" width="1200" height="675" role="img" aria-label="Pilot report: observation, hypothesis, change, metric."><rect width="1200" height="675" fill="#F6F5F1"/><path fill="#0E1726" transform="translate(72.0 150.0)" d="M17.64 -12.15H11.73V0H3.83V-37.34H17.64Q22.19 -37.34 25.51 -35.92Q28.82 -34.51 30.62 -31.75Q32.42 -29 32.42 -24.92Q32.42 -20.85 30.62 -18Q28.82 -15.16 25.51 -13.65Q22.19 -12.15 17.64 -12.15ZM17.59 -30.68H11.73V-18.81H17.59Q20.91 -18.81 22.73 -20.45Q24.55 -22.09 24.55 -24.84Q24.55 -27.64 22.73 -29.16Q20.91 -30.68 17.59 -30.68Z M43.56 0H36.37V-27.79H43.56ZM44.73 -34.24Q44.73 -32.38 43.39 -31.16Q42.05 -29.93 39.9 -29.93Q37.77 -29.93 36.43 -31.16Q35.08 -32.38 35.08 -34.24Q35.08 -36.14 36.43 -37.35Q37.77 -38.56 39.9 -38.56Q42.05 -38.56 43.39 -37.35Q44.73 -36.14 44.73 -34.24Z M56.53 0H49.27V-37.34H56.53Z M74.51 0.52Q71.48 0.52 68.92 -0.57Q66.35 -1.67 64.45 -3.64Q62.55 -5.62 61.48 -8.24Q60.41 -10.86 60.41 -13.9Q60.41 -16.94 61.48 -19.56Q62.55 -22.17 64.45 -24.14Q66.35 -26.11 68.92 -27.2Q71.48 -28.3 74.51 -28.3Q77.55 -28.3 80.11 -27.2Q82.68 -26.11 84.58 -24.14Q86.48 -22.17 87.55 -19.56Q88.61 -16.94 88.61 -13.9Q88.61 -10.86 87.55 -8.24Q86.48 -5.62 84.58 -3.64Q82.68 -1.67 80.11 -0.57Q77.55 0.52 74.51 0.52ZM74.51 -5.88Q76.33 -5.88 77.84 -6.81Q79.35 -7.74 80.25 -9.54Q81.16 -11.33 81.16 -13.9Q81.16 -16.47 80.25 -18.25Q79.35 -20.03 77.84 -20.95Q76.33 -21.86 74.51 -21.86Q72.74 -21.86 71.21 -20.95Q69.68 -20.03 68.78 -18.25Q67.87 -16.47 67.87 -13.9Q67.87 -11.33 68.78 -9.54Q69.68 -7.74 71.21 -6.81Q72.74 -5.88 74.51 -5.88Z M109.21 -7.03V-0.75Q107.89 -0.04 106.57 0.24Q105.25 0.52 103.65 0.52Q100.81 0.52 98.71 -0.56Q96.61 -1.63 95.46 -3.77Q94.31 -5.91 94.31 -9.01V-21.56H88.71V-27.79H94.31V-35.97H101.49V-27.79H109.44V-21.56H101.49V-10.66Q101.49 -8.26 102.55 -7.21Q103.62 -6.15 105.57 -6.15Q106.59 -6.15 107.52 -6.37Q108.46 -6.6 109.21 -7.03Z  M130.4 -13.47V0H123.21V-27.79H129.83V-22.42Q131.38 -25.06 134.35 -26.56Q137.33 -28.07 140.67 -28.07V-20.59Q137.62 -20.82 135.31 -20.31Q132.99 -19.8 131.69 -18.17Q130.4 -16.55 130.4 -13.47Z M155.47 0.49Q151.31 0.49 148.18 -1.32Q145.05 -3.13 143.32 -6.41Q141.59 -9.69 141.59 -14Q141.59 -18.15 143.36 -21.37Q145.14 -24.59 148.26 -26.45Q151.38 -28.31 155.36 -28.31Q158.67 -28.31 161.33 -27.07Q163.99 -25.83 165.81 -23.61Q167.62 -21.39 168.41 -18.44Q169.2 -15.5 168.7 -12.1H145.86V-16.68H161.03Q160.93 -19.61 159.35 -21.3Q157.77 -22.98 155.21 -22.98Q153.19 -22.98 151.78 -21.95Q150.38 -20.91 149.63 -18.91Q148.87 -16.9 148.87 -13.98Q148.87 -11.13 149.61 -9.14Q150.35 -7.15 151.79 -6.13Q153.23 -5.11 155.31 -5.11Q157.69 -5.11 159.27 -6.24Q160.85 -7.36 161.45 -9.43H168.62Q167.44 -4.73 164 -2.12Q160.56 0.49 155.47 0.49Z M200.48 -13.9Q200.48 -9.79 198.95 -6.54Q197.41 -3.28 194.66 -1.38Q191.91 0.52 188.15 0.52Q185.68 0.52 183.61 -0.53Q181.54 -1.58 179.95 -3.57V10.04H172.77V-27.79H179.39V-23.73Q181 -25.95 183.24 -27.13Q185.49 -28.31 188.15 -28.31Q191.9 -28.31 194.66 -26.41Q197.41 -24.51 198.95 -21.24Q200.48 -17.97 200.48 -13.9ZM193.03 -13.9Q193.03 -17.8 191.11 -19.84Q189.19 -21.87 186.52 -21.87Q184.78 -21.87 183.29 -20.96Q181.79 -20.04 180.9 -18.28Q180.01 -16.52 180.01 -13.87Q180.01 -11.26 180.9 -9.48Q181.8 -7.7 183.29 -6.81Q184.77 -5.92 186.52 -5.92Q189.19 -5.92 191.11 -7.93Q193.03 -9.95 193.03 -13.9Z M216.58 0.52Q213.55 0.52 210.98 -0.57Q208.42 -1.67 206.51 -3.64Q204.61 -5.62 203.55 -8.24Q202.48 -10.86 202.48 -13.9Q202.48 -16.94 203.55 -19.56Q204.61 -22.17 206.51 -24.14Q208.42 -26.11 210.98 -27.2Q213.55 -28.3 216.58 -28.3Q219.61 -28.3 222.18 -27.2Q224.74 -26.11 226.64 -24.14Q228.54 -22.17 229.61 -19.56Q230.68 -16.94 230.68 -13.9Q230.68 -10.86 229.61 -8.24Q228.54 -5.62 226.64 -3.64Q224.74 -1.67 222.18 -0.57Q219.61 0.52 216.58 0.52ZM216.58 -5.88Q218.39 -5.88 219.9 -6.81Q221.41 -7.74 222.32 -9.54Q223.22 -11.33 223.22 -13.9Q223.22 -16.47 222.32 -18.25Q221.41 -20.03 219.9 -20.95Q218.39 -21.86 216.58 -21.86Q214.8 -21.86 213.27 -20.95Q211.74 -20.03 210.84 -18.25Q209.94 -16.47 209.94 -13.9Q209.94 -11.33 210.84 -9.54Q211.74 -7.74 213.27 -6.81Q214.8 -5.88 216.58 -5.88Z M241.73 -13.47V0H234.54V-27.79H241.16V-22.42Q242.71 -25.06 245.68 -26.56Q248.66 -28.07 252 -28.07V-20.59Q248.95 -20.82 246.64 -20.31Q244.33 -19.8 243.03 -18.17Q241.73 -16.55 241.73 -13.47Z M274 -7.03V-0.75Q272.68 -0.04 271.36 0.24Q270.04 0.52 268.44 0.52Q265.6 0.52 263.5 -0.56Q261.4 -1.63 260.25 -3.77Q259.09 -5.91 259.09 -9.01V-21.56H253.49V-27.79H259.09V-35.97H266.28V-27.79H274.23V-21.56H266.28V-10.66Q266.28 -8.26 267.34 -7.21Q268.41 -6.15 270.36 -6.15Q271.38 -6.15 272.31 -6.37Q273.25 -6.6 274 -7.03Z M286.37 -4.63Q286.37 -2.49 285.02 -1.11Q283.66 0.26 281.52 0.26Q279.37 0.26 278 -1.11Q276.62 -2.49 276.62 -4.63Q276.62 -6.83 278 -8.21Q279.37 -9.58 281.52 -9.58Q283.66 -9.58 285.02 -8.21Q286.37 -6.83 286.37 -4.63ZM286.37 -22.95Q286.37 -20.8 285.02 -19.43Q283.66 -18.05 281.52 -18.05Q279.37 -18.05 278 -19.43Q276.62 -20.8 276.62 -22.95Q276.62 -25.15 278 -26.52Q279.37 -27.89 281.52 -27.89Q283.66 -27.89 285.02 -26.52Q286.37 -25.15 286.37 -22.95Z  M313.14 0.52Q310.11 0.52 307.54 -0.57Q304.98 -1.67 303.08 -3.64Q301.18 -5.62 300.11 -8.24Q299.04 -10.86 299.04 -13.9Q299.04 -16.94 300.11 -19.56Q301.18 -22.17 303.08 -24.14Q304.98 -26.11 307.54 -27.2Q310.11 -28.3 313.14 -28.3Q316.17 -28.3 318.74 -27.2Q321.3 -26.11 323.2 -24.14Q325.11 -22.17 326.17 -19.56Q327.24 -16.94 327.24 -13.9Q327.24 -10.86 326.17 -8.24Q325.11 -5.62 323.2 -3.64Q321.3 -1.67 318.74 -0.57Q316.17 0.52 313.14 0.52ZM313.14 -5.88Q314.96 -5.88 316.47 -6.81Q317.98 -7.74 318.88 -9.54Q319.78 -11.33 319.78 -13.9Q319.78 -16.47 318.88 -18.25Q317.98 -20.03 316.47 -20.95Q314.96 -21.86 313.14 -21.86Q311.37 -21.86 309.84 -20.95Q308.31 -20.03 307.4 -18.25Q306.5 -16.47 306.5 -13.9Q306.5 -11.33 307.4 -9.54Q308.31 -7.74 309.84 -6.81Q311.37 -5.88 313.14 -5.88Z M358.82 -13.9Q358.82 -9.83 357.29 -6.56Q355.75 -3.28 353 -1.38Q350.24 0.52 346.48 0.52Q343.81 0.52 341.58 -0.67Q339.35 -1.85 337.73 -4.01V0H331.11V-37.34H338.29V-24.17Q339.86 -26.2 341.93 -27.25Q344 -28.31 346.48 -28.31Q350.24 -28.31 352.99 -26.43Q355.74 -24.55 357.28 -21.28Q358.82 -18.01 358.82 -13.9ZM351.37 -13.9Q351.37 -17.88 349.45 -19.88Q347.53 -21.87 344.85 -21.87Q343.11 -21.87 341.63 -21Q340.15 -20.12 339.25 -18.36Q338.35 -16.6 338.35 -13.97Q338.35 -11.38 339.22 -9.58Q340.1 -7.78 341.6 -6.85Q343.1 -5.92 344.85 -5.92Q347.53 -5.92 349.45 -7.95Q351.37 -9.99 351.37 -13.9Z M386.08 -8.9Q386.08 -4.55 382.9 -2.02Q379.72 0.52 373.78 0.52Q367.89 0.52 364.59 -2.15Q361.3 -4.82 360.89 -9.46H367.77Q367.84 -7.31 369.52 -6.06Q371.21 -4.81 373.9 -4.81Q376 -4.81 377.41 -5.49Q378.82 -6.18 378.82 -7.67Q378.82 -8.97 377.92 -9.63Q377.03 -10.29 375.03 -10.66L370.02 -11.58Q366.31 -12.28 364.17 -14.29Q362.04 -16.31 362.04 -19.57Q362.04 -22.13 363.43 -24.11Q364.83 -26.08 367.37 -27.19Q369.91 -28.31 373.34 -28.31Q376.85 -28.31 379.52 -27.14Q382.18 -25.96 383.78 -23.78Q385.37 -21.59 385.61 -18.59H378.73Q378.54 -20.64 377.09 -21.81Q375.64 -22.98 373.37 -22.98Q371.38 -22.98 370.16 -22.27Q368.94 -21.56 368.94 -20.22Q368.94 -18.98 369.83 -18.38Q370.72 -17.78 372.58 -17.4L377.92 -16.41Q381.99 -15.67 384.04 -13.78Q386.08 -11.9 386.08 -8.9Z M402.31 0.49Q398.16 0.49 395.02 -1.32Q391.89 -3.13 390.16 -6.41Q388.43 -9.69 388.43 -14Q388.43 -18.15 390.21 -21.37Q391.98 -24.59 395.1 -26.45Q398.22 -28.31 402.21 -28.31Q405.52 -28.31 408.18 -27.07Q410.83 -25.83 412.65 -23.61Q414.47 -21.39 415.25 -18.44Q416.04 -15.5 415.54 -12.1H392.7V-16.68H407.87Q407.77 -19.61 406.19 -21.3Q404.61 -22.98 402.05 -22.98Q400.03 -22.98 398.63 -21.95Q397.22 -20.91 396.47 -18.91Q395.72 -16.9 395.72 -13.98Q395.72 -11.13 396.46 -9.14Q397.2 -7.15 398.64 -6.13Q400.07 -5.11 402.15 -5.11Q404.54 -5.11 406.11 -6.24Q407.69 -7.36 408.29 -9.43H415.46Q414.28 -4.73 410.84 -2.12Q407.4 0.49 402.31 0.49Z M426.8 -13.47V0H419.61V-27.79H426.23V-22.42Q427.78 -25.06 430.75 -26.56Q433.73 -28.07 437.07 -28.07V-20.59Q434.02 -20.82 431.71 -20.31Q429.39 -19.8 428.09 -18.17Q426.8 -16.55 426.8 -13.47Z M465.58 -27.79 455.38 0H447.47L437.22 -27.79H445.02L451.6 -8.19L458.26 -27.79Z M483.77 0V-3.44Q482.41 -1.49 480.33 -0.48Q478.25 0.52 475.38 0.52Q471.05 0.52 468.41 -1.83Q465.78 -4.18 465.78 -8.04Q465.78 -12.13 468.99 -14.25Q472.19 -16.38 478.25 -16.38Q479.43 -16.38 480.52 -16.31Q481.61 -16.24 482.85 -16.07V-17.73Q482.85 -20.08 481.6 -21.37Q480.35 -22.66 478.07 -22.66Q475.76 -22.66 474.4 -21.36Q473.04 -20.06 472.84 -17.74H466.36Q466.56 -20.96 468.08 -23.33Q469.61 -25.69 472.18 -27Q474.76 -28.31 478.09 -28.31Q483.55 -28.31 486.6 -25.44Q489.64 -22.58 489.64 -17.45V0ZM472.57 -8.25Q472.57 -6.54 473.75 -5.52Q474.94 -4.49 476.96 -4.49Q479.71 -4.49 481.28 -5.91Q482.85 -7.33 482.85 -9.73V-11.71Q481.62 -11.91 480.63 -11.98Q479.65 -12.05 478.69 -12.05Q475.67 -12.05 474.12 -11.11Q472.57 -10.17 472.57 -8.25Z M511.95 -7.03V-0.75Q510.63 -0.04 509.31 0.24Q507.99 0.52 506.39 0.52Q503.55 0.52 501.45 -0.56Q499.35 -1.63 498.2 -3.77Q497.05 -5.91 497.05 -9.01V-21.56H491.45V-27.79H497.05V-35.97H504.23V-27.79H512.18V-21.56H504.23V-10.66Q504.23 -8.26 505.29 -7.21Q506.36 -6.15 508.31 -6.15Q509.33 -6.15 510.26 -6.37Q511.2 -6.6 511.95 -7.03Z M523.05 0H515.86V-27.79H523.05ZM524.22 -34.24Q524.22 -32.38 522.88 -31.16Q521.55 -29.93 519.4 -29.93Q517.26 -29.93 515.92 -31.16Q514.58 -32.38 514.58 -34.24Q514.58 -36.14 515.92 -37.35Q517.26 -38.56 519.4 -38.56Q521.55 -38.56 522.88 -37.35Q524.22 -36.14 524.22 -34.24Z M541.01 0.52Q537.97 0.52 535.41 -0.57Q532.84 -1.67 530.94 -3.64Q529.04 -5.62 527.97 -8.24Q526.91 -10.86 526.91 -13.9Q526.91 -16.94 527.97 -19.56Q529.04 -22.17 530.94 -24.14Q532.84 -26.11 535.41 -27.2Q537.97 -28.3 541.01 -28.3Q544.04 -28.3 546.6 -27.2Q549.17 -26.11 551.07 -24.14Q552.97 -22.17 554.04 -19.56Q555.11 -16.94 555.11 -13.9Q555.11 -10.86 554.04 -8.24Q552.97 -5.62 551.07 -3.64Q549.17 -1.67 546.6 -0.57Q544.04 0.52 541.01 0.52ZM541.01 -5.88Q542.82 -5.88 544.33 -6.81Q545.84 -7.74 546.74 -9.54Q547.65 -11.33 547.65 -13.9Q547.65 -16.47 546.74 -18.25Q545.84 -20.03 544.33 -20.95Q542.82 -21.86 541.01 -21.86Q539.23 -21.86 537.7 -20.95Q536.17 -20.03 535.27 -18.25Q534.36 -16.47 534.36 -13.9Q534.36 -11.33 535.27 -9.54Q536.17 -7.74 537.7 -6.81Q539.23 -5.88 541.01 -5.88Z M566.16 -15.12V0H558.97V-27.79H565.59V-23.83Q567.14 -25.88 569.27 -27.09Q571.39 -28.31 574.15 -28.31Q578.34 -28.31 580.95 -25.62Q583.55 -22.94 583.55 -17.92V0H576.36V-15.51Q576.36 -18.59 575.15 -20.23Q573.93 -21.87 571.46 -21.87Q570.03 -21.87 568.82 -21.12Q567.6 -20.37 566.88 -18.88Q566.16 -17.4 566.16 -15.12Z M597.49 -2.8Q597.49 0.31 595.94 2.64Q594.38 4.97 591.75 6.27Q589.12 7.58 585.86 7.6V3.76Q588.73 3.71 590.56 2.47Q592.39 1.23 592.68 -0.86Q592.32 -0.78 592.09 -0.75Q591.86 -0.72 591.59 -0.72Q589.85 -0.72 588.67 -1.98Q587.49 -3.23 587.49 -4.99Q587.49 -7.05 588.84 -8.3Q590.19 -9.54 592.15 -9.54Q594.65 -9.54 596.07 -7.84Q597.49 -6.14 597.49 -2.8Z  M619.2 -15.12V0H612.01V-37.34H619.2V-24.11Q620.63 -26.04 622.53 -27.17Q624.43 -28.31 627.19 -28.31Q631.38 -28.31 633.99 -25.62Q636.59 -22.94 636.59 -17.92V0H629.4V-15.51Q629.4 -18.59 628.19 -20.23Q626.97 -21.87 624.5 -21.87Q623.07 -21.87 621.86 -21.12Q620.64 -20.37 619.92 -18.88Q619.2 -17.4 619.2 -15.12Z M666.04 -27.79 652.49 10.04H644.66L648.59 -0.32L637.68 -27.79H645.48L652.44 -8.74L658.79 -27.79Z M696.15 -13.9Q696.15 -9.79 694.61 -6.54Q693.08 -3.28 690.33 -1.38Q687.58 0.52 683.82 0.52Q681.35 0.52 679.28 -0.53Q677.2 -1.58 675.62 -3.57V10.04H668.43V-27.79H675.05V-23.73Q676.67 -25.95 678.91 -27.13Q681.15 -28.31 683.82 -28.31Q687.56 -28.31 690.32 -26.41Q693.08 -24.51 694.61 -21.24Q696.15 -17.97 696.15 -13.9ZM688.69 -13.9Q688.69 -17.8 686.77 -19.84Q684.85 -21.87 682.19 -21.87Q680.45 -21.87 678.95 -20.96Q677.45 -20.04 676.56 -18.28Q675.67 -16.52 675.67 -13.87Q675.67 -11.26 676.57 -9.48Q677.47 -7.7 678.95 -6.81Q680.43 -5.92 682.19 -5.92Q684.85 -5.92 686.77 -7.93Q688.69 -9.95 688.69 -13.9Z M712.24 0.52Q709.21 0.52 706.64 -0.57Q704.08 -1.67 702.18 -3.64Q700.28 -5.62 699.21 -8.24Q698.14 -10.86 698.14 -13.9Q698.14 -16.94 699.21 -19.56Q700.28 -22.17 702.18 -24.14Q704.08 -26.11 706.64 -27.2Q709.21 -28.3 712.24 -28.3Q715.27 -28.3 717.84 -27.2Q720.4 -26.11 722.3 -24.14Q724.21 -22.17 725.27 -19.56Q726.34 -16.94 726.34 -13.9Q726.34 -10.86 725.27 -8.24Q724.21 -5.62 722.3 -3.64Q720.4 -1.67 717.84 -0.57Q715.27 0.52 712.24 0.52ZM712.24 -5.88Q714.06 -5.88 715.57 -6.81Q717.08 -7.74 717.98 -9.54Q718.88 -11.33 718.88 -13.9Q718.88 -16.47 717.98 -18.25Q717.08 -20.03 715.57 -20.95Q714.06 -21.86 712.24 -21.86Q710.47 -21.86 708.94 -20.95Q707.41 -20.03 706.5 -18.25Q705.6 -16.47 705.6 -13.9Q705.6 -11.33 706.5 -9.54Q707.41 -7.74 708.94 -6.81Q710.47 -5.88 712.24 -5.88Z M746.94 -7.03V-0.75Q745.62 -0.04 744.3 0.24Q742.98 0.52 741.38 0.52Q738.54 0.52 736.44 -0.56Q734.34 -1.63 733.19 -3.77Q732.03 -5.91 732.03 -9.01V-21.56H726.43V-27.79H732.03V-35.97H739.22V-27.79H747.17V-21.56H739.22V-10.66Q739.22 -8.26 740.28 -7.21Q741.35 -6.15 743.3 -6.15Q744.32 -6.15 745.25 -6.37Q746.19 -6.6 746.94 -7.03Z M758.04 -15.12V0H750.85V-37.34H758.04V-24.11Q759.47 -26.04 761.37 -27.17Q763.27 -28.31 766.03 -28.31Q770.22 -28.31 772.83 -25.62Q775.43 -22.94 775.43 -17.92V0H768.24V-15.51Q768.24 -18.59 767.03 -20.23Q765.81 -21.87 763.34 -21.87Q761.91 -21.87 760.7 -21.12Q759.48 -20.37 758.76 -18.88Q758.04 -17.4 758.04 -15.12Z M792.93 0.49Q788.78 0.49 785.65 -1.32Q782.52 -3.13 780.79 -6.41Q779.05 -9.69 779.05 -14Q779.05 -18.15 780.83 -21.37Q782.61 -24.59 785.73 -26.45Q788.85 -28.31 792.83 -28.31Q796.14 -28.31 798.8 -27.07Q801.46 -25.83 803.27 -23.61Q805.09 -21.39 805.88 -18.44Q806.66 -15.5 806.16 -12.1H783.32V-16.68H798.5Q798.39 -19.61 796.81 -21.3Q795.24 -22.98 792.67 -22.98Q790.66 -22.98 789.25 -21.95Q787.85 -20.91 787.09 -18.91Q786.34 -16.9 786.34 -13.98Q786.34 -11.13 787.08 -9.14Q787.82 -7.15 789.26 -6.13Q790.7 -5.11 792.78 -5.11Q795.16 -5.11 796.74 -6.24Q798.32 -7.36 798.91 -9.43H806.08Q804.91 -4.73 801.47 -2.12Q798.02 0.49 792.93 0.49Z M833.64 -8.9Q833.64 -4.55 830.46 -2.02Q827.29 0.52 821.34 0.52Q815.45 0.52 812.15 -2.15Q808.86 -4.82 808.46 -9.46H815.34Q815.4 -7.31 817.09 -6.06Q818.77 -4.81 821.46 -4.81Q823.57 -4.81 824.97 -5.49Q826.38 -6.18 826.38 -7.67Q826.38 -8.97 825.49 -9.63Q824.59 -10.29 822.6 -10.66L817.59 -11.58Q813.87 -12.28 811.74 -14.29Q809.6 -16.31 809.6 -19.57Q809.6 -22.13 811 -24.11Q812.39 -26.08 814.93 -27.19Q817.47 -28.31 820.9 -28.31Q824.42 -28.31 827.08 -27.14Q829.75 -25.96 831.34 -23.78Q832.94 -21.59 833.17 -18.59H826.29Q826.1 -20.64 824.65 -21.81Q823.21 -22.98 820.94 -22.98Q818.94 -22.98 817.73 -22.27Q816.51 -21.56 816.51 -20.22Q816.51 -18.98 817.4 -18.38Q818.28 -17.78 820.15 -17.4L825.49 -16.41Q829.56 -15.67 831.6 -13.78Q833.64 -11.9 833.64 -8.9Z M845.03 0H837.85V-27.79H845.03ZM846.2 -34.24Q846.2 -32.38 844.87 -31.16Q843.53 -29.93 841.38 -29.93Q839.24 -29.93 837.9 -31.16Q836.56 -32.38 836.56 -34.24Q836.56 -36.14 837.9 -37.35Q839.24 -38.56 841.38 -38.56Q843.53 -38.56 844.87 -37.35Q846.2 -36.14 846.2 -34.24Z M874.15 -8.9Q874.15 -4.55 870.97 -2.02Q867.79 0.52 861.85 0.52Q855.96 0.52 852.66 -2.15Q849.37 -4.82 848.96 -9.46H855.85Q855.91 -7.31 857.59 -6.06Q859.28 -4.81 861.97 -4.81Q864.08 -4.81 865.48 -5.49Q866.89 -6.18 866.89 -7.67Q866.89 -8.97 865.99 -9.63Q865.1 -10.29 863.11 -10.66L858.09 -11.58Q854.38 -12.28 852.24 -14.29Q850.11 -16.31 850.11 -19.57Q850.11 -22.13 851.5 -24.11Q852.9 -26.08 855.44 -27.19Q857.98 -28.31 861.41 -28.31Q864.92 -28.31 867.59 -27.14Q870.25 -25.96 871.85 -23.78Q873.45 -21.59 873.68 -18.59H866.8Q866.61 -20.64 865.16 -21.81Q863.72 -22.98 861.45 -22.98Q859.45 -22.98 858.23 -22.27Q857.02 -21.56 857.02 -20.22Q857.02 -18.98 857.9 -18.38Q858.79 -17.78 860.65 -17.4L866 -16.41Q870.06 -15.67 872.11 -13.78Q874.15 -11.9 874.15 -8.9Z M886.82 -2.8Q886.82 0.31 885.26 2.64Q883.71 4.97 881.08 6.27Q878.45 7.58 875.18 7.6V3.76Q878.06 3.71 879.89 2.47Q881.71 1.23 882 -0.86Q881.65 -0.78 881.42 -0.75Q881.19 -0.72 880.91 -0.72Q879.17 -0.72 878 -1.98Q876.82 -3.23 876.82 -4.99Q876.82 -7.05 878.17 -8.3Q879.52 -9.54 881.48 -9.54Q883.98 -9.54 885.4 -7.84Q886.82 -6.14 886.82 -2.8Z"/><path fill="#0E1726" transform="translate(72.0 209.8)" d="M14.9 0.53Q10.91 0.53 7.87 -1.3Q4.83 -3.13 3.11 -6.4Q1.39 -9.66 1.39 -13.9Q1.39 -18.06 3.15 -21.31Q4.91 -24.56 7.97 -26.44Q11.03 -28.31 14.9 -28.31Q18.53 -28.31 21.43 -26.76Q24.32 -25.22 26.16 -22.45Q27.99 -19.67 28.41 -15.92H20.8Q20.54 -18.68 18.96 -20.28Q17.38 -21.87 14.94 -21.87Q13.05 -21.87 11.69 -20.89Q10.32 -19.91 9.57 -18.15Q8.81 -16.38 8.81 -13.9Q8.81 -11.42 9.55 -9.6Q10.28 -7.78 11.67 -6.82Q13.05 -5.86 14.94 -5.86Q17.43 -5.86 18.97 -7.45Q20.51 -9.03 20.82 -11.87H28.41Q28.01 -8.04 26.21 -5.26Q24.41 -2.49 21.53 -0.98Q18.65 0.53 14.9 0.53Z M39.45 -15.12V0H32.26V-37.34H39.45V-24.11Q40.88 -26.04 42.78 -27.17Q44.69 -28.31 47.44 -28.31Q51.64 -28.31 54.24 -25.62Q56.84 -22.94 56.84 -17.92V0H49.66V-15.51Q49.66 -18.59 48.44 -20.23Q47.22 -21.87 44.76 -21.87Q43.33 -21.87 42.11 -21.12Q40.89 -20.37 40.17 -18.88Q39.45 -17.4 39.45 -15.12Z M78.85 0V-3.44Q77.48 -1.49 75.4 -0.48Q73.32 0.52 70.46 0.52Q66.13 0.52 63.49 -1.83Q60.86 -4.18 60.86 -8.04Q60.86 -12.13 64.06 -14.25Q67.27 -16.38 73.32 -16.38Q74.5 -16.38 75.59 -16.31Q76.68 -16.24 77.93 -16.07V-17.73Q77.93 -20.08 76.68 -21.37Q75.43 -22.66 73.14 -22.66Q70.84 -22.66 69.48 -21.36Q68.12 -20.06 67.92 -17.74H61.43Q61.63 -20.96 63.16 -23.33Q64.68 -25.69 67.26 -27Q69.84 -28.31 73.17 -28.31Q78.63 -28.31 81.67 -25.44Q84.72 -22.58 84.72 -17.45V0ZM67.64 -8.25Q67.64 -6.54 68.83 -5.52Q70.01 -4.49 72.04 -4.49Q74.78 -4.49 76.36 -5.91Q77.93 -7.33 77.93 -9.73V-11.71Q76.69 -11.91 75.71 -11.98Q74.73 -12.05 73.77 -12.05Q70.75 -12.05 69.2 -11.11Q67.64 -10.17 67.64 -8.25Z M97.38 -15.12V0H90.19V-27.79H96.81V-23.83Q98.36 -25.88 100.49 -27.09Q102.61 -28.31 105.37 -28.31Q109.56 -28.31 112.17 -25.62Q114.77 -22.94 114.77 -17.92V0H107.58V-15.51Q107.58 -18.59 106.37 -20.23Q105.15 -21.87 102.68 -21.87Q101.25 -21.87 100.04 -21.12Q98.82 -20.37 98.1 -18.88Q97.38 -17.4 97.38 -15.12Z M132.04 10.57Q128.32 10.57 125.48 9.29Q122.64 8.02 121.01 5.65Q119.38 3.29 119.23 0.13H126.19Q126.45 2.48 127.92 3.72Q129.39 4.96 131.99 4.96Q135 4.96 136.53 3.4Q138.07 1.84 138.07 -1.2V-5.27Q136.93 -3.29 134.9 -2.17Q132.87 -1.04 130.33 -1.04Q126.93 -1.04 124.22 -2.82Q121.52 -4.59 119.96 -7.69Q118.39 -10.78 118.39 -14.69Q118.39 -18.72 119.88 -21.78Q121.36 -24.84 123.99 -26.57Q126.63 -28.31 130.06 -28.31Q132.86 -28.31 134.99 -27.22Q137.11 -26.14 138.64 -23.97V-27.79H145.25V-1.29Q145.25 4.27 141.73 7.42Q138.22 10.57 132.04 10.57ZM125.65 -14.65Q125.65 -11.26 127.3 -9.28Q128.95 -7.29 131.73 -7.29Q133.62 -7.29 135.03 -8.21Q136.44 -9.13 137.23 -10.77Q138.02 -12.42 138.02 -14.6Q138.02 -17.99 136.3 -20.03Q134.58 -22.07 131.73 -22.07Q128.96 -22.07 127.31 -20.07Q125.65 -18.06 125.65 -14.65Z M163.01 0.49Q158.85 0.49 155.72 -1.32Q152.59 -3.13 150.86 -6.41Q149.13 -9.69 149.13 -14Q149.13 -18.15 150.9 -21.37Q152.68 -24.59 155.8 -26.45Q158.92 -28.31 162.9 -28.31Q166.21 -28.31 168.87 -27.07Q171.53 -25.83 173.35 -23.61Q175.16 -21.39 175.95 -18.44Q176.74 -15.5 176.24 -12.1H153.4V-16.68H168.57Q168.47 -19.61 166.89 -21.3Q165.31 -22.98 162.75 -22.98Q160.73 -22.98 159.32 -21.95Q157.92 -20.91 157.17 -18.91Q156.41 -16.9 156.41 -13.98Q156.41 -11.13 157.15 -9.14Q157.89 -7.15 159.33 -6.13Q160.77 -5.11 162.85 -5.11Q165.23 -5.11 166.81 -6.24Q168.39 -7.36 168.99 -9.43H176.16Q174.98 -4.73 171.54 -2.12Q168.1 0.49 163.01 0.49Z M188.14 -2.8Q188.14 0.31 186.59 2.64Q185.04 4.97 182.41 6.27Q179.78 7.58 176.51 7.6V3.76Q179.39 3.71 181.21 2.47Q183.04 1.23 183.33 -0.86Q182.98 -0.78 182.75 -0.75Q182.51 -0.72 182.24 -0.72Q180.5 -0.72 179.33 -1.98Q178.15 -3.23 178.15 -4.99Q178.15 -7.05 179.5 -8.3Q180.84 -9.54 182.81 -9.54Q185.3 -9.54 186.72 -7.84Q188.14 -6.14 188.14 -2.8Z  M209.85 0H202.67V-27.79H209.29V-23.81Q210.82 -25.93 212.84 -27.12Q214.85 -28.31 217.63 -28.31Q220.46 -28.31 222.58 -27.03Q224.7 -25.75 225.75 -23.33Q227.39 -25.65 229.59 -26.98Q231.78 -28.31 234.89 -28.31Q239.09 -28.31 241.69 -25.62Q244.28 -22.93 244.28 -17.92V0H237.11V-15.67Q237.11 -18.6 235.9 -20.24Q234.68 -21.87 232.3 -21.87Q230.89 -21.87 229.7 -21.14Q228.5 -20.41 227.79 -18.98Q227.07 -17.56 227.07 -15.47V0H219.89V-15.67Q219.89 -18.6 218.68 -20.24Q217.47 -21.87 215.08 -21.87Q213.63 -21.87 212.43 -21.14Q211.24 -20.41 210.55 -18.98Q209.85 -17.56 209.85 -15.47Z M261.75 0.49Q257.6 0.49 254.47 -1.32Q251.34 -3.13 249.61 -6.41Q247.87 -9.69 247.87 -14Q247.87 -18.15 249.65 -21.37Q251.43 -24.59 254.55 -26.45Q257.67 -28.31 261.65 -28.31Q264.96 -28.31 267.62 -27.07Q270.28 -25.83 272.09 -23.61Q273.91 -21.39 274.7 -18.44Q275.48 -15.5 274.98 -12.1H252.14V-16.68H267.32Q267.21 -19.61 265.63 -21.3Q264.06 -22.98 261.49 -22.98Q259.48 -22.98 258.07 -21.95Q256.67 -20.91 255.91 -18.91Q255.16 -16.9 255.16 -13.98Q255.16 -11.13 255.9 -9.14Q256.64 -7.15 258.08 -6.13Q259.52 -5.11 261.6 -5.11Q263.98 -5.11 265.56 -6.24Q267.14 -7.36 267.73 -9.43H274.9Q273.73 -4.73 270.29 -2.12Q266.84 0.49 261.75 0.49Z M296.1 -7.03V-0.75Q294.78 -0.04 293.46 0.24Q292.14 0.52 290.54 0.52Q287.7 0.52 285.6 -0.56Q283.5 -1.63 282.35 -3.77Q281.19 -5.91 281.19 -9.01V-21.56H275.59V-27.79H281.19V-35.97H288.38V-27.79H296.33V-21.56H288.38V-10.66Q288.38 -8.26 289.44 -7.21Q290.51 -6.15 292.46 -6.15Q293.48 -6.15 294.41 -6.37Q295.35 -6.6 296.1 -7.03Z M307.2 -13.47V0H300.01V-27.79H306.63V-22.42Q308.18 -25.06 311.15 -26.56Q314.13 -28.07 317.47 -28.07V-20.59Q314.42 -20.82 312.11 -20.31Q309.79 -19.8 308.49 -18.17Q307.2 -16.55 307.2 -13.47Z M327.63 0H320.45V-27.79H327.63ZM328.8 -34.24Q328.8 -32.38 327.47 -31.16Q326.13 -29.93 323.98 -29.93Q321.84 -29.93 320.5 -31.16Q319.16 -32.38 319.16 -34.24Q319.16 -36.14 320.5 -37.35Q321.84 -38.56 323.98 -38.56Q326.13 -38.56 327.47 -37.35Q328.8 -36.14 328.8 -34.24Z M345 0.53Q341.01 0.53 337.97 -1.3Q334.93 -3.13 333.21 -6.4Q331.49 -9.66 331.49 -13.9Q331.49 -18.06 333.25 -21.31Q335.01 -24.56 338.07 -26.44Q341.13 -28.31 345 -28.31Q348.63 -28.31 351.52 -26.76Q354.42 -25.22 356.25 -22.45Q358.09 -19.67 358.5 -15.92H350.9Q350.63 -18.68 349.05 -20.28Q347.47 -21.87 345.03 -21.87Q343.15 -21.87 341.78 -20.89Q340.42 -19.91 339.66 -18.15Q338.91 -16.38 338.91 -13.9Q338.91 -11.42 339.64 -9.6Q340.38 -7.78 341.76 -6.82Q343.15 -5.86 345.03 -5.86Q347.53 -5.86 349.07 -7.45Q350.61 -9.03 350.91 -11.87H358.5Q358.1 -8.04 356.31 -5.26Q354.51 -2.49 351.63 -0.98Q348.75 0.53 345 0.53Z M370.2 -4.63Q370.2 -2.49 368.84 -1.11Q367.49 0.26 365.34 0.26Q363.2 0.26 361.82 -1.11Q360.45 -2.49 360.45 -4.63Q360.45 -6.83 361.82 -8.21Q363.2 -9.58 365.34 -9.58Q367.49 -9.58 368.84 -8.21Q370.2 -6.83 370.2 -4.63Z"/><path fill="#B45309" transform="translate(86.0 285.8)" d="M7.99 0.3Q6.43 0.3 5.09 -0.26Q3.76 -0.82 2.76 -1.83Q1.76 -2.85 1.2 -4.22Q0.64 -5.58 0.64 -7.2Q0.64 -8.82 1.2 -10.17Q1.76 -11.53 2.76 -12.54Q3.76 -13.55 5.09 -14.1Q6.43 -14.66 7.99 -14.66Q9.55 -14.66 10.89 -14.1Q12.23 -13.55 13.23 -12.54Q14.23 -11.53 14.79 -10.17Q15.35 -8.82 15.35 -7.2Q15.35 -5.58 14.79 -4.22Q14.23 -2.85 13.23 -1.83Q12.23 -0.82 10.89 -0.26Q9.55 0.3 7.99 0.3ZM7.99 -2.42Q8.97 -2.42 9.75 -2.79Q10.54 -3.16 11.09 -3.82Q11.64 -4.48 11.93 -5.35Q12.21 -6.22 12.21 -7.2Q12.21 -8.18 11.93 -9.05Q11.64 -9.91 11.09 -10.56Q10.54 -11.21 9.75 -11.57Q8.97 -11.94 7.99 -11.94Q7.01 -11.94 6.22 -11.57Q5.44 -11.21 4.89 -10.56Q4.34 -9.91 4.05 -9.05Q3.76 -8.18 3.76 -7.2Q3.76 -6.22 4.05 -5.35Q4.34 -4.48 4.89 -3.82Q5.44 -3.16 6.22 -2.79Q7.01 -2.42 7.99 -2.42Z M29.41 -4.22Q29.41 -2.24 28.03 -1.12Q26.65 0 24.28 0H18.65V-14.36H24.05Q26.33 -14.36 27.63 -13.37Q28.93 -12.38 28.93 -10.54Q28.93 -9.56 28.41 -8.78Q27.88 -8 26.91 -7.51Q28.13 -7.08 28.77 -6.25Q29.41 -5.41 29.41 -4.22ZM23.82 -11.95H21.42V-8.61H23.82Q24.94 -8.61 25.5 -9.06Q26.06 -9.52 26.06 -10.29Q26.06 -11.06 25.5 -11.51Q24.94 -11.95 23.82 -11.95ZM24.05 -6.2H21.42V-2.41H24.05Q25.28 -2.41 25.91 -2.92Q26.54 -3.43 26.54 -4.33Q26.54 -5.2 25.91 -5.7Q25.28 -6.2 24.05 -6.2Z M43.83 -4.46Q43.83 -3.1 43.12 -2.04Q42.42 -0.99 41.13 -0.4Q39.83 0.2 38.01 0.2Q36.22 0.2 34.89 -0.41Q33.57 -1.03 32.81 -2.15Q32.05 -3.26 31.93 -4.77H35Q35.07 -3.59 35.82 -2.89Q36.57 -2.18 37.95 -2.18Q38.73 -2.18 39.33 -2.4Q39.92 -2.61 40.26 -3.03Q40.6 -3.45 40.6 -4.02Q40.6 -4.7 40.1 -5.11Q39.6 -5.51 38.67 -5.7L36.31 -6.15Q35.5 -6.31 34.8 -6.62Q34.1 -6.94 33.58 -7.42Q33.05 -7.9 32.76 -8.58Q32.47 -9.26 32.47 -10.14Q32.47 -11.42 33.16 -12.42Q33.85 -13.41 35.05 -13.98Q36.26 -14.54 37.82 -14.54Q39.44 -14.54 40.7 -13.95Q41.97 -13.35 42.74 -12.26Q43.52 -11.17 43.61 -9.67H40.52Q40.48 -10.42 40.13 -10.99Q39.77 -11.55 39.2 -11.86Q38.62 -12.18 37.85 -12.18Q37.12 -12.18 36.61 -11.93Q36.09 -11.68 35.82 -11.26Q35.54 -10.85 35.54 -10.35Q35.54 -9.85 35.81 -9.54Q36.08 -9.22 36.52 -9.03Q36.96 -8.84 37.47 -8.73L39.94 -8.25Q41.83 -7.87 42.83 -6.96Q43.83 -6.05 43.83 -4.46Z M56.91 -2.64V0H47.25V-14.36H56.77V-11.72H50.29V-8.71H56.19V-6.07H50.29V-2.64Z M63.51 0H60.47V-14.36H66.11Q68.82 -14.36 70.32 -13.15Q71.83 -11.94 71.83 -9.71Q71.83 -8.25 70.97 -7.15Q70.12 -6.05 68.58 -5.54L72.27 0H68.65L65.42 -5.07H63.51ZM63.51 -11.84V-7.59H65.96Q67.34 -7.59 68.06 -8.12Q68.77 -8.64 68.77 -9.71Q68.77 -10.78 68.06 -11.31Q67.34 -11.84 65.96 -11.84Z M87.51 -14.36 82.3 0H78.99L73.81 -14.36H77.09L80.73 -3.54L84.45 -14.36Z M90.62 -5.5H96.98L97.79 -3.09H89.74ZM97.64 0 93.8 -11.03 89.88 0H86.81L92.22 -14.36H95.55L100.91 0Z M109.02 0H105.99V-11.62H101.45V-14.36H113.56V-11.62H109.02Z M119.61 0H116.57V-14.36H119.61Z M130.27 0.3Q128.71 0.3 127.37 -0.26Q126.04 -0.82 125.04 -1.83Q124.04 -2.85 123.48 -4.22Q122.92 -5.58 122.92 -7.2Q122.92 -8.82 123.48 -10.17Q124.04 -11.53 125.04 -12.54Q126.04 -13.55 127.37 -14.1Q128.71 -14.66 130.27 -14.66Q131.83 -14.66 133.17 -14.1Q134.51 -13.55 135.51 -12.54Q136.51 -11.53 137.07 -10.17Q137.63 -8.82 137.63 -7.2Q137.63 -5.58 137.07 -4.22Q136.51 -2.85 135.51 -1.83Q134.51 -0.82 133.17 -0.26Q131.83 0.3 130.27 0.3ZM130.27 -2.42Q131.25 -2.42 132.03 -2.79Q132.82 -3.16 133.37 -3.82Q133.92 -4.48 134.21 -5.35Q134.49 -6.22 134.49 -7.2Q134.49 -8.18 134.21 -9.05Q133.92 -9.91 133.37 -10.56Q132.82 -11.21 132.03 -11.57Q131.25 -11.94 130.27 -11.94Q129.29 -11.94 128.5 -11.57Q127.72 -11.21 127.17 -10.56Q126.62 -9.91 126.33 -9.05Q126.04 -8.18 126.04 -7.2Q126.04 -6.22 126.33 -5.35Q126.62 -4.48 127.17 -3.82Q127.72 -3.16 128.5 -2.79Q129.29 -2.42 130.27 -2.42Z M150.31 0 143.72 -10.02V0H140.93V-14.36H144.21L150.49 -4.83V-14.36H153.28V0Z"/><path fill="#B45309" transform="translate(350.0 285.8)" d="M4.51 0H1.47V-14.36H4.51V-8.71H10.74V-14.36H13.78V0H10.74V-6.07H4.51Z M24.71 -5.4V0H21.67V-5.4L16.58 -14.36H19.87L23.29 -8.19L26.76 -14.36H29.83Z M37.92 -4.67H35.65V0H32.61V-14.36H37.92Q39.67 -14.36 40.95 -13.82Q42.23 -13.27 42.92 -12.21Q43.61 -11.15 43.61 -9.58Q43.61 -8.02 42.92 -6.92Q42.23 -5.83 40.95 -5.25Q39.67 -4.67 37.92 -4.67ZM37.9 -11.8H35.65V-7.23H37.9Q39.18 -7.23 39.88 -7.86Q40.58 -8.49 40.58 -9.55Q40.58 -10.63 39.88 -11.21Q39.18 -11.8 37.9 -11.8Z M53.37 0.3Q51.81 0.3 50.47 -0.26Q49.14 -0.82 48.14 -1.83Q47.14 -2.85 46.58 -4.22Q46.02 -5.58 46.02 -7.2Q46.02 -8.82 46.58 -10.17Q47.14 -11.53 48.14 -12.54Q49.14 -13.55 50.47 -14.1Q51.81 -14.66 53.37 -14.66Q54.93 -14.66 56.27 -14.1Q57.61 -13.55 58.61 -12.54Q59.61 -11.53 60.17 -10.17Q60.73 -8.82 60.73 -7.2Q60.73 -5.58 60.17 -4.22Q59.61 -2.85 58.61 -1.83Q57.61 -0.82 56.27 -0.26Q54.93 0.3 53.37 0.3ZM53.37 -2.42Q54.35 -2.42 55.13 -2.79Q55.92 -3.16 56.47 -3.82Q57.02 -4.48 57.31 -5.35Q57.59 -6.22 57.59 -7.2Q57.59 -8.18 57.31 -9.05Q57.02 -9.91 56.47 -10.56Q55.92 -11.21 55.13 -11.57Q54.35 -11.94 53.37 -11.94Q52.39 -11.94 51.6 -11.57Q50.82 -11.21 50.27 -10.56Q49.72 -9.91 49.43 -9.05Q49.14 -8.18 49.14 -7.2Q49.14 -6.22 49.43 -5.35Q49.72 -4.48 50.27 -3.82Q50.82 -3.16 51.6 -2.79Q52.39 -2.42 53.37 -2.42Z M70.12 0H67.09V-11.62H62.55V-14.36H74.66V-11.62H70.12Z M80.71 0H77.67V-14.36H80.71V-8.71H86.94V-14.36H89.98V0H86.94V-6.07H80.71Z M103.79 -2.64V0H94.13V-14.36H103.65V-11.72H97.17V-8.71H103.07V-6.07H97.17V-2.64Z M118.39 -4.46Q118.39 -3.1 117.68 -2.04Q116.98 -0.99 115.69 -0.4Q114.39 0.2 112.57 0.2Q110.78 0.2 109.45 -0.41Q108.13 -1.03 107.37 -2.15Q106.61 -3.26 106.49 -4.77H109.56Q109.63 -3.59 110.38 -2.89Q111.13 -2.18 112.51 -2.18Q113.29 -2.18 113.89 -2.4Q114.48 -2.61 114.82 -3.03Q115.16 -3.45 115.16 -4.02Q115.16 -4.7 114.66 -5.11Q114.16 -5.51 113.23 -5.7L110.87 -6.15Q110.06 -6.31 109.36 -6.62Q108.66 -6.94 108.14 -7.42Q107.61 -7.9 107.32 -8.58Q107.03 -9.26 107.03 -10.14Q107.03 -11.42 107.72 -12.42Q108.41 -13.41 109.61 -13.98Q110.82 -14.54 112.38 -14.54Q114 -14.54 115.26 -13.95Q116.53 -13.35 117.3 -12.26Q118.08 -11.17 118.17 -9.67H115.08Q115.04 -10.42 114.69 -10.99Q114.33 -11.55 113.76 -11.86Q113.18 -12.18 112.41 -12.18Q111.68 -12.18 111.17 -11.93Q110.65 -11.68 110.38 -11.26Q110.1 -10.85 110.1 -10.35Q110.1 -9.85 110.37 -9.54Q110.64 -9.22 111.08 -9.03Q111.52 -8.84 112.03 -8.73L114.5 -8.25Q116.39 -7.87 117.39 -6.96Q118.39 -6.05 118.39 -4.46Z M124.85 0H121.81V-14.36H124.85Z M140.03 -4.46Q140.03 -3.1 139.32 -2.04Q138.62 -0.99 137.33 -0.4Q136.03 0.2 134.21 0.2Q132.42 0.2 131.09 -0.41Q129.77 -1.03 129.01 -2.15Q128.25 -3.26 128.13 -4.77H131.2Q131.27 -3.59 132.02 -2.89Q132.77 -2.18 134.15 -2.18Q134.93 -2.18 135.53 -2.4Q136.12 -2.61 136.46 -3.03Q136.8 -3.45 136.8 -4.02Q136.8 -4.7 136.3 -5.11Q135.8 -5.51 134.87 -5.7L132.51 -6.15Q131.7 -6.31 131 -6.62Q130.3 -6.94 129.78 -7.42Q129.25 -7.9 128.96 -8.58Q128.67 -9.26 128.67 -10.14Q128.67 -11.42 129.36 -12.42Q130.05 -13.41 131.25 -13.98Q132.46 -14.54 134.02 -14.54Q135.64 -14.54 136.9 -13.95Q138.17 -13.35 138.94 -12.26Q139.72 -11.17 139.81 -9.67H136.72Q136.68 -10.42 136.33 -10.99Q135.97 -11.55 135.4 -11.86Q134.82 -12.18 134.05 -12.18Q133.32 -12.18 132.81 -11.93Q132.29 -11.68 132.02 -11.26Q131.74 -10.85 131.74 -10.35Q131.74 -9.85 132.01 -9.54Q132.28 -9.22 132.72 -9.03Q133.16 -8.84 133.67 -8.73L136.14 -8.25Q138.03 -7.87 139.03 -6.96Q140.03 -6.05 140.03 -4.46Z"/><path fill="#B45309" transform="translate(614.0 285.8)" d="M7.85 0.3Q6.34 0.3 5.02 -0.27Q3.71 -0.84 2.72 -1.87Q1.74 -2.9 1.19 -4.26Q0.64 -5.62 0.64 -7.2Q0.64 -8.78 1.19 -10.13Q1.74 -11.48 2.72 -12.5Q3.71 -13.52 5.02 -14.09Q6.34 -14.66 7.85 -14.66Q9.74 -14.66 11.29 -13.88Q12.83 -13.1 13.84 -11.71Q14.84 -10.31 15.08 -8.47H11.87Q11.7 -9.49 11.13 -10.28Q10.57 -11.06 9.73 -11.5Q8.9 -11.94 7.88 -11.94Q6.95 -11.94 6.19 -11.6Q5.43 -11.25 4.89 -10.62Q4.34 -9.99 4.05 -9.12Q3.76 -8.25 3.76 -7.2Q3.76 -6.15 4.05 -5.27Q4.34 -4.39 4.89 -3.76Q5.43 -3.12 6.19 -2.77Q6.95 -2.42 7.88 -2.42Q8.9 -2.42 9.74 -2.87Q10.58 -3.31 11.13 -4.1Q11.69 -4.89 11.87 -5.91H15.08Q14.83 -4.06 13.83 -2.66Q12.82 -1.26 11.28 -0.48Q9.74 0.3 7.85 0.3Z M21.43 0H18.39V-14.36H21.43V-8.71H27.66V-14.36H30.7V0H27.66V-6.07H21.43Z M37.44 -5.5H43.8L44.61 -3.09H36.56ZM44.46 0 40.62 -11.03 36.7 0H33.63L39.04 -14.36H42.37L47.73 0Z M60.03 0 53.44 -10.02V0H50.65V-14.36H53.93L60.21 -4.83V-14.36H63V0Z M73.71 0.3Q72.16 0.3 70.81 -0.25Q69.46 -0.8 68.45 -1.81Q67.44 -2.81 66.88 -4.19Q66.32 -5.58 66.32 -7.24Q66.32 -8.83 66.86 -10.18Q67.4 -11.52 68.38 -12.54Q69.36 -13.55 70.69 -14.11Q72.02 -14.66 73.6 -14.66Q75.42 -14.66 76.87 -13.99Q78.32 -13.33 79.31 -12.14Q80.31 -10.95 80.77 -9.38H77.2Q76.98 -10.12 76.48 -10.69Q75.98 -11.27 75.24 -11.61Q74.49 -11.94 73.52 -11.94Q72.36 -11.94 71.43 -11.39Q70.51 -10.84 69.97 -9.77Q69.44 -8.71 69.44 -7.16Q69.44 -5.78 69.94 -4.68Q70.44 -3.57 71.43 -2.93Q72.42 -2.28 73.86 -2.28Q74.92 -2.28 75.71 -2.67Q76.5 -3.06 77.01 -3.75Q77.52 -4.43 77.72 -5.33H73.55V-7.74H80.96Q81.03 -5.98 80.56 -4.51Q80.08 -3.05 79.13 -1.96Q78.18 -0.88 76.81 -0.29Q75.43 0.3 73.71 0.3Z M93.93 -2.64V0H84.27V-14.36H93.79V-11.72H87.31V-8.71H93.21V-6.07H87.31V-2.64Z  M109.3 0H106.27V-11.62H101.73V-14.36H113.84V-11.62H109.3Z M122.57 0.3Q121.01 0.3 119.67 -0.26Q118.34 -0.82 117.34 -1.83Q116.34 -2.85 115.78 -4.22Q115.22 -5.58 115.22 -7.2Q115.22 -8.82 115.78 -10.17Q116.34 -11.53 117.34 -12.54Q118.34 -13.55 119.67 -14.1Q121.01 -14.66 122.57 -14.66Q124.13 -14.66 125.47 -14.1Q126.81 -13.55 127.81 -12.54Q128.81 -11.53 129.37 -10.17Q129.93 -8.82 129.93 -7.2Q129.93 -5.58 129.37 -4.22Q128.81 -2.85 127.81 -1.83Q126.81 -0.82 125.47 -0.26Q124.13 0.3 122.57 0.3ZM122.57 -2.42Q123.55 -2.42 124.33 -2.79Q125.12 -3.16 125.67 -3.82Q126.22 -4.48 126.51 -5.35Q126.79 -6.22 126.79 -7.2Q126.79 -8.18 126.51 -9.05Q126.22 -9.91 125.67 -10.56Q125.12 -11.21 124.33 -11.57Q123.55 -11.94 122.57 -11.94Q121.59 -11.94 120.8 -11.57Q120.02 -11.21 119.47 -10.56Q118.92 -9.91 118.63 -9.05Q118.34 -8.18 118.34 -7.2Q118.34 -6.22 118.63 -5.35Q118.92 -4.48 119.47 -3.82Q120.02 -3.16 120.8 -2.79Q121.59 -2.42 122.57 -2.42Z  M145.04 0H142.01V-11.62H137.47V-14.36H149.58V-11.62H145.04Z M162.25 -2.64V0H152.59V-14.36H162.11V-11.72H155.63V-8.71H161.53V-6.07H155.63V-2.64Z M176.85 -4.46Q176.85 -3.1 176.14 -2.04Q175.44 -0.99 174.15 -0.4Q172.85 0.2 171.03 0.2Q169.24 0.2 167.91 -0.41Q166.59 -1.03 165.83 -2.15Q165.07 -3.26 164.95 -4.77H168.02Q168.09 -3.59 168.84 -2.89Q169.59 -2.18 170.97 -2.18Q171.75 -2.18 172.35 -2.4Q172.94 -2.61 173.28 -3.03Q173.62 -3.45 173.62 -4.02Q173.62 -4.7 173.12 -5.11Q172.62 -5.51 171.69 -5.7L169.33 -6.15Q168.52 -6.31 167.82 -6.62Q167.12 -6.94 166.6 -7.42Q166.07 -7.9 165.78 -8.58Q165.49 -9.26 165.49 -10.14Q165.49 -11.42 166.18 -12.42Q166.87 -13.41 168.07 -13.98Q169.28 -14.54 170.84 -14.54Q172.46 -14.54 173.72 -13.95Q174.99 -13.35 175.76 -12.26Q176.54 -11.17 176.63 -9.67H173.54Q173.5 -10.42 173.15 -10.99Q172.79 -11.55 172.22 -11.86Q171.64 -12.18 170.87 -12.18Q170.14 -12.18 169.63 -11.93Q169.11 -11.68 168.84 -11.26Q168.56 -10.85 168.56 -10.35Q168.56 -9.85 168.83 -9.54Q169.1 -9.22 169.54 -9.03Q169.98 -8.84 170.49 -8.73L172.96 -8.25Q174.85 -7.87 175.85 -6.96Q176.85 -6.05 176.85 -4.46Z M186.26 0H183.23V-11.62H178.69V-14.36H190.8V-11.62H186.26Z"/><path fill="#B45309" transform="translate(878.0 285.8)" d="M8.01 0 4.23 -9.55V0H1.47V-14.36H5.11L9.29 -3.72L13.46 -14.36H17.09V0H14.33V-9.61L10.54 0Z M30.89 -2.64V0H21.23V-14.36H30.75V-11.72H24.27V-8.71H30.17V-6.07H24.27V-2.64Z M40.88 0H37.85V-11.62H33.31V-14.36H45.42V-11.62H40.88Z M51.47 0H48.43V-14.36H54.07Q56.78 -14.36 58.28 -13.15Q59.79 -11.94 59.79 -9.71Q59.79 -8.25 58.93 -7.15Q58.08 -6.05 56.54 -5.54L60.23 0H56.61L53.38 -5.07H51.47ZM51.47 -11.84V-7.59H53.92Q55.3 -7.59 56.02 -8.12Q56.73 -8.64 56.73 -9.71Q56.73 -10.78 56.02 -11.31Q55.3 -11.84 53.92 -11.84Z M66.37 0H63.33V-14.36H66.37Z M76.89 0.3Q75.38 0.3 74.06 -0.27Q72.75 -0.84 71.76 -1.87Q70.78 -2.9 70.23 -4.26Q69.68 -5.62 69.68 -7.2Q69.68 -8.78 70.23 -10.13Q70.78 -11.48 71.76 -12.5Q72.75 -13.52 74.06 -14.09Q75.38 -14.66 76.89 -14.66Q78.78 -14.66 80.33 -13.88Q81.87 -13.1 82.88 -11.71Q83.88 -10.31 84.12 -8.47H80.91Q80.74 -9.49 80.17 -10.28Q79.61 -11.06 78.77 -11.5Q77.94 -11.94 76.92 -11.94Q75.99 -11.94 75.23 -11.6Q74.47 -11.25 73.93 -10.62Q73.38 -9.99 73.09 -9.12Q72.8 -8.25 72.8 -7.2Q72.8 -6.15 73.09 -5.27Q73.38 -4.39 73.93 -3.76Q74.47 -3.12 75.23 -2.77Q75.99 -2.42 76.92 -2.42Q77.94 -2.42 78.78 -2.87Q79.62 -3.31 80.17 -4.1Q80.73 -4.89 80.91 -5.91H84.12Q83.87 -4.06 82.87 -2.66Q81.86 -1.26 80.32 -0.48Q78.78 0.3 76.89 0.3Z"/><line x1="72" y1="359.8" x2="1128" y2="359.8" stroke="#D5D9DE" stroke-width="2"/><path fill="#0E1726" transform="translate(86.0 339.9)" d="M5.87 0H1.91V-18.67H13.98V-15.24H5.87V-10.54H12.72V-7.11H5.87Z M19.39 -6.74V0H15.79V-13.89H19.1V-11.21Q19.88 -12.53 21.36 -13.28Q22.85 -14.04 24.52 -14.04V-10.29Q23 -10.41 21.84 -10.16Q20.68 -9.9 20.04 -9.09Q19.39 -8.28 19.39 -6.74Z M29.6 0H26.01V-13.89H29.6ZM30.19 -17.12Q30.19 -16.19 29.52 -15.58Q28.85 -14.97 27.78 -14.97Q26.71 -14.97 26.04 -15.58Q25.37 -16.19 25.37 -17.12Q25.37 -18.07 26.04 -18.67Q26.71 -19.28 27.78 -19.28Q28.85 -19.28 29.52 -18.67Q30.19 -18.07 30.19 -17.12Z M38.29 0.27Q36.29 0.27 34.77 -0.65Q33.25 -1.57 32.39 -3.2Q31.53 -4.83 31.53 -6.95Q31.53 -9.03 32.41 -10.66Q33.29 -12.28 34.82 -13.22Q36.35 -14.15 38.29 -14.15Q40.1 -14.15 41.55 -13.38Q43 -12.61 43.92 -11.22Q44.83 -9.84 45.04 -7.96H41.24Q41.1 -9.34 40.32 -10.14Q39.53 -10.94 38.31 -10.94Q37.36 -10.94 36.68 -10.45Q36 -9.96 35.62 -9.07Q35.24 -8.19 35.24 -6.95Q35.24 -5.71 35.61 -4.8Q35.98 -3.89 36.67 -3.41Q37.36 -2.93 38.31 -2.93Q39.55 -2.93 40.32 -3.72Q41.09 -4.51 41.24 -5.93H45.04Q44.84 -4.02 43.94 -2.63Q43.04 -1.24 41.6 -0.49Q40.16 0.27 38.29 0.27Z M55.59 -3.51V-0.38Q54.93 -0.02 54.27 0.12Q53.61 0.26 52.81 0.26Q51.39 0.26 50.34 -0.28Q49.29 -0.82 48.72 -1.89Q48.14 -2.96 48.14 -4.5V-10.78H45.34V-13.89H48.14V-17.98H51.73V-13.89H55.71V-10.78H51.73V-5.33Q51.73 -4.13 52.26 -3.6Q52.8 -3.08 53.78 -3.08Q54.28 -3.08 54.75 -3.19Q55.22 -3.3 55.59 -3.51Z M61.14 0H57.55V-13.89H61.14ZM61.73 -17.12Q61.73 -16.19 61.06 -15.58Q60.39 -14.97 59.32 -14.97Q58.25 -14.97 57.58 -15.58Q56.91 -16.19 56.91 -17.12Q56.91 -18.07 57.58 -18.67Q58.25 -19.28 59.32 -19.28Q60.39 -19.28 61.06 -18.67Q61.73 -18.07 61.73 -17.12Z M70.12 0.26Q68.6 0.26 67.32 -0.29Q66.04 -0.83 65.09 -1.82Q64.14 -2.81 63.6 -4.12Q63.07 -5.43 63.07 -6.95Q63.07 -8.47 63.6 -9.78Q64.14 -11.08 65.09 -12.07Q66.04 -13.06 67.32 -13.6Q68.6 -14.15 70.12 -14.15Q71.64 -14.15 72.92 -13.6Q74.2 -13.06 75.15 -12.07Q76.1 -11.08 76.64 -9.78Q77.17 -8.47 77.17 -6.95Q77.17 -5.43 76.64 -4.12Q76.1 -2.81 75.15 -1.82Q74.2 -0.83 72.92 -0.29Q71.64 0.26 70.12 0.26ZM70.12 -2.94Q71.03 -2.94 71.78 -3.4Q72.54 -3.87 72.99 -4.77Q73.44 -5.66 73.44 -6.95Q73.44 -8.24 72.99 -9.13Q72.54 -10.02 71.78 -10.47Q71.03 -10.93 70.12 -10.93Q69.23 -10.93 68.47 -10.47Q67.7 -10.02 67.25 -9.13Q66.8 -8.24 66.8 -6.95Q66.8 -5.66 67.25 -4.77Q67.7 -3.87 68.47 -3.4Q69.23 -2.94 70.12 -2.94Z M82.7 -7.56V0H79.1V-13.89H82.41V-11.92Q83.19 -12.94 84.25 -13.55Q85.32 -14.15 86.69 -14.15Q88.79 -14.15 90.09 -12.81Q91.39 -11.47 91.39 -8.96V0H87.8V-7.76Q87.8 -9.3 87.19 -10.12Q86.58 -10.94 85.35 -10.94Q84.64 -10.94 84.03 -10.56Q83.42 -10.18 83.06 -9.44Q82.7 -8.7 82.7 -7.56Z  M105 0H101.37V-14.45H98.05V-17.58H105Z"/><path fill="#5B616B" transform="translate(350.0 339.9)" d=""/><path fill="#5B616B" transform="translate(614.0 339.9)" d=""/><path fill="#5B616B" transform="translate(878.0 339.9)" d=""/><line x1="72" y1="417.8" x2="1128" y2="417.8" stroke="#D5D9DE" stroke-width="2"/><path fill="#0E1726" transform="translate(86.0 397.9)" d="M5.87 0H1.91V-18.67H13.98V-15.24H5.87V-10.54H12.72V-7.11H5.87Z M19.39 -6.74V0H15.79V-13.89H19.1V-11.21Q19.88 -12.53 21.36 -13.28Q22.85 -14.04 24.52 -14.04V-10.29Q23 -10.41 21.84 -10.16Q20.68 -9.9 20.04 -9.09Q19.39 -8.28 19.39 -6.74Z M29.6 0H26.01V-13.89H29.6ZM30.19 -17.12Q30.19 -16.19 29.52 -15.58Q28.85 -14.97 27.78 -14.97Q26.71 -14.97 26.04 -15.58Q25.37 -16.19 25.37 -17.12Q25.37 -18.07 26.04 -18.67Q26.71 -19.28 27.78 -19.28Q28.85 -19.28 29.52 -18.67Q30.19 -18.07 30.19 -17.12Z M38.29 0.27Q36.29 0.27 34.77 -0.65Q33.25 -1.57 32.39 -3.2Q31.53 -4.83 31.53 -6.95Q31.53 -9.03 32.41 -10.66Q33.29 -12.28 34.82 -13.22Q36.35 -14.15 38.29 -14.15Q40.1 -14.15 41.55 -13.38Q43 -12.61 43.92 -11.22Q44.83 -9.84 45.04 -7.96H41.24Q41.1 -9.34 40.32 -10.14Q39.53 -10.94 38.31 -10.94Q37.36 -10.94 36.68 -10.45Q36 -9.96 35.62 -9.07Q35.24 -8.19 35.24 -6.95Q35.24 -5.71 35.61 -4.8Q35.98 -3.89 36.67 -3.41Q37.36 -2.93 38.31 -2.93Q39.55 -2.93 40.32 -3.72Q41.09 -4.51 41.24 -5.93H45.04Q44.84 -4.02 43.94 -2.63Q43.04 -1.24 41.6 -0.49Q40.16 0.27 38.29 0.27Z M55.59 -3.51V-0.38Q54.93 -0.02 54.27 0.12Q53.61 0.26 52.81 0.26Q51.39 0.26 50.34 -0.28Q49.29 -0.82 48.72 -1.89Q48.14 -2.96 48.14 -4.5V-10.78H45.34V-13.89H48.14V-17.98H51.73V-13.89H55.71V-10.78H51.73V-5.33Q51.73 -4.13 52.26 -3.6Q52.8 -3.08 53.78 -3.08Q54.28 -3.08 54.75 -3.19Q55.22 -3.3 55.59 -3.51Z M61.14 0H57.55V-13.89H61.14ZM61.73 -17.12Q61.73 -16.19 61.06 -15.58Q60.39 -14.97 59.32 -14.97Q58.25 -14.97 57.58 -15.58Q56.91 -16.19 56.91 -17.12Q56.91 -18.07 57.58 -18.67Q58.25 -19.28 59.32 -19.28Q60.39 -19.28 61.06 -18.67Q61.73 -18.07 61.73 -17.12Z M70.12 0.26Q68.6 0.26 67.32 -0.29Q66.04 -0.83 65.09 -1.82Q64.14 -2.81 63.6 -4.12Q63.07 -5.43 63.07 -6.95Q63.07 -8.47 63.6 -9.78Q64.14 -11.08 65.09 -12.07Q66.04 -13.06 67.32 -13.6Q68.6 -14.15 70.12 -14.15Q71.64 -14.15 72.92 -13.6Q74.2 -13.06 75.15 -12.07Q76.1 -11.08 76.64 -9.78Q77.17 -8.47 77.17 -6.95Q77.17 -5.43 76.64 -4.12Q76.1 -2.81 75.15 -1.82Q74.2 -0.83 72.92 -0.29Q71.64 0.26 70.12 0.26ZM70.12 -2.94Q71.03 -2.94 71.78 -3.4Q72.54 -3.87 72.99 -4.77Q73.44 -5.66 73.44 -6.95Q73.44 -8.24 72.99 -9.13Q72.54 -10.02 71.78 -10.47Q71.03 -10.93 70.12 -10.93Q69.23 -10.93 68.47 -10.47Q67.7 -10.02 67.25 -9.13Q66.8 -8.24 66.8 -6.95Q66.8 -5.66 67.25 -4.77Q67.7 -3.87 68.47 -3.4Q69.23 -2.94 70.12 -2.94Z M82.7 -7.56V0H79.1V-13.89H82.41V-11.92Q83.19 -12.94 84.25 -13.55Q85.32 -14.15 86.69 -14.15Q88.79 -14.15 90.09 -12.81Q91.39 -11.47 91.39 -8.96V0H87.8V-7.76Q87.8 -9.3 87.19 -10.12Q86.58 -10.94 85.35 -10.94Q84.64 -10.94 84.03 -10.56Q83.42 -10.18 83.06 -9.44Q82.7 -8.7 82.7 -7.56Z  M111.06 -3.22V0H98.79V-2.06L104.14 -7.52Q105.16 -8.57 105.79 -9.33Q106.41 -10.1 106.72 -10.78Q107.02 -11.45 107.02 -12.21Q107.02 -12.94 106.72 -13.48Q106.41 -14.02 105.86 -14.31Q105.31 -14.61 104.53 -14.61Q103.69 -14.61 103.07 -14.27Q102.46 -13.94 102.12 -13.32Q101.79 -12.71 101.79 -11.84H98.27Q98.27 -13.61 99.1 -14.96Q99.92 -16.31 101.37 -17.07Q102.82 -17.84 104.71 -17.84Q106.45 -17.84 107.83 -17.16Q109.2 -16.48 110 -15.31Q110.79 -14.15 110.79 -12.65Q110.79 -11.61 110.47 -10.7Q110.14 -9.79 109.31 -8.71Q108.48 -7.64 106.93 -6.07L104.28 -3.22Z"/><path fill="#5B616B" transform="translate(350.0 397.9)" d=""/><path fill="#5B616B" transform="translate(614.0 397.9)" d=""/><path fill="#5B616B" transform="translate(878.0 397.9)" d=""/><line x1="72" y1="475.8" x2="1128" y2="475.8" stroke="#D5D9DE" stroke-width="2"/><path fill="#0E1726" transform="translate(86.0 455.9)" d="M5.87 0H1.91V-18.67H13.98V-15.24H5.87V-10.54H12.72V-7.11H5.87Z M19.39 -6.74V0H15.79V-13.89H19.1V-11.21Q19.88 -12.53 21.36 -13.28Q22.85 -14.04 24.52 -14.04V-10.29Q23 -10.41 21.84 -10.16Q20.68 -9.9 20.04 -9.09Q19.39 -8.28 19.39 -6.74Z M29.6 0H26.01V-13.89H29.6ZM30.19 -17.12Q30.19 -16.19 29.52 -15.58Q28.85 -14.97 27.78 -14.97Q26.71 -14.97 26.04 -15.58Q25.37 -16.19 25.37 -17.12Q25.37 -18.07 26.04 -18.67Q26.71 -19.28 27.78 -19.28Q28.85 -19.28 29.52 -18.67Q30.19 -18.07 30.19 -17.12Z M38.29 0.27Q36.29 0.27 34.77 -0.65Q33.25 -1.57 32.39 -3.2Q31.53 -4.83 31.53 -6.95Q31.53 -9.03 32.41 -10.66Q33.29 -12.28 34.82 -13.22Q36.35 -14.15 38.29 -14.15Q40.1 -14.15 41.55 -13.38Q43 -12.61 43.92 -11.22Q44.83 -9.84 45.04 -7.96H41.24Q41.1 -9.34 40.32 -10.14Q39.53 -10.94 38.31 -10.94Q37.36 -10.94 36.68 -10.45Q36 -9.96 35.62 -9.07Q35.24 -8.19 35.24 -6.95Q35.24 -5.71 35.61 -4.8Q35.98 -3.89 36.67 -3.41Q37.36 -2.93 38.31 -2.93Q39.55 -2.93 40.32 -3.72Q41.09 -4.51 41.24 -5.93H45.04Q44.84 -4.02 43.94 -2.63Q43.04 -1.24 41.6 -0.49Q40.16 0.27 38.29 0.27Z M55.59 -3.51V-0.38Q54.93 -0.02 54.27 0.12Q53.61 0.26 52.81 0.26Q51.39 0.26 50.34 -0.28Q49.29 -0.82 48.72 -1.89Q48.14 -2.96 48.14 -4.5V-10.78H45.34V-13.89H48.14V-17.98H51.73V-13.89H55.71V-10.78H51.73V-5.33Q51.73 -4.13 52.26 -3.6Q52.8 -3.08 53.78 -3.08Q54.28 -3.08 54.75 -3.19Q55.22 -3.3 55.59 -3.51Z M61.14 0H57.55V-13.89H61.14ZM61.73 -17.12Q61.73 -16.19 61.06 -15.58Q60.39 -14.97 59.32 -14.97Q58.25 -14.97 57.58 -15.58Q56.91 -16.19 56.91 -17.12Q56.91 -18.07 57.58 -18.67Q58.25 -19.28 59.32 -19.28Q60.39 -19.28 61.06 -18.67Q61.73 -18.07 61.73 -17.12Z M70.12 0.26Q68.6 0.26 67.32 -0.29Q66.04 -0.83 65.09 -1.82Q64.14 -2.81 63.6 -4.12Q63.07 -5.43 63.07 -6.95Q63.07 -8.47 63.6 -9.78Q64.14 -11.08 65.09 -12.07Q66.04 -13.06 67.32 -13.6Q68.6 -14.15 70.12 -14.15Q71.64 -14.15 72.92 -13.6Q74.2 -13.06 75.15 -12.07Q76.1 -11.08 76.64 -9.78Q77.17 -8.47 77.17 -6.95Q77.17 -5.43 76.64 -4.12Q76.1 -2.81 75.15 -1.82Q74.2 -0.83 72.92 -0.29Q71.64 0.26 70.12 0.26ZM70.12 -2.94Q71.03 -2.94 71.78 -3.4Q72.54 -3.87 72.99 -4.77Q73.44 -5.66 73.44 -6.95Q73.44 -8.24 72.99 -9.13Q72.54 -10.02 71.78 -10.47Q71.03 -10.93 70.12 -10.93Q69.23 -10.93 68.47 -10.47Q67.7 -10.02 67.25 -9.13Q66.8 -8.24 66.8 -6.95Q66.8 -5.66 67.25 -4.77Q67.7 -3.87 68.47 -3.4Q69.23 -2.94 70.12 -2.94Z M82.7 -7.56V0H79.1V-13.89H82.41V-11.92Q83.19 -12.94 84.25 -13.55Q85.32 -14.15 86.69 -14.15Q88.79 -14.15 90.09 -12.81Q91.39 -11.47 91.39 -8.96V0H87.8V-7.76Q87.8 -9.3 87.19 -10.12Q86.58 -10.94 85.35 -10.94Q84.64 -10.94 84.03 -10.56Q83.42 -10.18 83.06 -9.44Q82.7 -8.7 82.7 -7.56Z  M104.92 0.23Q103.02 0.23 101.55 -0.46Q100.08 -1.15 99.25 -2.37Q98.42 -3.59 98.4 -5.17H101.92Q102 -3.99 102.81 -3.31Q103.62 -2.62 104.96 -2.62Q106.36 -2.62 107.14 -3.28Q107.92 -3.95 107.92 -5.13Q107.92 -6.28 107.02 -6.93Q106.11 -7.58 104.49 -7.58H102.58V-10.43H104.29Q105.19 -10.43 105.81 -10.71Q106.44 -10.99 106.79 -11.51Q107.13 -12.03 107.13 -12.73Q107.13 -13.77 106.48 -14.38Q105.83 -14.98 104.71 -14.98Q103.61 -14.98 102.95 -14.32Q102.28 -13.66 102.25 -12.52H98.75Q98.77 -14.04 99.58 -15.24Q100.39 -16.45 101.78 -17.14Q103.17 -17.84 104.89 -17.84Q106.73 -17.84 108.07 -17.21Q109.4 -16.59 110.12 -15.51Q110.85 -14.43 110.85 -13.01Q110.85 -11.82 110.17 -10.86Q109.49 -9.9 108.22 -9.22Q109.86 -8.71 110.75 -7.69Q111.64 -6.67 111.64 -5.21Q111.64 -3.6 110.79 -2.37Q109.94 -1.13 108.44 -0.45Q106.94 0.23 104.92 0.23Z"/><path fill="#5B616B" transform="translate(350.0 455.9)" d=""/><path fill="#5B616B" transform="translate(614.0 455.9)" d=""/><path fill="#5B616B" transform="translate(878.0 455.9)" d=""/><path fill="#5B616B" transform="translate(72.0 548.0)" d="M12.27 0 3.95 -12.34V0H1.71V-15.8H4.36L12.46 -3.79V-15.8H14.71V0Z M22.51 0.22Q21.27 0.22 20.23 -0.23Q19.18 -0.68 18.42 -1.51Q17.65 -2.33 17.22 -3.44Q16.79 -4.54 16.79 -5.84Q16.79 -7.14 17.22 -8.24Q17.65 -9.34 18.42 -10.16Q19.18 -10.98 20.23 -11.43Q21.27 -11.88 22.51 -11.88Q23.75 -11.88 24.8 -11.43Q25.84 -10.98 26.61 -10.16Q27.38 -9.34 27.81 -8.24Q28.23 -7.14 28.23 -5.84Q28.23 -4.54 27.81 -3.44Q27.38 -2.33 26.61 -1.51Q25.84 -0.68 24.8 -0.23Q23.75 0.22 22.51 0.22ZM22.51 -1.74Q23.48 -1.74 24.25 -2.24Q25.03 -2.73 25.48 -3.65Q25.93 -4.57 25.93 -5.84Q25.93 -7.11 25.48 -8.02Q25.03 -8.93 24.25 -9.41Q23.48 -9.9 22.51 -9.9Q21.56 -9.9 20.78 -9.41Q20 -8.93 19.54 -8.02Q19.09 -7.11 19.09 -5.84Q19.09 -4.57 19.54 -3.65Q20 -2.73 20.78 -2.24Q21.56 -1.74 22.51 -1.74Z  M36.56 -10.89H34.84L34.69 -15.8H36.73Z M44.52 0.22Q42.84 0.22 41.57 -0.54Q40.31 -1.31 39.6 -2.69Q38.9 -4.08 38.9 -5.91Q38.9 -7.63 39.62 -8.98Q40.34 -10.33 41.6 -11.11Q42.85 -11.89 44.46 -11.89Q45.77 -11.89 46.83 -11.39Q47.88 -10.9 48.61 -10.01Q49.34 -9.11 49.68 -7.91Q50.01 -6.7 49.86 -5.29H40.19V-6.75H47.49Q47.43 -8.37 46.6 -9.29Q45.78 -10.22 44.41 -10.22Q43.42 -10.22 42.69 -9.7Q41.96 -9.18 41.55 -8.21Q41.15 -7.25 41.15 -5.91Q41.15 -4.54 41.54 -3.55Q41.93 -2.57 42.68 -2.05Q43.43 -1.53 44.48 -1.53Q45.73 -1.53 46.56 -2.17Q47.38 -2.8 47.65 -3.95H49.86Q49.42 -2 48.01 -0.89Q46.6 0.22 44.52 0.22Z M52.6 0H50.09L54.22 -5.96L50.36 -11.67H52.94L55.82 -7.27L58.7 -11.67H61.08L57.26 -5.89L61.35 0H58.81L55.68 -4.63Z M73.94 -5.84Q73.94 -4.08 73.3 -2.71Q72.66 -1.34 71.51 -0.56Q70.36 0.22 68.79 0.22Q67.61 0.22 66.64 -0.35Q65.67 -0.92 65.03 -1.98V4.25H62.8V-11.67H64.87V-9.53Q65.5 -10.66 66.53 -11.27Q67.56 -11.89 68.79 -11.89Q70.35 -11.89 71.51 -11.11Q72.66 -10.33 73.3 -8.96Q73.94 -7.59 73.94 -5.84ZM71.64 -5.84Q71.64 -7.79 70.7 -8.85Q69.77 -9.91 68.34 -9.91Q67.42 -9.91 66.67 -9.44Q65.91 -8.96 65.47 -8.06Q65.03 -7.16 65.03 -5.84Q65.03 -4.56 65.47 -3.64Q65.9 -2.72 66.65 -2.24Q67.41 -1.75 68.34 -1.75Q69.77 -1.75 70.7 -2.81Q71.64 -3.87 71.64 -5.84Z M80.65 0.22Q78.97 0.22 77.7 -0.54Q76.43 -1.31 75.73 -2.69Q75.02 -4.08 75.02 -5.91Q75.02 -7.63 75.74 -8.98Q76.46 -10.33 77.72 -11.11Q78.98 -11.89 80.58 -11.89Q81.9 -11.89 82.95 -11.39Q84 -10.9 84.73 -10.01Q85.46 -9.11 85.8 -7.91Q86.14 -6.7 85.98 -5.29H76.31V-6.75H83.62Q83.55 -8.37 82.73 -9.29Q81.9 -10.22 80.54 -10.22Q79.54 -10.22 78.81 -9.7Q78.08 -9.18 77.68 -8.21Q77.27 -7.25 77.27 -5.91Q77.27 -4.54 77.66 -3.55Q78.06 -2.57 78.81 -2.05Q79.55 -1.53 80.6 -1.53Q81.86 -1.53 82.68 -2.17Q83.51 -2.8 83.77 -3.95H85.98Q85.55 -2 84.14 -0.89Q82.72 0.22 80.65 0.22Z M92.38 0.23Q90.78 0.23 89.56 -0.54Q88.33 -1.31 87.64 -2.68Q86.95 -4.06 86.95 -5.84Q86.95 -7.6 87.65 -8.96Q88.35 -10.33 89.58 -11.11Q90.81 -11.89 92.38 -11.89Q93.82 -11.89 94.96 -11.28Q96.1 -10.67 96.84 -9.56Q97.57 -8.45 97.77 -6.94H95.44Q95.25 -8.33 94.44 -9.12Q93.62 -9.91 92.39 -9.91Q91.44 -9.91 90.73 -9.4Q90.02 -8.89 89.63 -7.99Q89.24 -7.08 89.24 -5.84Q89.24 -4.6 89.63 -3.67Q90.01 -2.74 90.73 -2.24Q91.44 -1.73 92.39 -1.73Q93.64 -1.73 94.45 -2.52Q95.25 -3.31 95.45 -4.73H97.77Q97.58 -3.19 96.86 -2.08Q96.14 -0.98 94.99 -0.37Q93.85 0.23 92.38 0.23Z M106.25 -2.16V-0.2Q105.76 0.03 105.29 0.13Q104.82 0.22 104.27 0.22Q103.2 0.22 102.38 -0.18Q101.55 -0.58 101.09 -1.41Q100.62 -2.25 100.62 -3.52V-9.76H98.06V-11.67H100.62V-15.11H102.85V-11.67H106.36V-9.76H102.85V-4.02Q102.85 -2.82 103.38 -2.33Q103.92 -1.84 104.81 -1.84Q105.21 -1.84 105.56 -1.92Q105.92 -1.99 106.25 -2.16Z M112.61 0.22Q110.93 0.22 109.66 -0.54Q108.4 -1.31 107.69 -2.69Q106.99 -4.08 106.99 -5.91Q106.99 -7.63 107.71 -8.98Q108.43 -10.33 109.69 -11.11Q110.94 -11.89 112.55 -11.89Q113.86 -11.89 114.92 -11.39Q115.97 -10.9 116.7 -10.01Q117.43 -9.11 117.77 -7.91Q118.1 -6.7 117.95 -5.29H108.28V-6.75H115.58Q115.52 -8.37 114.69 -9.29Q113.87 -10.22 112.5 -10.22Q111.51 -10.22 110.78 -9.7Q110.05 -9.18 109.64 -8.21Q109.24 -7.25 109.24 -5.91Q109.24 -4.54 109.63 -3.55Q110.02 -2.57 110.77 -2.05Q111.52 -1.53 112.57 -1.53Q113.82 -1.53 114.65 -2.17Q115.47 -2.8 115.74 -3.95H117.95Q117.51 -2 116.1 -0.89Q114.69 0.22 112.61 0.22Z M118.91 -5.84Q118.91 -7.6 119.55 -8.97Q120.19 -10.34 121.35 -11.11Q122.51 -11.89 124.07 -11.89Q125.25 -11.89 126.23 -11.31Q127.21 -10.72 127.82 -9.66V-15.8H130.05V0H127.98V-2.09Q127.35 -1 126.33 -0.39Q125.32 0.22 124.07 0.22Q122.51 0.22 121.35 -0.56Q120.19 -1.34 119.55 -2.71Q118.91 -4.09 118.91 -5.84ZM121.21 -5.84Q121.21 -3.88 122.14 -2.82Q123.07 -1.75 124.51 -1.75Q125.48 -1.75 126.22 -2.25Q126.97 -2.74 127.4 -3.67Q127.82 -4.59 127.82 -5.87Q127.82 -7.18 127.38 -8.08Q126.94 -8.98 126.19 -9.45Q125.44 -9.91 124.51 -9.91Q123.07 -9.91 122.14 -8.86Q121.21 -7.81 121.21 -5.84Z  M144.34 -4.8V-11.67H146.57V0H144.5V-1.84Q144.05 -0.94 143.09 -0.36Q142.13 0.22 140.92 0.22Q139.76 0.22 138.85 -0.25Q137.94 -0.71 137.44 -1.69Q136.94 -2.66 136.94 -4.15V-11.67H139.17V-4.6Q139.17 -3.08 139.86 -2.41Q140.54 -1.74 141.63 -1.74Q142.38 -1.74 143 -2.13Q143.61 -2.51 143.98 -3.2Q144.34 -3.89 144.34 -4.8Z M160.44 -5.84Q160.44 -4.08 159.8 -2.71Q159.17 -1.34 158.02 -0.56Q156.87 0.22 155.3 0.22Q154.11 0.22 153.14 -0.35Q152.17 -0.92 151.53 -1.98V4.25H149.31V-11.67H151.37V-9.53Q152.01 -10.66 153.03 -11.27Q154.06 -11.89 155.3 -11.89Q156.86 -11.89 158.01 -11.11Q159.17 -10.33 159.8 -8.96Q160.44 -7.59 160.44 -5.84ZM158.14 -5.84Q158.14 -7.79 157.21 -8.85Q156.27 -9.91 154.84 -9.91Q153.92 -9.91 153.17 -9.44Q152.42 -8.96 151.98 -8.06Q151.53 -7.16 151.53 -5.84Q151.53 -4.56 151.97 -3.64Q152.41 -2.72 153.16 -2.24Q153.91 -1.75 154.84 -1.75Q156.27 -1.75 157.21 -2.81Q158.14 -3.87 158.14 -5.84Z M164.6 0H162.35V-15.8H164.6Z M169.57 0H167.35V-11.67H169.57ZM170.06 -14.37Q170.06 -13.74 169.61 -13.32Q169.16 -12.9 168.45 -12.9Q167.74 -12.9 167.29 -13.32Q166.83 -13.74 166.83 -14.37Q166.83 -15.02 167.29 -15.42Q167.74 -15.83 168.45 -15.83Q169.16 -15.83 169.61 -15.42Q170.06 -15.02 170.06 -14.37Z M175.6 0H173.38V-9.76H170.82V-11.67H173.38V-12.52Q173.38 -14.2 174.26 -15.1Q175.14 -15.99 176.8 -15.99Q177.28 -15.99 177.68 -15.92Q178.09 -15.84 178.41 -15.71V-13.91Q178.16 -14.02 177.88 -14.06Q177.59 -14.1 177.28 -14.1Q176.5 -14.1 176.05 -13.72Q175.6 -13.34 175.6 -12.5V-11.67H178.86V-9.76H175.6Z M187.54 -2.16V-0.2Q187.05 0.03 186.58 0.13Q186.11 0.22 185.56 0.22Q184.49 0.22 183.67 -0.18Q182.84 -0.58 182.38 -1.41Q181.91 -2.25 181.91 -3.52V-9.76H179.35V-11.67H181.91V-15.11H184.14V-11.67H187.65V-9.76H184.14V-4.02Q184.14 -2.82 184.67 -2.33Q185.21 -1.84 186.1 -1.84Q186.5 -1.84 186.85 -1.92Q187.21 -1.99 187.54 -2.16Z M191.57 -10.89H189.85L189.7 -15.8H191.74Z  M203.62 0.23Q202.01 0.23 200.79 -0.54Q199.56 -1.31 198.87 -2.68Q198.18 -4.06 198.18 -5.84Q198.18 -7.6 198.88 -8.96Q199.59 -10.33 200.81 -11.11Q202.04 -11.89 203.62 -11.89Q205.05 -11.89 206.19 -11.28Q207.33 -10.67 208.07 -9.56Q208.81 -8.45 209 -6.94H206.67Q206.48 -8.33 205.67 -9.12Q204.85 -9.91 203.63 -9.91Q202.67 -9.91 201.97 -9.4Q201.26 -8.89 200.86 -7.99Q200.47 -7.08 200.47 -5.84Q200.47 -4.6 200.86 -3.67Q201.25 -2.74 201.96 -2.24Q202.67 -1.73 203.63 -1.73Q204.88 -1.73 205.68 -2.52Q206.48 -3.31 206.68 -4.73H209Q208.82 -3.19 208.09 -2.08Q207.37 -0.98 206.23 -0.37Q205.08 0.23 203.62 0.23Z M215.69 0.22Q214.45 0.22 213.41 -0.23Q212.37 -0.68 211.6 -1.51Q210.83 -2.33 210.4 -3.44Q209.97 -4.54 209.97 -5.84Q209.97 -7.14 210.4 -8.24Q210.83 -9.34 211.6 -10.16Q212.37 -10.98 213.41 -11.43Q214.45 -11.88 215.69 -11.88Q216.94 -11.88 217.98 -11.43Q219.02 -10.98 219.79 -10.16Q220.56 -9.34 220.99 -8.24Q221.42 -7.14 221.42 -5.84Q221.42 -4.54 220.99 -3.44Q220.56 -2.33 219.79 -1.51Q219.02 -0.68 217.98 -0.23Q216.94 0.22 215.69 0.22ZM215.69 -1.74Q216.66 -1.74 217.43 -2.24Q218.21 -2.73 218.66 -3.65Q219.12 -4.57 219.12 -5.84Q219.12 -7.11 218.66 -8.02Q218.21 -8.93 217.43 -9.41Q216.66 -9.9 215.69 -9.9Q214.74 -9.9 213.96 -9.41Q213.18 -8.93 212.73 -8.02Q212.27 -7.11 212.27 -5.84Q212.27 -4.57 212.73 -3.65Q213.18 -2.73 213.96 -2.24Q214.74 -1.74 215.69 -1.74Z M225.59 0H223.34V-15.8H225.59Z M235.62 -4.8V-11.67H237.85V0H235.78V-1.84Q235.33 -0.94 234.37 -0.36Q233.4 0.22 232.2 0.22Q231.04 0.22 230.13 -0.25Q229.22 -0.71 228.72 -1.69Q228.22 -2.66 228.22 -4.15V-11.67H230.45V-4.6Q230.45 -3.08 231.13 -2.41Q231.82 -1.74 232.9 -1.74Q233.66 -1.74 234.28 -2.13Q234.89 -2.51 235.26 -3.2Q235.62 -3.89 235.62 -4.8Z M242.81 0H240.59V-11.67H242.65V-9.72Q243.26 -10.74 244.19 -11.31Q245.11 -11.89 246.32 -11.89Q247.6 -11.89 248.53 -11.26Q249.46 -10.63 249.85 -9.47Q250.47 -10.58 251.46 -11.24Q252.45 -11.89 253.79 -11.89Q255.59 -11.89 256.66 -10.75Q257.73 -9.62 257.73 -7.54V0H255.52V-6.84Q255.52 -8.31 254.88 -9.11Q254.24 -9.91 253.02 -9.91Q252.27 -9.91 251.64 -9.51Q251.02 -9.11 250.65 -8.39Q250.28 -7.66 250.28 -6.68V0H248.05V-6.84Q248.05 -8.31 247.42 -9.11Q246.79 -9.91 245.56 -9.91Q244.8 -9.91 244.17 -9.51Q243.54 -9.11 243.18 -8.39Q242.81 -7.66 242.81 -6.68Z M262.59 -6.59V0H260.36V-11.67H262.43V-9.72Q263.03 -10.69 263.99 -11.29Q264.95 -11.89 266.16 -11.89Q267.95 -11.89 269.04 -10.76Q270.13 -9.63 270.13 -7.54V0H267.91V-6.8Q267.91 -8.3 267.27 -9.11Q266.63 -9.91 265.38 -9.91Q264.62 -9.91 263.98 -9.51Q263.34 -9.1 262.97 -8.36Q262.59 -7.62 262.59 -6.59Z M275.78 -1.59Q275.78 -0.85 275.3 -0.37Q274.83 0.11 274.09 0.11Q273.34 0.11 272.86 -0.37Q272.38 -0.85 272.38 -1.59Q272.38 -2.36 272.86 -2.84Q273.34 -3.32 274.09 -3.32Q274.83 -3.32 275.3 -2.84Q275.78 -2.36 275.78 -1.59Z  M289.7 0.33Q287.98 0.33 286.52 -0.3Q285.06 -0.92 283.97 -2.05Q282.88 -3.17 282.27 -4.67Q281.67 -6.17 281.67 -7.92Q281.67 -9.67 282.27 -11.16Q282.88 -12.65 283.97 -13.77Q285.06 -14.88 286.52 -15.5Q287.98 -16.13 289.7 -16.13Q291.41 -16.13 292.88 -15.5Q294.34 -14.88 295.43 -13.77Q296.52 -12.65 297.12 -11.16Q297.72 -9.67 297.72 -7.92Q297.72 -6.17 297.12 -4.67Q296.52 -3.17 295.43 -2.05Q294.34 -0.92 292.88 -0.3Q291.41 0.33 289.7 0.33ZM289.7 -1.84Q290.95 -1.84 291.96 -2.31Q292.98 -2.78 293.71 -3.61Q294.44 -4.45 294.83 -5.55Q295.22 -6.66 295.22 -7.92Q295.22 -9.18 294.83 -10.28Q294.44 -11.38 293.71 -12.2Q292.98 -13.03 291.96 -13.49Q290.95 -13.96 289.7 -13.96Q288.45 -13.96 287.43 -13.49Q286.41 -13.03 285.68 -12.2Q284.95 -11.38 284.56 -10.28Q284.16 -9.18 284.16 -7.92Q284.16 -6.66 284.56 -5.55Q284.95 -4.45 285.68 -3.61Q286.41 -2.78 287.43 -2.31Q288.45 -1.84 289.7 -1.84Z M301.95 -6.59V0H299.72V-11.67H301.79V-9.72Q302.39 -10.69 303.35 -11.29Q304.31 -11.89 305.52 -11.89Q307.31 -11.89 308.4 -10.76Q309.49 -9.63 309.49 -7.54V0H307.26V-6.8Q307.26 -8.3 306.63 -9.11Q305.99 -9.91 304.74 -9.91Q303.98 -9.91 303.34 -9.51Q302.7 -9.1 302.32 -8.36Q301.95 -7.62 301.95 -6.59Z  M327.51 -5.84Q327.51 -4.08 326.87 -2.71Q326.23 -1.34 325.08 -0.56Q323.94 0.22 322.36 0.22Q321.18 0.22 320.21 -0.35Q319.24 -0.92 318.6 -1.98V4.25H316.38V-11.67H318.44V-9.53Q319.08 -10.66 320.1 -11.27Q321.13 -11.89 322.36 -11.89Q323.92 -11.89 325.08 -11.11Q326.23 -10.33 326.87 -8.96Q327.51 -7.59 327.51 -5.84ZM325.21 -5.84Q325.21 -7.79 324.27 -8.85Q323.34 -9.91 321.91 -9.91Q320.99 -9.91 320.24 -9.44Q319.49 -8.96 319.04 -8.06Q318.6 -7.16 318.6 -5.84Q318.6 -4.56 319.04 -3.64Q319.47 -2.72 320.23 -2.24Q320.98 -1.75 321.91 -1.75Q323.34 -1.75 324.27 -2.81Q325.21 -3.87 325.21 -5.84Z M336.71 -4.8V-11.67H338.94V0H336.87V-1.84Q336.42 -0.94 335.46 -0.36Q334.49 0.22 333.29 0.22Q332.13 0.22 331.22 -0.25Q330.31 -0.71 329.81 -1.69Q329.31 -2.66 329.31 -4.15V-11.67H331.54V-4.6Q331.54 -3.08 332.22 -2.41Q332.91 -1.74 333.99 -1.74Q334.75 -1.74 335.37 -2.13Q335.98 -2.51 336.35 -3.2Q336.71 -3.89 336.71 -4.8Z M343.9 -5.97V0H341.68V-11.67H343.74V-9.2Q344.37 -10.4 345.59 -11.11Q346.82 -11.82 348.24 -11.82V-9.5Q346.98 -9.56 346 -9.21Q345.02 -8.86 344.46 -8.06Q343.9 -7.26 343.9 -5.97Z M360.8 -5.84Q360.8 -4.08 360.16 -2.71Q359.52 -1.34 358.37 -0.56Q357.22 0.22 355.65 0.22Q354.47 0.22 353.5 -0.35Q352.52 -0.92 351.89 -1.98V4.25H349.66V-11.67H351.73V-9.53Q352.36 -10.66 353.39 -11.27Q354.41 -11.89 355.65 -11.89Q357.21 -11.89 358.37 -11.11Q359.52 -10.33 360.16 -8.96Q360.8 -7.59 360.8 -5.84ZM358.49 -5.84Q358.49 -7.79 357.56 -8.85Q356.63 -9.91 355.2 -9.91Q354.28 -9.91 353.52 -9.44Q352.77 -8.96 352.33 -8.06Q351.89 -7.16 351.89 -5.84Q351.89 -4.56 352.32 -3.64Q352.76 -2.72 353.51 -2.24Q354.27 -1.75 355.2 -1.75Q356.63 -1.75 357.56 -2.81Q358.49 -3.87 358.49 -5.84Z M367.6 0.22Q366.36 0.22 365.32 -0.23Q364.28 -0.68 363.51 -1.51Q362.74 -2.33 362.31 -3.44Q361.88 -4.54 361.88 -5.84Q361.88 -7.14 362.31 -8.24Q362.74 -9.34 363.51 -10.16Q364.28 -10.98 365.32 -11.43Q366.36 -11.88 367.6 -11.88Q368.85 -11.88 369.89 -11.43Q370.93 -10.98 371.7 -10.16Q372.47 -9.34 372.9 -8.24Q373.33 -7.14 373.33 -5.84Q373.33 -4.54 372.9 -3.44Q372.47 -2.33 371.7 -1.51Q370.93 -0.68 369.89 -0.23Q368.85 0.22 367.6 0.22ZM367.6 -1.74Q368.57 -1.74 369.34 -2.24Q370.12 -2.73 370.57 -3.65Q371.03 -4.57 371.03 -5.84Q371.03 -7.11 370.57 -8.02Q370.12 -8.93 369.34 -9.41Q368.57 -9.9 367.6 -9.9Q366.65 -9.9 365.87 -9.41Q365.09 -8.93 364.64 -8.02Q364.18 -7.11 364.18 -5.84Q364.18 -4.57 364.64 -3.65Q365.09 -2.73 365.87 -2.24Q366.65 -1.74 367.6 -1.74Z M384.49 -3.48Q384.49 -1.77 383.21 -0.77Q381.94 0.22 379.61 0.22Q377.31 0.22 375.98 -0.86Q374.65 -1.93 374.49 -3.8H376.62Q376.67 -2.71 377.5 -2.08Q378.32 -1.45 379.65 -1.45Q380.82 -1.45 381.53 -1.87Q382.24 -2.29 382.24 -3.11Q382.24 -3.83 381.77 -4.2Q381.3 -4.57 380.2 -4.78L378.32 -5.13Q376.71 -5.44 375.83 -6.27Q374.95 -7.09 374.95 -8.41Q374.95 -9.43 375.51 -10.21Q376.07 -11 377.08 -11.44Q378.09 -11.89 379.44 -11.89Q380.84 -11.89 381.9 -11.42Q382.96 -10.94 383.59 -10.07Q384.22 -9.19 384.31 -7.98H382.18Q382.08 -9.03 381.35 -9.62Q380.62 -10.22 379.45 -10.22Q378.4 -10.22 377.75 -9.79Q377.1 -9.36 377.1 -8.6Q377.1 -7.9 377.58 -7.54Q378.05 -7.17 379.11 -6.96L381.09 -6.59Q382.82 -6.27 383.65 -5.5Q384.49 -4.73 384.49 -3.48Z M391.38 0.22Q389.7 0.22 388.43 -0.54Q387.16 -1.31 386.46 -2.69Q385.75 -4.08 385.75 -5.91Q385.75 -7.63 386.47 -8.98Q387.19 -10.33 388.45 -11.11Q389.71 -11.89 391.31 -11.89Q392.63 -11.89 393.68 -11.39Q394.73 -10.9 395.46 -10.01Q396.19 -9.11 396.53 -7.91Q396.86 -6.7 396.71 -5.29H387.04V-6.75H394.35Q394.28 -8.37 393.45 -9.29Q392.63 -10.22 391.27 -10.22Q390.27 -10.22 389.54 -9.7Q388.81 -9.18 388.4 -8.21Q388 -7.25 388 -5.91Q388 -4.54 388.39 -3.55Q388.79 -2.57 389.53 -2.05Q390.28 -1.53 391.33 -1.53Q392.58 -1.53 393.41 -2.17Q394.23 -2.8 394.5 -3.95H396.71Q396.28 -2 394.86 -0.89Q393.45 0.22 391.38 0.22Z M401.42 -1.59Q401.42 -0.85 400.94 -0.37Q400.47 0.11 399.73 0.11Q398.99 0.11 398.51 -0.37Q398.03 -0.85 398.03 -1.59Q398.03 -2.36 398.51 -2.84Q398.99 -3.32 399.73 -3.32Q400.47 -3.32 400.94 -2.84Q401.42 -2.36 401.42 -1.59Z"/><g transform="translate(72.0 579.0) scale(0.1328)"><path fill="#0E1726" d="M120.07 41.77 A99.12 99.12 0 0 0 120.07 240 Z"/><path fill="#F5A524" d="M135.93 16 A99.12 99.12 0 0 1 135.93 214.23 Z"/></g><path fill="#0E1726" transform="translate(116.2 604.5)" d="M16.32 -5.45Q16.32 -2.79 14.37 -1.23Q12.43 0.32 8.79 0.32Q5.18 0.32 3.16 -1.32Q1.15 -2.95 0.9 -5.79H5.11Q5.15 -4.48 6.18 -3.71Q7.22 -2.94 8.86 -2.94Q10.15 -2.94 11.01 -3.36Q11.87 -3.78 11.87 -4.7Q11.87 -5.49 11.33 -5.89Q10.78 -6.3 9.56 -6.53L6.49 -7.09Q4.21 -7.52 2.91 -8.75Q1.6 -9.99 1.6 -11.98Q1.6 -13.55 2.45 -14.76Q3.31 -15.97 4.86 -16.65Q6.42 -17.33 8.52 -17.33Q10.67 -17.33 12.3 -16.61Q13.93 -15.9 14.91 -14.56Q15.89 -13.22 16.03 -11.38H11.82Q11.7 -12.64 10.82 -13.35Q9.93 -14.07 8.54 -14.07Q7.32 -14.07 6.57 -13.63Q5.83 -13.2 5.83 -12.38Q5.83 -11.62 6.37 -11.25Q6.92 -10.88 8.06 -10.65L11.33 -10.05Q13.82 -9.59 15.07 -8.44Q16.32 -7.28 16.32 -5.45Z M26.07 0.32Q24.22 0.32 22.65 -0.35Q21.07 -1.02 19.91 -2.23Q18.75 -3.44 18.09 -5.04Q17.44 -6.65 17.44 -8.51Q17.44 -10.37 18.09 -11.97Q18.75 -13.57 19.91 -14.78Q21.07 -15.99 22.65 -16.65Q24.22 -17.32 26.07 -17.32Q27.93 -17.32 29.5 -16.65Q31.07 -15.99 32.23 -14.78Q33.4 -13.57 34.05 -11.97Q34.7 -10.37 34.7 -8.51Q34.7 -6.65 34.05 -5.04Q33.4 -3.44 32.23 -2.23Q31.07 -1.02 29.5 -0.35Q27.93 0.32 26.07 0.32ZM26.07 -3.6Q27.18 -3.6 28.11 -4.17Q29.03 -4.74 29.58 -5.84Q30.14 -6.94 30.14 -8.51Q30.14 -10.08 29.58 -11.17Q29.03 -12.26 28.11 -12.82Q27.18 -13.38 26.07 -13.38Q24.98 -13.38 24.05 -12.82Q23.11 -12.26 22.56 -11.17Q22.01 -10.08 22.01 -8.51Q22.01 -6.94 22.56 -5.84Q23.11 -4.74 24.05 -4.17Q24.98 -3.6 26.07 -3.6Z M41.2 0H36.75V-22.86H41.2Z M51.76 0.3Q49.21 0.3 47.3 -0.81Q45.38 -1.92 44.32 -3.92Q43.26 -5.93 43.26 -8.57Q43.26 -11.11 44.35 -13.08Q45.43 -15.05 47.34 -16.19Q49.25 -17.33 51.69 -17.33Q53.72 -17.33 55.35 -16.57Q56.97 -15.82 58.09 -14.46Q59.2 -13.1 59.68 -11.29Q60.16 -9.49 59.86 -7.41H45.87V-10.21H55.16Q55.1 -12.01 54.13 -13.04Q53.16 -14.07 51.6 -14.07Q50.36 -14.07 49.5 -13.44Q48.64 -12.8 48.18 -11.58Q47.72 -10.35 47.72 -8.56Q47.72 -6.81 48.17 -5.6Q48.63 -4.38 49.51 -3.75Q50.39 -3.13 51.66 -3.13Q53.12 -3.13 54.08 -3.82Q55.05 -4.51 55.42 -5.77H59.81Q59.09 -2.9 56.98 -1.3Q54.87 0.3 51.76 0.3Z M66.43 -9.25V0H62.03V-17.01H66.08V-14.59Q67.03 -15.84 68.33 -16.59Q69.64 -17.33 71.32 -17.33Q73.89 -17.33 75.48 -15.69Q77.07 -14.04 77.07 -10.97V0H72.68V-9.5Q72.68 -11.38 71.93 -12.39Q71.19 -13.39 69.68 -13.39Q68.8 -13.39 68.06 -12.93Q67.31 -12.47 66.87 -11.56Q66.43 -10.65 66.43 -9.25Z"/><path fill="#5B616B" transform="translate(996.0 604.5)" d="M16.25 1.15V3.01Q15.08 3.7 13.65 4.08Q12.21 4.47 10.61 4.47Q8.53 4.47 6.75 3.71Q4.96 2.96 3.62 1.62Q2.28 0.29 1.54 -1.49Q0.8 -3.27 0.8 -5.3Q0.8 -7.36 1.56 -9.14Q2.32 -10.91 3.69 -12.25Q5.05 -13.59 6.87 -14.34Q8.7 -15.09 10.83 -15.09Q12.89 -15.09 14.64 -14.43Q16.39 -13.76 17.68 -12.59Q18.96 -11.43 19.68 -9.89Q20.39 -8.34 20.39 -6.59Q20.39 -4.83 19.77 -3.52Q19.15 -2.21 18.09 -1.48Q17.03 -0.76 15.68 -0.76Q14.45 -0.76 13.75 -1.24Q13.05 -1.73 12.79 -2.5Q11.61 -0.76 9.46 -0.76Q8.35 -0.76 7.49 -1.3Q6.64 -1.83 6.17 -2.8Q5.7 -3.76 5.7 -5Q5.7 -6.42 6.24 -7.56Q6.79 -8.7 7.75 -9.36Q8.71 -10.02 9.97 -10.02Q11.01 -10.02 11.75 -9.56Q12.49 -9.09 12.89 -8.23L13.18 -9.71H15.19L14.34 -5.05Q14.3 -4.78 14.27 -4.51Q14.23 -4.24 14.23 -4.03Q14.23 -3.27 14.64 -2.87Q15.04 -2.47 15.78 -2.47Q17 -2.47 17.68 -3.53Q18.36 -4.59 18.36 -6.4Q18.36 -7.79 17.83 -9.04Q17.3 -10.3 16.3 -11.27Q15.3 -12.25 13.92 -12.81Q12.54 -13.38 10.83 -13.38Q9.1 -13.38 7.63 -12.76Q6.17 -12.14 5.09 -11.04Q4.01 -9.95 3.41 -8.48Q2.82 -7.01 2.82 -5.3Q2.82 -3.61 3.39 -2.15Q3.97 -0.69 5.03 0.41Q6.09 1.52 7.51 2.13Q8.93 2.75 10.61 2.75Q12.36 2.75 13.82 2.3Q15.27 1.85 16.25 1.15ZM7.82 -5.12Q7.82 -3.95 8.38 -3.21Q8.94 -2.47 9.88 -2.47Q10.6 -2.47 11.16 -2.89Q11.73 -3.31 12.05 -4.04Q12.37 -4.76 12.37 -5.65Q12.37 -6.91 11.84 -7.6Q11.31 -8.3 10.31 -8.3Q9.54 -8.3 8.98 -7.87Q8.43 -7.43 8.12 -6.71Q7.82 -6 7.82 -5.12Z M29.29 -2.16V-0.2Q28.8 0.03 28.33 0.13Q27.86 0.22 27.32 0.22Q26.24 0.22 25.42 -0.18Q24.6 -0.58 24.13 -1.41Q23.67 -2.25 23.67 -3.52V-9.76H21.11V-11.67H23.67V-15.11H25.89V-11.67H29.4V-9.76H25.89V-4.02Q25.89 -2.82 26.43 -2.33Q26.96 -1.84 27.86 -1.84Q28.25 -1.84 28.61 -1.92Q28.96 -1.99 29.29 -2.16Z M33.75 -6.59V0H31.52V-15.8H33.75V-9.8Q34.32 -10.74 35.21 -11.31Q36.11 -11.89 37.32 -11.89Q39.11 -11.89 40.2 -10.76Q41.29 -9.63 41.29 -7.54V0H39.06V-6.8Q39.06 -8.3 38.43 -9.11Q37.79 -9.91 36.54 -9.91Q35.77 -9.91 35.14 -9.51Q34.5 -9.1 34.12 -8.36Q33.75 -7.62 33.75 -6.59Z M49.13 0.22Q47.89 0.22 46.85 -0.23Q45.8 -0.68 45.04 -1.51Q44.27 -2.33 43.84 -3.44Q43.41 -4.54 43.41 -5.84Q43.41 -7.14 43.84 -8.24Q44.27 -9.34 45.04 -10.16Q45.8 -10.98 46.85 -11.43Q47.89 -11.88 49.13 -11.88Q50.37 -11.88 51.42 -11.43Q52.46 -10.98 53.23 -10.16Q54 -9.34 54.43 -8.24Q54.85 -7.14 54.85 -5.84Q54.85 -4.54 54.43 -3.44Q54 -2.33 53.23 -1.51Q52.46 -0.68 51.42 -0.23Q50.37 0.22 49.13 0.22ZM49.13 -1.74Q50.1 -1.74 50.87 -2.24Q51.65 -2.73 52.1 -3.65Q52.55 -4.57 52.55 -5.84Q52.55 -7.11 52.1 -8.02Q51.65 -8.93 50.87 -9.41Q50.1 -9.9 49.13 -9.9Q48.18 -9.9 47.4 -9.41Q46.62 -8.93 46.16 -8.02Q45.71 -7.11 45.71 -5.84Q45.71 -4.57 46.16 -3.65Q46.62 -2.73 47.4 -2.24Q48.18 -1.74 49.13 -1.74Z M59.33 0H57.11V-11.67H59.17V-9.72Q59.78 -10.74 60.71 -11.31Q61.63 -11.89 62.84 -11.89Q64.12 -11.89 65.05 -11.26Q65.98 -10.63 66.37 -9.47Q66.99 -10.58 67.98 -11.24Q68.97 -11.89 70.31 -11.89Q72.11 -11.89 73.18 -10.75Q74.25 -9.62 74.25 -7.54V0H72.04V-6.84Q72.04 -8.31 71.4 -9.11Q70.76 -9.91 69.54 -9.91Q68.79 -9.91 68.16 -9.51Q67.54 -9.11 67.17 -8.39Q66.8 -7.66 66.8 -6.68V0H64.57V-6.84Q64.57 -8.31 63.94 -9.11Q63.31 -9.91 62.08 -9.91Q61.32 -9.91 60.69 -9.51Q60.06 -9.11 59.7 -8.39Q59.33 -7.66 59.33 -6.68Z M86.03 0H76.42V-1.73L83.05 -9.74H76.54V-11.67H85.81V-9.87L79.19 -1.93H86.03Z M97.06 0H87.45V-1.73L94.07 -9.74H87.56V-11.67H96.83V-9.87L90.21 -1.93H97.06Z M108.5 -3.48Q108.5 -1.77 107.22 -0.77Q105.95 0.22 103.62 0.22Q101.32 0.22 99.99 -0.86Q98.66 -1.93 98.5 -3.8H100.63Q100.68 -2.71 101.51 -2.08Q102.33 -1.45 103.66 -1.45Q104.83 -1.45 105.54 -1.87Q106.25 -2.29 106.25 -3.11Q106.25 -3.83 105.78 -4.2Q105.31 -4.57 104.21 -4.78L102.33 -5.13Q100.72 -5.44 99.84 -6.27Q98.96 -7.09 98.96 -8.41Q98.96 -9.43 99.52 -10.21Q100.08 -11 101.09 -11.44Q102.1 -11.89 103.45 -11.89Q104.85 -11.89 105.91 -11.42Q106.97 -10.94 107.6 -10.07Q108.23 -9.19 108.32 -7.98H106.19Q106.09 -9.03 105.36 -9.62Q104.63 -10.22 103.46 -10.22Q102.41 -10.22 101.76 -9.79Q101.11 -9.36 101.11 -8.6Q101.11 -7.9 101.59 -7.54Q102.06 -7.17 103.12 -6.96L105.1 -6.59Q106.83 -6.27 107.66 -5.5Q108.5 -4.73 108.5 -3.48Z M120.16 -3.48Q120.16 -1.77 118.88 -0.77Q117.61 0.22 115.28 0.22Q112.98 0.22 111.65 -0.86Q110.32 -1.93 110.16 -3.8H112.29Q112.34 -2.71 113.17 -2.08Q113.99 -1.45 115.32 -1.45Q116.49 -1.45 117.2 -1.87Q117.91 -2.29 117.91 -3.11Q117.91 -3.83 117.44 -4.2Q116.97 -4.57 115.87 -4.78L113.99 -5.13Q112.38 -5.44 111.5 -6.27Q110.62 -7.09 110.62 -8.41Q110.62 -9.43 111.18 -10.21Q111.74 -11 112.75 -11.44Q113.76 -11.89 115.11 -11.89Q116.51 -11.89 117.57 -11.42Q118.63 -10.94 119.26 -10.07Q119.89 -9.19 119.98 -7.98H117.85Q117.75 -9.03 117.02 -9.62Q116.29 -10.22 115.12 -10.22Q114.07 -10.22 113.42 -9.79Q112.77 -9.36 112.77 -8.6Q112.77 -7.9 113.25 -7.54Q113.72 -7.17 114.78 -6.96L116.76 -6.59Q118.49 -6.27 119.32 -5.5Q120.16 -4.73 120.16 -3.48Z M132.04 4.25H121.04V2.34H132.04Z"/></svg>