<svg xmlns="http://www.w3.org/2000/svg" xmlns:xlink="http://www.w3.org/1999/xlink" viewBox="0 0 1200 675" width="1200" height="675" role="img" aria-label="Audit #12"><rect width="1200" height="675" fill="#F6F5F1"/><rect x="110" y="46" width="290" height="500" rx="40" fill="none" stroke="#D5D9DE" stroke-width="4"/><rect x="124" y="60" width="262" height="472" rx="28" fill="#E7E5DE"/><rect x="124" y="60" width="262" height="32" rx="8" fill="#D5D9DE"/><rect x="124" y="100" width="262" height="200" rx="8" fill="#D5D9DE"/><rect x="140" y="312" width="190" height="16" rx="8" fill="#D5D9DE"/><rect x="140" y="338" width="84" height="16" rx="8" fill="#D5D9DE"/><rect x="236" y="338" width="118" height="16" rx="8" fill="#D5D9DE"/><rect x="140" y="364" width="230" height="30" rx="8" fill="#D5D9DE"/><rect x="140" y="404" width="230" height="40" rx="8" fill="#0E1726"/><rect x="140" y="454" width="190" height="12" rx="6.0" fill="#D5D9DE"/><rect x="140" y="474" width="150" height="12" rx="6.0" fill="#D5D9DE"/><rect x="140" y="494" width="230" height="10" rx="5.0" fill="#D5D9DE"/><rect x="124" y="60" width="262" height="472" rx="28" fill="#000" fill-opacity="0.45"/><rect x="184" y="60" width="202" height="472" rx="18" fill="#F6F5F1"/><rect x="200" y="100" width="170" height="56" rx="8" fill="#D5D9DE"/><rect x="200" y="176" width="170" height="110" rx="8" fill="#D5D9DE"/><rect x="200" y="300" width="170" height="110" rx="8" fill="#D5D9DE"/><rect x="200" y="460" width="170" height="40" rx="8" fill="#0E1726"/><rect x="192" y="452" width="186" height="56" rx="12" fill="none" stroke="#F5A524" stroke-width="4"/><circle cx="378" cy="452" r="16" fill="#F5A524"/><path fill="#0E1726" transform="translate(374.4 459.0)" d="M5.73 0H2.94V-11.12H0.39V-13.52H5.73Z"/><path fill="#B45309" transform="translate(480.0 170.0)" d="M4.96 0H1.62V-15.8H11.83V-12.9H4.96V-8.92H10.76V-6.02H4.96Z M19.22 0H15.88V-15.8H22.07Q25.06 -15.8 26.71 -14.46Q28.37 -13.13 28.37 -10.68Q28.37 -9.08 27.43 -7.86Q26.49 -6.65 24.8 -6.09L28.86 0H24.87L21.31 -5.58H19.22ZM19.22 -13.03V-8.35H21.91Q23.43 -8.35 24.22 -8.93Q25.01 -9.51 25.01 -10.68Q25.01 -11.85 24.22 -12.44Q23.43 -13.03 21.91 -13.03Z M36.05 0H32.71V-15.8H36.05Z M48.05 0.33Q46.39 0.33 44.95 -0.3Q43.5 -0.92 42.42 -2.05Q41.34 -3.18 40.73 -4.68Q40.12 -6.18 40.12 -7.92Q40.12 -9.66 40.73 -11.15Q41.34 -12.63 42.42 -13.75Q43.5 -14.87 44.95 -15.5Q46.39 -16.13 48.05 -16.13Q50.14 -16.13 51.84 -15.27Q53.54 -14.41 54.64 -12.88Q55.75 -11.34 56.01 -9.31H52.48Q52.29 -10.44 51.67 -11.3Q51.05 -12.17 50.13 -12.65Q49.21 -13.14 48.09 -13.14Q47.07 -13.14 46.23 -12.76Q45.4 -12.38 44.8 -11.68Q44.2 -10.99 43.88 -10.03Q43.56 -9.07 43.56 -7.92Q43.56 -6.76 43.88 -5.79Q44.2 -4.83 44.8 -4.13Q45.4 -3.44 46.23 -3.05Q47.07 -2.66 48.09 -2.66Q49.22 -2.66 50.14 -3.15Q51.06 -3.64 51.67 -4.51Q52.28 -5.38 52.48 -6.51H56.01Q55.74 -4.47 54.63 -2.93Q53.53 -1.39 51.83 -0.53Q50.14 0.33 48.05 0.33Z M66.8 0H63.46V-12.78H58.47V-15.8H71.78V-12.78H66.8Z M78.88 0H75.54V-15.8H78.88Z M91.05 0.33Q89.33 0.33 87.86 -0.29Q86.39 -0.9 85.29 -2.02Q84.19 -3.13 83.57 -4.64Q82.96 -6.14 82.96 -7.92Q82.96 -9.7 83.57 -11.19Q84.19 -12.68 85.29 -13.79Q86.39 -14.9 87.86 -15.51Q89.33 -16.13 91.05 -16.13Q92.76 -16.13 94.24 -15.51Q95.71 -14.9 96.81 -13.79Q97.91 -12.68 98.53 -11.19Q99.14 -9.7 99.14 -7.92Q99.14 -6.14 98.53 -4.64Q97.91 -3.13 96.81 -2.02Q95.71 -0.9 94.24 -0.29Q92.76 0.33 91.05 0.33ZM91.05 -2.66Q92.12 -2.66 92.99 -3.07Q93.85 -3.47 94.46 -4.2Q95.06 -4.92 95.38 -5.88Q95.69 -6.84 95.69 -7.92Q95.69 -9 95.38 -9.95Q95.06 -10.9 94.46 -11.61Q93.85 -12.33 92.99 -12.73Q92.12 -13.14 91.05 -13.14Q89.97 -13.14 89.11 -12.73Q88.24 -12.33 87.64 -11.61Q87.03 -10.9 86.71 -9.95Q86.39 -9 86.39 -7.92Q86.39 -6.84 86.71 -5.88Q87.03 -4.92 87.64 -4.2Q88.24 -3.47 89.11 -3.07Q89.97 -2.66 91.05 -2.66Z M113.53 0 106.29 -11.02V0H103.22V-15.8H106.83L113.73 -5.31V-15.8H116.8V0Z  M140.16 0 137.22 -11.04 134.27 0H130.88L126.82 -15.8H130.1L132.65 -5.09L135.54 -15.8H138.95L141.77 -5.05L144.34 -15.8H147.61L143.54 0Z M157.95 0.33Q156.23 0.33 154.76 -0.29Q153.29 -0.9 152.19 -2.02Q151.09 -3.13 150.48 -4.64Q149.86 -6.14 149.86 -7.92Q149.86 -9.7 150.48 -11.19Q151.09 -12.68 152.19 -13.79Q153.29 -14.9 154.76 -15.51Q156.23 -16.13 157.95 -16.13Q159.66 -16.13 161.14 -15.51Q162.61 -14.9 163.71 -13.79Q164.81 -12.68 165.43 -11.19Q166.05 -9.7 166.05 -7.92Q166.05 -6.14 165.43 -4.64Q164.81 -3.13 163.71 -2.02Q162.61 -0.9 161.14 -0.29Q159.66 0.33 157.95 0.33ZM157.95 -2.66Q159.02 -2.66 159.89 -3.07Q160.75 -3.47 161.36 -4.2Q161.96 -4.92 162.28 -5.88Q162.6 -6.84 162.6 -7.92Q162.6 -9 162.28 -9.95Q161.96 -10.9 161.36 -11.61Q160.75 -12.33 159.89 -12.73Q159.02 -13.14 157.95 -13.14Q156.87 -13.14 156.01 -12.73Q155.14 -12.33 154.54 -11.61Q153.93 -10.9 153.61 -9.95Q153.29 -9 153.29 -7.92Q153.29 -6.84 153.61 -5.88Q153.93 -4.92 154.54 -4.2Q155.14 -3.47 156.01 -3.07Q156.87 -2.66 157.95 -2.66Z M173.46 0H170.12V-15.8H176.32Q179.3 -15.8 180.95 -14.46Q182.61 -13.13 182.61 -10.68Q182.61 -9.08 181.67 -7.86Q180.73 -6.65 179.04 -6.09L183.1 0H179.12L175.55 -5.58H173.46ZM173.46 -13.03V-8.35H176.15Q177.67 -8.35 178.46 -8.93Q179.25 -9.51 179.25 -10.68Q179.25 -11.85 178.46 -12.44Q177.67 -13.03 176.15 -13.03Z M193.76 0H190.42V-12.78H185.43V-15.8H198.75V-12.78H193.76Z M205.85 0H202.5V-15.8H205.85V-9.58H212.7V-15.8H216.04V0H212.7V-6.68H205.85Z  M234.48 0H231.14V-12.78H226.15V-15.8H239.47V-12.78H234.48Z M253.85 -2.9V0H243.22V-15.8H253.7V-12.9H246.57V-9.58H253.05V-6.68H246.57V-2.9Z M270.34 -4.91Q270.34 -3.4 269.57 -2.25Q268.8 -1.09 267.37 -0.44Q265.95 0.22 263.95 0.22Q261.97 0.22 260.51 -0.45Q259.06 -1.13 258.22 -2.36Q257.39 -3.59 257.25 -5.25H260.64Q260.71 -3.95 261.53 -3.18Q262.36 -2.4 263.88 -2.4Q264.74 -2.4 265.39 -2.64Q266.05 -2.87 266.42 -3.34Q266.79 -3.8 266.79 -4.43Q266.79 -5.17 266.24 -5.62Q265.69 -6.07 264.67 -6.27L262.08 -6.77Q261.18 -6.94 260.42 -7.28Q259.65 -7.63 259.07 -8.16Q258.49 -8.69 258.17 -9.44Q257.85 -10.19 257.85 -11.16Q257.85 -12.56 258.61 -13.66Q259.36 -14.75 260.69 -15.38Q262.02 -16 263.74 -16Q265.52 -16 266.91 -15.34Q268.3 -14.68 269.15 -13.48Q270 -12.29 270.1 -10.63H266.71Q266.66 -11.47 266.27 -12.09Q265.89 -12.71 265.25 -13.05Q264.62 -13.39 263.77 -13.39Q262.97 -13.39 262.4 -13.12Q261.84 -12.85 261.54 -12.39Q261.23 -11.94 261.23 -11.38Q261.23 -10.84 261.53 -10.49Q261.82 -10.14 262.3 -9.93Q262.79 -9.73 263.35 -9.61L266.07 -9.07Q268.15 -8.65 269.25 -7.65Q270.34 -6.65 270.34 -4.91Z M281.14 0H277.8V-12.78H272.81V-15.8H286.13V-12.78H281.14Z M293.23 0H289.89V-15.8H293.23Z M308.54 0 301.3 -11.02V0H298.22V-15.8H301.83L308.74 -5.31V-15.8H311.81V0Z M324.03 0.33Q322.32 0.33 320.84 -0.28Q319.36 -0.89 318.24 -1.99Q317.13 -3.09 316.51 -4.61Q315.89 -6.13 315.89 -7.96Q315.89 -9.71 316.49 -11.19Q317.09 -12.67 318.17 -13.79Q319.25 -14.91 320.71 -15.52Q322.17 -16.13 323.91 -16.13Q325.91 -16.13 327.5 -15.39Q329.1 -14.66 330.19 -13.35Q331.28 -12.05 331.8 -10.32H327.86Q327.62 -11.13 327.07 -11.76Q326.52 -12.4 325.71 -12.77Q324.89 -13.14 323.82 -13.14Q322.55 -13.14 321.52 -12.53Q320.5 -11.92 319.92 -10.75Q319.33 -9.58 319.33 -7.88Q319.33 -6.36 319.88 -5.14Q320.44 -3.93 321.52 -3.22Q322.61 -2.51 324.19 -2.51Q325.36 -2.51 326.23 -2.94Q327.09 -3.36 327.66 -4.12Q328.22 -4.88 328.44 -5.86H323.85V-8.51H332Q332.08 -6.58 331.56 -4.96Q331.03 -3.35 329.99 -2.16Q328.94 -0.97 327.43 -0.32Q325.92 0.33 324.03 0.33Z  M345.64 0H343.31L344.17 -4H342.36V-6.28H344.6L345.12 -8.63H343.24V-10.95H345.55L346.41 -14.87H348.74L347.89 -10.95H349.69L350.55 -14.87H352.86L352.01 -10.95H353.8V-8.63H351.57L351.05 -6.28H352.92V-4H350.63L349.76 0H347.45L348.31 -4H346.51ZM347.45 -8.63 346.93 -6.28H348.74L349.26 -8.63Z M363.4 0H360.34V-12.23H357.53V-14.87H363.4Z M378.19 -2.73V0H367.81V-1.74L372.34 -6.37Q373.2 -7.25 373.73 -7.9Q374.26 -8.55 374.52 -9.12Q374.77 -9.69 374.77 -10.33Q374.77 -10.95 374.52 -11.41Q374.26 -11.86 373.79 -12.11Q373.32 -12.36 372.67 -12.36Q371.96 -12.36 371.43 -12.08Q370.91 -11.8 370.63 -11.27Q370.34 -10.75 370.34 -10.02H367.37Q367.37 -11.51 368.07 -12.66Q368.77 -13.8 369.99 -14.44Q371.22 -15.09 372.82 -15.09Q374.29 -15.09 375.46 -14.52Q376.62 -13.94 377.29 -12.96Q377.97 -11.97 377.97 -10.7Q377.97 -9.82 377.69 -9.05Q377.42 -8.28 376.71 -7.37Q376.01 -6.47 374.7 -5.14L372.45 -2.73Z"/><path fill="#0E1726" transform="translate(480.0 250.0)" d="M20.4 0.78Q16.47 0.78 13.06 -0.7Q9.64 -2.18 7.08 -4.86Q4.52 -7.53 3.09 -11.07Q1.66 -14.61 1.66 -18.72Q1.66 -22.83 3.09 -26.34Q4.52 -29.86 7.08 -32.51Q9.64 -35.15 13.06 -36.63Q16.47 -38.12 20.4 -38.12Q25.32 -38.12 29.34 -36.09Q33.37 -34.07 35.98 -30.43Q38.58 -26.8 39.21 -22.01H30.85Q30.41 -24.68 28.95 -26.72Q27.48 -28.76 25.31 -29.91Q23.14 -31.05 20.48 -31.05Q18.06 -31.05 16.09 -30.15Q14.12 -29.26 12.71 -27.61Q11.29 -25.97 10.53 -23.71Q9.77 -21.45 9.77 -18.72Q9.77 -15.98 10.53 -13.7Q11.29 -11.42 12.71 -9.77Q14.12 -8.12 16.09 -7.2Q18.06 -6.29 20.48 -6.29Q23.15 -6.29 25.33 -7.45Q27.51 -8.61 28.95 -10.67Q30.39 -12.73 30.85 -15.38H39.21Q38.56 -10.56 35.95 -6.92Q33.34 -3.28 29.33 -1.25Q25.32 0.78 20.4 0.78Z M50.52 -15.12V0H43.34V-37.34H50.52V-24.11Q51.96 -26.04 53.86 -27.17Q55.76 -28.31 58.51 -28.31Q62.71 -28.31 65.31 -25.62Q67.91 -22.94 67.91 -17.92V0H60.73V-15.51Q60.73 -18.59 59.51 -20.23Q58.3 -21.87 55.83 -21.87Q54.4 -21.87 53.18 -21.12Q51.97 -20.37 51.25 -18.88Q50.52 -17.4 50.52 -15.12Z M85.42 0.49Q81.27 0.49 78.14 -1.32Q75 -3.13 73.27 -6.41Q71.54 -9.69 71.54 -14Q71.54 -18.15 73.32 -21.37Q75.1 -24.59 78.22 -26.45Q81.33 -28.31 85.32 -28.31Q88.63 -28.31 91.29 -27.07Q93.95 -25.83 95.76 -23.61Q97.58 -21.39 98.37 -18.44Q99.15 -15.5 98.65 -12.1H75.81V-16.68H90.98Q90.88 -19.61 89.3 -21.3Q87.72 -22.98 85.16 -22.98Q83.15 -22.98 81.74 -21.95Q80.34 -20.91 79.58 -18.91Q78.83 -16.9 78.83 -13.98Q78.83 -11.13 79.57 -9.14Q80.31 -7.15 81.75 -6.13Q83.19 -5.11 85.26 -5.11Q87.65 -5.11 89.23 -6.24Q90.8 -7.36 91.4 -9.43H98.57Q97.4 -4.73 93.95 -2.12Q90.51 0.49 85.42 0.49Z M113.86 0.53Q109.87 0.53 106.83 -1.3Q103.79 -3.13 102.07 -6.4Q100.35 -9.66 100.35 -13.9Q100.35 -18.06 102.11 -21.31Q103.87 -24.56 106.93 -26.44Q109.99 -28.31 113.86 -28.31Q117.49 -28.31 120.38 -26.76Q123.28 -25.22 125.11 -22.45Q126.95 -19.67 127.36 -15.92H119.76Q119.49 -18.68 117.91 -20.28Q116.33 -21.87 113.89 -21.87Q112.01 -21.87 110.64 -20.89Q109.28 -19.91 108.52 -18.15Q107.77 -16.38 107.77 -13.9Q107.77 -11.42 108.5 -9.6Q109.24 -7.78 110.62 -6.82Q112.01 -5.86 113.89 -5.86Q116.39 -5.86 117.93 -7.45Q119.47 -9.03 119.77 -11.87H127.36Q126.96 -8.04 125.17 -5.26Q123.37 -2.49 120.49 -0.98Q117.61 0.53 113.86 0.53Z M138.4 0H131.22V-37.34H138.4V-15.99L148.56 -27.79H156.88L145.41 -14.48L158.24 0H149.04L138.4 -12.88Z M171.34 0.52Q168.31 0.52 165.74 -0.57Q163.18 -1.67 161.27 -3.64Q159.37 -5.62 158.31 -8.24Q157.24 -10.86 157.24 -13.9Q157.24 -16.94 158.31 -19.56Q159.37 -22.17 161.27 -24.14Q163.18 -26.11 165.74 -27.2Q168.31 -28.3 171.34 -28.3Q174.37 -28.3 176.94 -27.2Q179.5 -26.11 181.4 -24.14Q183.3 -22.17 184.37 -19.56Q185.44 -16.94 185.44 -13.9Q185.44 -10.86 184.37 -8.24Q183.3 -5.62 181.4 -3.64Q179.5 -1.67 176.94 -0.57Q174.37 0.52 171.34 0.52ZM171.34 -5.88Q173.15 -5.88 174.66 -6.81Q176.17 -7.74 177.08 -9.54Q177.98 -11.33 177.98 -13.9Q177.98 -16.47 177.08 -18.25Q176.17 -20.03 174.66 -20.95Q173.15 -21.86 171.34 -21.86Q169.56 -21.86 168.03 -20.95Q166.5 -20.03 165.6 -18.25Q164.7 -16.47 164.7 -13.9Q164.7 -11.33 165.6 -9.54Q166.5 -7.74 168.03 -6.81Q169.56 -5.88 171.34 -5.88Z M206.19 -11.7V-27.79H213.37V0H206.76V-3.64Q205.65 -1.82 203.46 -0.65Q201.28 0.52 198.65 0.52Q195.89 0.52 193.7 -0.62Q191.51 -1.76 190.28 -4.12Q189.04 -6.48 189.04 -10.1V-27.79H196.23V-11.48Q196.23 -8.58 197.56 -7.23Q198.88 -5.88 201.08 -5.88Q202.39 -5.88 203.55 -6.56Q204.72 -7.25 205.46 -8.56Q206.19 -9.87 206.19 -11.7Z M236.35 -7.03V-0.75Q235.03 -0.04 233.71 0.24Q232.39 0.52 230.79 0.52Q227.95 0.52 225.85 -0.56Q223.75 -1.63 222.6 -3.77Q221.45 -5.91 221.45 -9.01V-21.56H215.85V-27.79H221.45V-35.97H228.63V-27.79H236.58V-21.56H228.63V-10.66Q228.63 -8.26 229.69 -7.21Q230.76 -6.15 232.71 -6.15Q233.73 -6.15 234.66 -6.37Q235.6 -6.6 236.35 -7.03Z  M278.07 -13.9Q278.07 -9.83 276.53 -6.56Q275 -3.28 272.24 -1.38Q269.48 0.52 265.73 0.52Q263.06 0.52 260.83 -0.67Q258.6 -1.85 256.97 -4.01V0H250.35V-37.34H257.54V-24.17Q259.1 -26.2 261.17 -27.25Q263.24 -28.31 265.73 -28.31Q269.48 -28.31 272.24 -26.43Q274.99 -24.55 276.53 -21.28Q278.07 -18.01 278.07 -13.9ZM270.61 -13.9Q270.61 -17.88 268.69 -19.88Q266.77 -21.87 264.09 -21.87Q262.35 -21.87 260.88 -21Q259.4 -20.12 258.49 -18.36Q257.59 -16.6 257.59 -13.97Q257.59 -11.38 258.47 -9.58Q259.35 -7.78 260.84 -6.85Q262.34 -5.92 264.09 -5.92Q266.77 -5.92 268.69 -7.95Q270.61 -9.99 270.61 -13.9Z M298.8 -11.7V-27.79H305.99V0H299.37V-3.64Q298.26 -1.82 296.08 -0.65Q293.89 0.52 291.26 0.52Q288.5 0.52 286.31 -0.62Q284.12 -1.76 282.89 -4.12Q281.66 -6.48 281.66 -10.1V-27.79H288.84V-11.48Q288.84 -8.58 290.17 -7.23Q291.5 -5.88 293.69 -5.88Q295 -5.88 296.17 -6.56Q297.33 -7.25 298.07 -8.56Q298.8 -9.87 298.8 -11.7Z M328.96 -7.03V-0.75Q327.64 -0.04 326.32 0.24Q325 0.52 323.4 0.52Q320.56 0.52 318.46 -0.56Q316.36 -1.63 315.21 -3.77Q314.06 -5.91 314.06 -9.01V-21.56H308.46V-27.79H314.06V-35.97H321.24V-27.79H329.2V-21.56H321.24V-10.66Q321.24 -8.26 322.3 -7.21Q323.37 -6.15 325.33 -6.15Q326.34 -6.15 327.28 -6.37Q328.21 -6.6 328.96 -7.03Z M350.96 -7.03V-0.75Q349.64 -0.04 348.32 0.24Q347 0.52 345.4 0.52Q342.56 0.52 340.46 -0.56Q338.36 -1.63 337.21 -3.77Q336.05 -5.91 336.05 -9.01V-21.56H330.45V-27.79H336.05V-35.97H343.24V-27.79H351.19V-21.56H343.24V-10.66Q343.24 -8.26 344.3 -7.21Q345.37 -6.15 347.32 -6.15Q348.34 -6.15 349.27 -6.37Q350.21 -6.6 350.96 -7.03Z M366.49 0.52Q363.46 0.52 360.9 -0.57Q358.33 -1.67 356.43 -3.64Q354.53 -5.62 353.46 -8.24Q352.39 -10.86 352.39 -13.9Q352.39 -16.94 353.46 -19.56Q354.53 -22.17 356.43 -24.14Q358.33 -26.11 360.9 -27.2Q363.46 -28.3 366.49 -28.3Q369.53 -28.3 372.09 -27.2Q374.66 -26.11 376.56 -24.14Q378.46 -22.17 379.53 -19.56Q380.59 -16.94 380.59 -13.9Q380.59 -10.86 379.53 -8.24Q378.46 -5.62 376.56 -3.64Q374.66 -1.67 372.09 -0.57Q369.53 0.52 366.49 0.52ZM366.49 -5.88Q368.31 -5.88 369.82 -6.81Q371.33 -7.74 372.23 -9.54Q373.14 -11.33 373.14 -13.9Q373.14 -16.47 372.23 -18.25Q371.33 -20.03 369.82 -20.95Q368.31 -21.86 366.49 -21.86Q364.72 -21.86 363.19 -20.95Q361.66 -20.03 360.76 -18.25Q359.85 -16.47 359.85 -13.9Q359.85 -11.33 360.76 -9.54Q361.66 -7.74 363.19 -6.81Q364.72 -5.88 366.49 -5.88Z M391.64 -15.12V0H384.46V-27.79H391.08V-23.83Q392.63 -25.88 394.76 -27.09Q396.88 -28.31 399.63 -28.31Q403.83 -28.31 406.43 -25.62Q409.03 -22.94 409.03 -17.92V0H401.85V-15.51Q401.85 -18.59 400.63 -20.23Q399.42 -21.87 396.95 -21.87Q395.52 -21.87 394.3 -21.12Q393.09 -20.37 392.37 -18.88Q391.64 -17.4 391.64 -15.12Z  M452.32 -13.9Q452.32 -9.83 450.79 -6.56Q449.25 -3.28 446.49 -1.38Q443.74 0.52 439.98 0.52Q437.31 0.52 435.08 -0.67Q432.85 -1.85 431.22 -4.01V0H424.6V-37.34H431.79V-24.17Q433.35 -26.2 435.42 -27.25Q437.49 -28.31 439.98 -28.31Q443.74 -28.31 446.49 -26.43Q449.24 -24.55 450.78 -21.28Q452.32 -18.01 452.32 -13.9ZM444.86 -13.9Q444.86 -17.88 442.94 -19.88Q441.02 -21.87 438.35 -21.87Q436.61 -21.87 435.13 -21Q433.65 -20.12 432.75 -18.36Q431.84 -16.6 431.84 -13.97Q431.84 -11.38 432.72 -9.58Q433.6 -7.78 435.1 -6.85Q436.59 -5.92 438.35 -5.92Q441.02 -5.92 442.94 -7.95Q444.86 -9.99 444.86 -13.9Z M468.19 0.49Q464.04 0.49 460.91 -1.32Q457.78 -3.13 456.05 -6.41Q454.31 -9.69 454.31 -14Q454.31 -18.15 456.09 -21.37Q457.87 -24.59 460.99 -26.45Q464.11 -28.31 468.09 -28.31Q471.4 -28.31 474.06 -27.07Q476.72 -25.83 478.53 -23.61Q480.35 -21.39 481.14 -18.44Q481.92 -15.5 481.42 -12.1H458.58V-16.68H473.76Q473.65 -19.61 472.07 -21.3Q470.5 -22.98 467.93 -22.98Q465.92 -22.98 464.51 -21.95Q463.11 -20.91 462.35 -18.91Q461.6 -16.9 461.6 -13.98Q461.6 -11.13 462.34 -9.14Q463.08 -7.15 464.52 -6.13Q465.96 -5.11 468.04 -5.11Q470.42 -5.11 472 -6.24Q473.58 -7.36 474.17 -9.43H481.34Q480.17 -4.73 476.73 -2.12Q473.28 0.49 468.19 0.49Z M492.76 0H485.5V-37.34H492.76Z M510.74 0.52Q507.71 0.52 505.14 -0.57Q502.58 -1.67 500.68 -3.64Q498.78 -5.62 497.71 -8.24Q496.64 -10.86 496.64 -13.9Q496.64 -16.94 497.71 -19.56Q498.78 -22.17 500.68 -24.14Q502.58 -26.11 505.14 -27.2Q507.71 -28.3 510.74 -28.3Q513.77 -28.3 516.34 -27.2Q518.9 -26.11 520.8 -24.14Q522.71 -22.17 523.77 -19.56Q524.84 -16.94 524.84 -13.9Q524.84 -10.86 523.77 -8.24Q522.71 -5.62 520.8 -3.64Q518.9 -1.67 516.34 -0.57Q513.77 0.52 510.74 0.52ZM510.74 -5.88Q512.56 -5.88 514.07 -6.81Q515.58 -7.74 516.48 -9.54Q517.38 -11.33 517.38 -13.9Q517.38 -16.47 516.48 -18.25Q515.58 -20.03 514.07 -20.95Q512.56 -21.86 510.74 -21.86Q508.97 -21.86 507.44 -20.95Q505.91 -20.03 505 -18.25Q504.1 -16.47 504.1 -13.9Q504.1 -11.33 505 -9.54Q505.91 -7.74 507.44 -6.81Q508.97 -5.88 510.74 -5.88Z M550.74 0 545.5 -18.03 540.26 0H533.06L525.15 -27.79H532.19L536.88 -10.2L541.97 -27.79H549.14L554.08 -10.19L558.76 -27.79H565.85L557.9 0Z"/><path fill="#0E1726" transform="translate(480.0 309.8)" d="M20.14 -11.7V-27.79H27.32V0H20.7V-3.64Q19.6 -1.82 17.41 -0.65Q15.22 0.52 12.59 0.52Q9.83 0.52 7.64 -0.62Q5.45 -1.76 4.22 -4.12Q2.99 -6.48 2.99 -10.1V-27.79H10.17V-11.48Q10.17 -8.58 11.5 -7.23Q12.83 -5.88 15.02 -5.88Q16.33 -5.88 17.5 -6.56Q18.66 -7.25 19.4 -8.56Q20.14 -9.87 20.14 -11.7Z M60.76 -13.9Q60.76 -9.79 59.23 -6.54Q57.69 -3.28 54.94 -1.38Q52.19 0.52 48.43 0.52Q45.96 0.52 43.89 -0.53Q41.82 -1.58 40.23 -3.57V10.04H33.04V-27.79H39.66V-23.73Q41.28 -25.95 43.52 -27.13Q45.76 -28.31 48.43 -28.31Q52.18 -28.31 54.93 -26.41Q57.69 -24.51 59.23 -21.24Q60.76 -17.97 60.76 -13.9ZM53.3 -13.9Q53.3 -17.8 51.38 -19.84Q49.46 -21.87 46.8 -21.87Q45.06 -21.87 43.56 -20.96Q42.06 -20.04 41.17 -18.28Q40.28 -16.52 40.28 -13.87Q40.28 -11.26 41.18 -9.48Q42.08 -7.7 43.56 -6.81Q45.05 -5.92 46.8 -5.92Q49.46 -5.92 51.38 -7.93Q53.3 -9.95 53.3 -13.9Z M88.02 -8.9Q88.02 -4.55 84.84 -2.02Q81.66 0.52 75.71 0.52Q69.82 0.52 66.53 -2.15Q63.23 -4.82 62.83 -9.46H69.71Q69.77 -7.31 71.46 -6.06Q73.15 -4.81 75.83 -4.81Q77.94 -4.81 79.35 -5.49Q80.75 -6.18 80.75 -7.67Q80.75 -8.97 79.86 -9.63Q78.96 -10.29 76.97 -10.66L71.96 -11.58Q68.24 -12.28 66.11 -14.29Q63.97 -16.31 63.97 -19.57Q63.97 -22.13 65.37 -24.11Q66.76 -26.08 69.3 -27.19Q71.84 -28.31 75.27 -28.31Q78.79 -28.31 81.45 -27.14Q84.12 -25.96 85.71 -23.78Q87.31 -21.59 87.55 -18.59H80.66Q80.47 -20.64 79.03 -21.81Q77.58 -22.98 75.31 -22.98Q73.31 -22.98 72.1 -22.27Q70.88 -21.56 70.88 -20.22Q70.88 -18.98 71.77 -18.38Q72.66 -17.78 74.52 -17.4L79.86 -16.41Q83.93 -15.67 85.97 -13.78Q88.02 -11.9 88.02 -8.9Z M104.25 0.49Q100.09 0.49 96.96 -1.32Q93.83 -3.13 92.1 -6.41Q90.37 -9.69 90.37 -14Q90.37 -18.15 92.14 -21.37Q93.92 -24.59 97.04 -26.45Q100.16 -28.31 104.14 -28.31Q107.45 -28.31 110.11 -27.07Q112.77 -25.83 114.59 -23.61Q116.4 -21.39 117.19 -18.44Q117.98 -15.5 117.48 -12.1H94.64V-16.68H109.81Q109.71 -19.61 108.13 -21.3Q106.55 -22.98 103.99 -22.98Q101.97 -22.98 100.56 -21.95Q99.16 -20.91 98.41 -18.91Q97.65 -16.9 97.65 -13.98Q97.65 -11.13 98.39 -9.14Q99.13 -7.15 100.57 -6.13Q102.01 -5.11 104.09 -5.11Q106.47 -5.11 108.05 -6.24Q109.63 -7.36 110.23 -9.43H117.4Q116.22 -4.73 112.78 -2.12Q109.34 0.49 104.25 0.49Z M128.81 0H121.55V-37.34H128.81Z M141.81 0H134.55V-37.34H141.81Z M170.96 -8.9Q170.96 -4.55 167.78 -2.02Q164.6 0.52 158.65 0.52Q152.76 0.52 149.47 -2.15Q146.17 -4.82 145.77 -9.46H152.65Q152.71 -7.31 154.4 -6.06Q156.09 -4.81 158.77 -4.81Q160.88 -4.81 162.29 -5.49Q163.69 -6.18 163.69 -7.67Q163.69 -8.97 162.8 -9.63Q161.9 -10.29 159.91 -10.66L154.9 -11.58Q151.18 -12.28 149.05 -14.29Q146.91 -16.31 146.91 -19.57Q146.91 -22.13 148.31 -24.11Q149.7 -26.08 152.24 -27.19Q154.78 -28.31 158.21 -28.31Q161.73 -28.31 164.39 -27.14Q167.06 -25.96 168.65 -23.78Q170.25 -21.59 170.49 -18.59H163.6Q163.41 -20.64 161.97 -21.81Q160.52 -22.98 158.25 -22.98Q156.25 -22.98 155.04 -22.27Q153.82 -21.56 153.82 -20.22Q153.82 -18.98 154.71 -18.38Q155.6 -17.78 157.46 -17.4L162.8 -16.41Q166.87 -15.67 168.91 -13.78Q170.96 -11.9 170.96 -8.9Z M189.64 -4.48Q189.64 -2.41 188.2 -1.07Q186.76 0.26 184.58 0.26Q182.4 0.26 180.94 -1.07Q179.49 -2.41 179.49 -4.48Q179.49 -6.56 180.92 -7.91Q182.36 -9.26 184.58 -9.26Q186.8 -9.26 188.22 -7.91Q189.64 -6.56 189.64 -4.48ZM179.6 -26.88H172.85Q172.98 -30.14 174.68 -32.6Q176.37 -35.07 179.23 -36.46Q182.09 -37.86 185.65 -37.86Q189.28 -37.86 192.05 -36.59Q194.82 -35.33 196.36 -33.1Q197.9 -30.88 197.9 -27.97Q197.9 -25.78 196.67 -23.87Q195.45 -21.96 193.25 -20.17L189.66 -17.31Q188.47 -16.31 187.86 -15.44Q187.25 -14.57 187.15 -13.61Q187.05 -12.65 187.27 -11.26H182.62Q181.89 -13.22 181.64 -14.73Q181.39 -16.25 181.91 -17.59Q182.42 -18.92 183.92 -20.2L187.39 -23.16Q188.61 -24.23 189.27 -25.15Q189.93 -26.08 189.93 -27.41Q189.93 -29.23 188.6 -30.34Q187.27 -31.46 184.9 -31.46Q182.63 -31.46 181.21 -30.2Q179.79 -28.93 179.6 -26.88Z  M219.89 0H211.98V-37.34H219.89Z M232.38 -23.54H226.77L226.32 -37.34H232.84Z M236.85 -13.9Q236.85 -18.01 238.38 -21.28Q239.92 -24.55 242.7 -26.43Q245.47 -28.31 249.19 -28.31Q251.66 -28.31 253.75 -27.25Q255.85 -26.19 257.38 -24.18V-37.34H264.57V0H257.95V-4.01Q256.33 -1.85 254.1 -0.67Q251.87 0.52 249.19 0.52Q245.47 0.52 242.7 -1.38Q239.92 -3.28 238.38 -6.56Q236.85 -9.83 236.85 -13.9ZM244.31 -13.9Q244.31 -9.99 246.22 -7.95Q248.14 -5.92 250.81 -5.92Q252.63 -5.92 254.11 -6.85Q255.58 -7.78 256.46 -9.58Q257.33 -11.38 257.33 -13.97Q257.33 -16.6 256.42 -18.36Q255.52 -20.12 254.04 -21Q252.56 -21.87 250.81 -21.87Q248.14 -21.87 246.22 -19.88Q244.31 -17.88 244.31 -13.9Z  M297.61 -7.03V-0.75Q296.29 -0.04 294.97 0.24Q293.65 0.52 292.05 0.52Q289.2 0.52 287.1 -0.56Q285.01 -1.63 283.85 -3.77Q282.7 -5.91 282.7 -9.01V-21.56H277.1V-27.79H282.7V-35.97H289.88V-27.79H297.84V-21.56H289.88V-10.66Q289.88 -8.26 290.95 -7.21Q292.01 -6.15 293.97 -6.15Q294.99 -6.15 295.92 -6.37Q296.85 -6.6 297.61 -7.03Z M312.92 0.49Q308.77 0.49 305.64 -1.32Q302.5 -3.13 300.77 -6.41Q299.04 -9.69 299.04 -14Q299.04 -18.15 300.82 -21.37Q302.6 -24.59 305.72 -26.45Q308.83 -28.31 312.82 -28.31Q316.13 -28.31 318.79 -27.07Q321.45 -25.83 323.26 -23.61Q325.08 -21.39 325.87 -18.44Q326.65 -15.5 326.15 -12.1H303.31V-16.68H318.48Q318.38 -19.61 316.8 -21.3Q315.22 -22.98 312.66 -22.98Q310.65 -22.98 309.24 -21.95Q307.84 -20.91 307.08 -18.91Q306.33 -16.9 306.33 -13.98Q306.33 -11.13 307.07 -9.14Q307.81 -7.15 309.25 -6.13Q310.69 -5.11 312.76 -5.11Q315.15 -5.11 316.73 -6.24Q318.3 -7.36 318.9 -9.43H326.07Q324.9 -4.73 321.45 -2.12Q318.01 0.49 312.92 0.49Z M353.63 -8.9Q353.63 -4.55 350.45 -2.02Q347.27 0.52 341.33 0.52Q335.44 0.52 332.14 -2.15Q328.85 -4.82 328.44 -9.46H335.33Q335.39 -7.31 337.07 -6.06Q338.76 -4.81 341.45 -4.81Q343.56 -4.81 344.96 -5.49Q346.37 -6.18 346.37 -7.67Q346.37 -8.97 345.47 -9.63Q344.58 -10.29 342.59 -10.66L337.57 -11.58Q333.86 -12.28 331.72 -14.29Q329.59 -16.31 329.59 -19.57Q329.59 -22.13 330.98 -24.11Q332.38 -26.08 334.92 -27.19Q337.46 -28.31 340.89 -28.31Q344.4 -28.31 347.07 -27.14Q349.73 -25.96 351.33 -23.78Q352.93 -21.59 353.16 -18.59H346.28Q346.09 -20.64 344.64 -21.81Q343.2 -22.98 340.93 -22.98Q338.93 -22.98 337.71 -22.27Q336.5 -21.56 336.5 -20.22Q336.5 -18.98 337.38 -18.38Q338.27 -17.78 340.13 -17.4L345.48 -16.41Q349.54 -15.67 351.59 -13.78Q353.63 -11.9 353.63 -8.9Z M374.51 -7.03V-0.75Q373.2 -0.04 371.87 0.24Q370.55 0.52 368.96 0.52Q366.11 0.52 364.01 -0.56Q361.91 -1.63 360.76 -3.77Q359.61 -5.91 359.61 -9.01V-21.56H354.01V-27.79H359.61V-35.97H366.79V-27.79H374.75V-21.56H366.79V-10.66Q366.79 -8.26 367.86 -7.21Q368.92 -6.15 370.88 -6.15Q371.9 -6.15 372.83 -6.37Q373.76 -6.6 374.51 -7.03Z  M416.23 -13.9Q416.23 -9.79 414.7 -6.54Q413.16 -3.28 410.41 -1.38Q407.66 0.52 403.9 0.52Q401.43 0.52 399.36 -0.53Q397.29 -1.58 395.7 -3.57V10.04H388.52V-27.79H395.13V-23.73Q396.75 -25.95 398.99 -27.13Q401.23 -28.31 403.9 -28.31Q407.65 -28.31 410.41 -26.41Q413.16 -24.51 414.7 -21.24Q416.23 -17.97 416.23 -13.9ZM408.77 -13.9Q408.77 -17.8 406.85 -19.84Q404.93 -21.87 402.27 -21.87Q400.53 -21.87 399.03 -20.96Q397.54 -20.04 396.64 -18.28Q395.75 -16.52 395.75 -13.87Q395.75 -11.26 396.65 -9.48Q397.55 -7.7 399.03 -6.81Q400.52 -5.92 402.27 -5.92Q404.93 -5.92 406.85 -7.93Q408.77 -9.95 408.77 -13.9Z M427.26 0H420.08V-27.79H427.26ZM428.43 -34.24Q428.43 -32.38 427.1 -31.16Q425.76 -29.93 423.61 -29.93Q421.48 -29.93 420.13 -31.16Q418.79 -32.38 418.79 -34.24Q418.79 -36.14 420.13 -37.35Q421.48 -38.56 423.61 -38.56Q425.76 -38.56 427.1 -37.35Q428.43 -36.14 428.43 -34.24Z M440.16 -15.12V0H432.98V-27.79H439.59V-23.83Q441.15 -25.88 443.27 -27.09Q445.4 -28.31 448.15 -28.31Q452.35 -28.31 454.95 -25.62Q457.55 -22.94 457.55 -17.92V0H450.37V-15.51Q450.37 -18.59 449.15 -20.23Q447.93 -21.87 445.47 -21.87Q444.04 -21.87 442.82 -21.12Q441.6 -20.37 440.88 -18.88Q440.16 -17.4 440.16 -15.12Z M470.22 -15.12V0H463.03V-27.79H469.65V-23.83Q471.2 -25.88 473.33 -27.09Q475.45 -28.31 478.21 -28.31Q482.4 -28.31 485.01 -25.62Q487.61 -22.94 487.61 -17.92V0H480.42V-15.51Q480.42 -18.59 479.21 -20.23Q477.99 -21.87 475.52 -21.87Q474.09 -21.87 472.88 -21.12Q471.66 -20.37 470.94 -18.88Q470.22 -17.4 470.22 -15.12Z M500.27 0H493.09V-27.79H500.27ZM501.44 -34.24Q501.44 -32.38 500.11 -31.16Q498.77 -29.93 496.62 -29.93Q494.48 -29.93 493.14 -31.16Q491.8 -32.38 491.8 -34.24Q491.8 -36.14 493.14 -37.35Q494.48 -38.56 496.62 -38.56Q498.77 -38.56 500.11 -37.35Q501.44 -36.14 501.44 -34.24Z M513.17 -15.12V0H505.98V-27.79H512.6V-23.83Q514.15 -25.88 516.28 -27.09Q518.41 -28.31 521.16 -28.31Q525.36 -28.31 527.96 -25.62Q530.56 -22.94 530.56 -17.92V0H523.38V-15.51Q523.38 -18.59 522.16 -20.23Q520.94 -21.87 518.48 -21.87Q517.05 -21.87 515.83 -21.12Q514.61 -20.37 513.89 -18.88Q513.17 -17.4 513.17 -15.12Z M547.83 10.57Q544.11 10.57 541.27 9.29Q538.43 8.02 536.8 5.65Q535.18 3.29 535.02 0.13H541.98Q542.24 2.48 543.71 3.72Q545.18 4.96 547.78 4.96Q550.79 4.96 552.33 3.4Q553.86 1.84 553.86 -1.2V-5.27Q552.72 -3.29 550.69 -2.17Q548.66 -1.04 546.13 -1.04Q542.72 -1.04 540.02 -2.82Q537.31 -4.59 535.75 -7.69Q534.19 -10.78 534.19 -14.69Q534.19 -18.72 535.67 -21.78Q537.15 -24.84 539.78 -26.57Q542.42 -28.31 545.85 -28.31Q548.65 -28.31 550.78 -27.22Q552.9 -26.14 554.43 -23.97V-27.79H561.04V-1.29Q561.04 4.27 557.53 7.42Q554.01 10.57 547.83 10.57ZM541.45 -14.65Q541.45 -11.26 543.09 -9.28Q544.74 -7.29 547.52 -7.29Q549.41 -7.29 550.82 -8.21Q552.23 -9.13 553.02 -10.77Q553.81 -12.42 553.81 -14.6Q553.81 -17.99 552.09 -20.03Q550.37 -22.07 547.52 -22.07Q544.75 -22.07 543.1 -20.07Q541.45 -18.06 541.45 -14.65Z  M584.04 0H576.86V-27.79H584.04ZM585.21 -34.24Q585.21 -32.38 583.88 -31.16Q582.54 -29.93 580.39 -29.93Q578.26 -29.93 576.91 -31.16Q575.57 -32.38 575.57 -34.24Q575.57 -36.14 576.91 -37.35Q578.26 -38.56 580.39 -38.56Q582.54 -38.56 583.88 -37.35Q585.21 -36.14 585.21 -34.24Z M607.01 -7.03V-0.75Q605.69 -0.04 604.37 0.24Q603.05 0.52 601.45 0.52Q598.6 0.52 596.5 -0.56Q594.41 -1.63 593.25 -3.77Q592.1 -5.91 592.1 -9.01V-21.56H586.5V-27.79H592.1V-35.97H599.28V-27.79H607.24V-21.56H599.28V-10.66Q599.28 -8.26 600.35 -7.21Q601.41 -6.15 603.37 -6.15Q604.39 -6.15 605.32 -6.37Q606.25 -6.6 607.01 -7.03Z M620.16 -4.63Q620.16 -2.49 618.81 -1.11Q617.45 0.26 615.31 0.26Q613.16 0.26 611.79 -1.11Q610.41 -2.49 610.41 -4.63Q610.41 -6.83 611.79 -8.21Q613.16 -9.58 615.31 -9.58Q617.45 -9.58 618.81 -8.21Q620.16 -6.83 620.16 -4.63Z"/><path fill="#5B616B" transform="translate(480.0 371.8)" d="M4.89 0H2.02V-18.67H4.89V-10.86H14.34V-18.67H17.21V0H14.34V-8.38H4.89Z M32.12 -13.79 25.21 5.02H22.36L24.34 -0.17L18.89 -13.79H21.74L25.74 -3.29L29.45 -13.79Z M46.74 -6.9Q46.74 -4.82 45.99 -3.2Q45.24 -1.58 43.88 -0.66Q42.52 0.26 40.66 0.26Q39.26 0.26 38.12 -0.42Q36.97 -1.09 36.22 -2.33V5.02H33.59V-13.79H36.02V-11.26Q36.78 -12.6 37.99 -13.32Q39.2 -14.05 40.66 -14.05Q42.51 -14.05 43.87 -13.13Q45.24 -12.21 45.99 -10.59Q46.74 -8.97 46.74 -6.9ZM44.02 -6.9Q44.02 -9.2 42.92 -10.46Q41.82 -11.72 40.13 -11.72Q39.04 -11.72 38.15 -11.15Q37.26 -10.59 36.74 -9.52Q36.21 -8.46 36.21 -6.9Q36.21 -5.39 36.73 -4.3Q37.25 -3.21 38.14 -2.64Q39.03 -2.07 40.13 -2.07Q41.82 -2.07 42.92 -3.32Q44.02 -4.57 44.02 -6.9Z M54.79 0.26Q53.32 0.26 52.09 -0.27Q50.86 -0.8 49.95 -1.78Q49.04 -2.75 48.53 -4.06Q48.03 -5.37 48.03 -6.9Q48.03 -8.44 48.53 -9.74Q49.04 -11.04 49.95 -12Q50.86 -12.97 52.09 -13.5Q53.32 -14.04 54.79 -14.04Q56.26 -14.04 57.49 -13.5Q58.72 -12.97 59.63 -12Q60.54 -11.04 61.05 -9.74Q61.55 -8.44 61.55 -6.9Q61.55 -5.37 61.05 -4.06Q60.54 -2.75 59.63 -1.78Q58.72 -0.8 57.49 -0.27Q56.26 0.26 54.79 0.26ZM54.79 -2.06Q55.93 -2.06 56.85 -2.64Q57.76 -3.23 58.3 -4.31Q58.83 -5.4 58.83 -6.9Q58.83 -8.4 58.3 -9.48Q57.76 -10.55 56.85 -11.13Q55.93 -11.7 54.79 -11.7Q53.66 -11.7 52.74 -11.13Q51.82 -10.55 51.28 -9.48Q50.75 -8.4 50.75 -6.9Q50.75 -5.4 51.28 -4.31Q51.82 -3.23 52.74 -2.64Q53.66 -2.06 54.79 -2.06Z M71.33 -2.55V-0.24Q70.75 0.04 70.2 0.15Q69.64 0.26 69 0.26Q67.73 0.26 66.76 -0.21Q65.78 -0.68 65.23 -1.67Q64.68 -2.65 64.68 -4.16V-11.53H61.66V-13.79H64.68V-17.86H67.31V-13.79H71.46V-11.53H67.31V-4.75Q67.31 -3.34 67.94 -2.76Q68.58 -2.18 69.63 -2.18Q70.1 -2.18 70.52 -2.27Q70.94 -2.36 71.33 -2.55Z M76.2 -7.78V0H73.57V-18.67H76.2V-11.58Q76.88 -12.69 77.93 -13.37Q78.99 -14.05 80.42 -14.05Q82.54 -14.05 83.83 -12.72Q85.12 -11.38 85.12 -8.92V0H82.49V-8.03Q82.49 -9.81 81.73 -10.76Q80.98 -11.72 79.5 -11.72Q78.6 -11.72 77.85 -11.24Q77.09 -10.76 76.65 -9.88Q76.2 -9.01 76.2 -7.78Z M93.88 0.26Q91.89 0.26 90.4 -0.64Q88.9 -1.55 88.07 -3.18Q87.24 -4.82 87.24 -6.98Q87.24 -9.02 88.09 -10.61Q88.94 -12.2 90.42 -13.13Q91.91 -14.05 93.8 -14.05Q95.36 -14.05 96.6 -13.47Q97.85 -12.88 98.71 -11.82Q99.57 -10.77 99.97 -9.35Q100.37 -7.92 100.19 -6.25H88.76V-7.98H97.39Q97.31 -9.9 96.34 -10.98Q95.36 -12.07 93.75 -12.07Q92.57 -12.07 91.71 -11.46Q90.85 -10.84 90.37 -9.71Q89.89 -8.57 89.89 -6.98Q89.89 -5.36 90.35 -4.2Q90.82 -3.04 91.7 -2.42Q92.59 -1.81 93.83 -1.81Q95.31 -1.81 96.28 -2.56Q97.26 -3.31 97.57 -4.67H100.19Q99.67 -2.37 98 -1.05Q96.33 0.26 93.88 0.26Z M113.48 -4.11Q113.48 -2.09 111.98 -0.91Q110.47 0.26 107.72 0.26Q105 0.26 103.43 -1.01Q101.86 -2.28 101.67 -4.49H104.18Q104.25 -3.21 105.22 -2.46Q106.19 -1.72 107.76 -1.72Q109.15 -1.72 109.99 -2.21Q110.83 -2.7 110.83 -3.67Q110.83 -4.53 110.27 -4.97Q109.71 -5.4 108.41 -5.65L106.19 -6.07Q104.29 -6.43 103.25 -7.41Q102.21 -8.38 102.21 -9.94Q102.21 -11.14 102.87 -12.07Q103.54 -13 104.73 -13.52Q105.92 -14.05 107.52 -14.05Q109.18 -14.05 110.43 -13.49Q111.68 -12.93 112.43 -11.9Q113.17 -10.86 113.27 -9.43H110.76Q110.64 -10.67 109.78 -11.37Q108.92 -12.07 107.53 -12.07Q106.28 -12.07 105.52 -11.57Q104.75 -11.06 104.75 -10.17Q104.75 -9.34 105.32 -8.91Q105.88 -8.47 107.13 -8.22L109.47 -7.78Q111.51 -7.41 112.49 -6.5Q113.48 -5.59 113.48 -4.11Z M118.58 0H115.95V-13.79H118.58ZM119.16 -16.99Q119.16 -16.24 118.63 -15.74Q118.1 -15.25 117.25 -15.25Q116.41 -15.25 115.88 -15.74Q115.34 -16.24 115.34 -16.99Q115.34 -17.75 115.88 -18.23Q116.41 -18.71 117.25 -18.71Q118.1 -18.71 118.63 -18.23Q119.16 -17.75 119.16 -16.99Z M132.75 -4.11Q132.75 -2.09 131.24 -0.91Q129.74 0.26 126.99 0.26Q124.27 0.26 122.7 -1.01Q121.13 -2.28 120.93 -4.49H123.45Q123.51 -3.21 124.49 -2.46Q125.46 -1.72 127.03 -1.72Q128.42 -1.72 129.26 -2.21Q130.09 -2.7 130.09 -3.67Q130.09 -4.53 129.54 -4.97Q128.98 -5.4 127.68 -5.65L125.46 -6.07Q123.56 -6.43 122.52 -7.41Q121.48 -8.38 121.48 -9.94Q121.48 -11.14 122.14 -12.07Q122.8 -13 123.99 -13.52Q125.19 -14.05 126.78 -14.05Q128.44 -14.05 129.69 -13.49Q130.95 -12.93 131.69 -11.9Q132.44 -10.86 132.54 -9.43H130.03Q129.91 -10.67 129.05 -11.37Q128.18 -12.07 126.79 -12.07Q125.55 -12.07 124.78 -11.57Q124.02 -11.06 124.02 -10.17Q124.02 -9.34 124.58 -8.91Q125.14 -8.47 126.39 -8.22L128.73 -7.78Q130.77 -7.41 131.76 -6.5Q132.75 -5.59 132.75 -4.11Z M138.8 -1.11Q138.8 0.13 138.19 1.12Q137.57 2.12 136.49 2.71Q135.41 3.31 133.98 3.34V1.86Q135.25 1.81 136.05 1.19Q136.86 0.57 136.96 -0.39Q136.79 -0.34 136.66 -0.32Q136.53 -0.3 136.39 -0.3Q135.65 -0.3 135.16 -0.81Q134.67 -1.33 134.67 -2.05Q134.67 -2.9 135.22 -3.4Q135.78 -3.91 136.58 -3.91Q137.65 -3.91 138.22 -3.17Q138.8 -2.43 138.8 -1.11Z  M149.26 -7.78V0H146.63V-13.79H149.07V-11.49Q149.78 -12.64 150.92 -13.34Q152.05 -14.05 153.48 -14.05Q155.6 -14.05 156.89 -12.72Q158.18 -11.38 158.18 -8.92V0H155.55V-8.03Q155.55 -9.81 154.79 -10.76Q154.04 -11.72 152.56 -11.72Q151.66 -11.72 150.91 -11.24Q150.15 -10.76 149.71 -9.88Q149.26 -9.01 149.26 -7.78Z M167.06 0.26Q165.59 0.26 164.36 -0.27Q163.12 -0.8 162.22 -1.78Q161.31 -2.75 160.8 -4.06Q160.3 -5.37 160.3 -6.9Q160.3 -8.44 160.8 -9.74Q161.31 -11.04 162.22 -12Q163.12 -12.97 164.36 -13.5Q165.59 -14.04 167.06 -14.04Q168.52 -14.04 169.76 -13.5Q170.99 -12.97 171.9 -12Q172.81 -11.04 173.31 -9.74Q173.82 -8.44 173.82 -6.9Q173.82 -5.37 173.31 -4.06Q172.81 -2.75 171.9 -1.78Q170.99 -0.8 169.76 -0.27Q168.52 0.26 167.06 0.26ZM167.06 -2.06Q168.2 -2.06 169.11 -2.64Q170.03 -3.23 170.57 -4.31Q171.1 -5.4 171.1 -6.9Q171.1 -8.4 170.57 -9.48Q170.03 -10.55 169.11 -11.13Q168.2 -11.7 167.06 -11.7Q165.93 -11.7 165.01 -11.13Q164.09 -10.55 163.55 -9.48Q163.01 -8.4 163.01 -6.9Q163.01 -5.4 163.55 -4.31Q164.09 -3.23 165.01 -2.64Q165.93 -2.06 167.06 -2.06Z M183.6 -2.55V-0.24Q183.02 0.04 182.46 0.15Q181.91 0.26 181.26 0.26Q180 0.26 179.02 -0.21Q178.05 -0.68 177.5 -1.67Q176.95 -2.65 176.95 -4.16V-11.53H173.92V-13.79H176.95V-17.86H179.58V-13.79H183.73V-11.53H179.58V-4.75Q179.58 -3.34 180.21 -2.76Q180.85 -2.18 181.9 -2.18Q182.37 -2.18 182.79 -2.27Q183.21 -2.36 183.6 -2.55Z  M199.24 0V-2.13Q198.6 -1 197.47 -0.37Q196.34 0.26 194.82 0.26Q192.68 0.26 191.38 -0.88Q190.09 -2.01 190.09 -3.9Q190.09 -5.92 191.68 -6.97Q193.27 -8.01 196.34 -8.01Q196.96 -8.01 197.53 -7.98Q198.1 -7.95 198.93 -7.86V-8.87Q198.93 -10.33 198.17 -11.15Q197.41 -11.97 196.04 -11.97Q194.61 -11.97 193.77 -11.15Q192.92 -10.32 192.86 -8.88H190.47Q190.53 -10.45 191.25 -11.61Q191.96 -12.76 193.19 -13.41Q194.43 -14.05 196.04 -14.05Q198.59 -14.05 200.01 -12.67Q201.43 -11.3 201.43 -8.83V0ZM192.59 -3.97Q192.59 -2.91 193.34 -2.26Q194.09 -1.61 195.33 -1.61Q196.99 -1.61 197.96 -2.57Q198.93 -3.52 198.93 -5.1V-6.21Q198.17 -6.3 197.59 -6.34Q197.02 -6.37 196.5 -6.37Q194.54 -6.37 193.57 -5.78Q192.59 -5.19 192.59 -3.97Z  M212.21 -7.06V0H209.58V-13.79H212.02V-10.87Q212.76 -12.29 214.21 -13.13Q215.65 -13.97 217.33 -13.97V-11.23Q215.85 -11.3 214.69 -10.89Q213.54 -10.47 212.87 -9.53Q212.21 -8.58 212.21 -7.06Z M224.63 0.26Q222.65 0.26 221.15 -0.64Q219.65 -1.55 218.82 -3.18Q217.99 -4.82 217.99 -6.98Q217.99 -9.02 218.84 -10.61Q219.69 -12.2 221.18 -13.13Q222.66 -14.05 224.56 -14.05Q226.11 -14.05 227.36 -13.47Q228.6 -12.88 229.46 -11.82Q230.33 -10.77 230.72 -9.35Q231.12 -7.92 230.94 -6.25H219.51V-7.98H228.15Q228.07 -9.9 227.09 -10.98Q226.12 -12.07 224.5 -12.07Q223.33 -12.07 222.46 -11.46Q221.6 -10.84 221.12 -9.71Q220.64 -8.57 220.64 -6.98Q220.64 -5.36 221.11 -4.2Q221.57 -3.04 222.46 -2.42Q223.34 -1.81 224.58 -1.81Q226.06 -1.81 227.04 -2.56Q228.01 -3.31 228.33 -4.67H230.94Q230.43 -2.37 228.76 -1.05Q227.09 0.26 224.63 0.26Z M244.24 -4.11Q244.24 -2.09 242.73 -0.91Q241.23 0.26 238.48 0.26Q235.76 0.26 234.19 -1.01Q232.62 -2.28 232.42 -4.49H234.93Q235 -3.21 235.97 -2.46Q236.95 -1.72 238.52 -1.72Q239.91 -1.72 240.74 -2.21Q241.58 -2.7 241.58 -3.67Q241.58 -4.53 241.02 -4.97Q240.47 -5.4 239.17 -5.65L236.94 -6.07Q235.04 -6.43 234 -7.41Q232.97 -8.38 232.97 -9.94Q232.97 -11.14 233.63 -12.07Q234.29 -13 235.48 -13.52Q236.68 -14.05 238.27 -14.05Q239.93 -14.05 241.18 -13.49Q242.43 -12.93 243.18 -11.9Q243.92 -10.86 244.03 -9.43H241.51Q241.4 -10.67 240.53 -11.37Q239.67 -12.07 238.28 -12.07Q237.04 -12.07 236.27 -11.57Q235.51 -11.06 235.51 -10.17Q235.51 -9.34 236.07 -8.91Q236.63 -8.47 237.88 -8.22L240.22 -7.78Q242.26 -7.41 243.25 -6.5Q244.24 -5.59 244.24 -4.11Z M255.32 -5.67V-13.79H257.95V0H255.51V-2.17Q254.98 -1.11 253.84 -0.43Q252.7 0.26 251.28 0.26Q249.9 0.26 248.83 -0.29Q247.76 -0.84 247.17 -1.99Q246.58 -3.14 246.58 -4.91V-13.79H249.21V-5.44Q249.21 -3.64 250.02 -2.85Q250.83 -2.06 252.11 -2.06Q253 -2.06 253.73 -2.51Q254.46 -2.97 254.89 -3.78Q255.32 -4.6 255.32 -5.67Z M263.85 0H261.19V-18.67H263.85Z M274.86 -2.55V-0.24Q274.28 0.04 273.72 0.15Q273.17 0.26 272.52 0.26Q271.26 0.26 270.28 -0.21Q269.31 -0.68 268.76 -1.67Q268.21 -2.65 268.21 -4.16V-11.53H265.18V-13.79H268.21V-17.86H270.84V-13.79H274.99V-11.53H270.84V-4.75Q270.84 -3.34 271.47 -2.76Q272.11 -2.18 273.16 -2.18Q273.63 -2.18 274.05 -2.27Q274.47 -2.36 274.86 -2.55Z M280.94 -1.88Q280.94 -1.01 280.38 -0.44Q279.82 0.13 278.94 0.13Q278.06 0.13 277.5 -0.44Q276.93 -1.01 276.93 -1.88Q276.93 -2.78 277.5 -3.35Q278.06 -3.92 278.94 -3.92Q279.82 -3.92 280.38 -3.35Q280.94 -2.78 280.94 -1.88Z"/><g transform="translate(72.0 579.0) scale(0.1328)"><path fill="#0E1726" d="M120.07 41.77 A99.12 99.12 0 0 0 120.07 240 Z"/><path fill="#F5A524" d="M135.93 16 A99.12 99.12 0 0 1 135.93 214.23 Z"/></g><path fill="#0E1726" transform="translate(116.2 604.5)" d="M16.32 -5.45Q16.32 -2.79 14.37 -1.23Q12.43 0.32 8.79 0.32Q5.18 0.32 3.16 -1.32Q1.15 -2.95 0.9 -5.79H5.11Q5.15 -4.48 6.18 -3.71Q7.22 -2.94 8.86 -2.94Q10.15 -2.94 11.01 -3.36Q11.87 -3.78 11.87 -4.7Q11.87 -5.49 11.33 -5.89Q10.78 -6.3 9.56 -6.53L6.49 -7.09Q4.21 -7.52 2.91 -8.75Q1.6 -9.99 1.6 -11.98Q1.6 -13.55 2.45 -14.76Q3.31 -15.97 4.86 -16.65Q6.42 -17.33 8.52 -17.33Q10.67 -17.33 12.3 -16.61Q13.93 -15.9 14.91 -14.56Q15.89 -13.22 16.03 -11.38H11.82Q11.7 -12.64 10.82 -13.35Q9.93 -14.07 8.54 -14.07Q7.32 -14.07 6.57 -13.63Q5.83 -13.2 5.83 -12.38Q5.83 -11.62 6.37 -11.25Q6.92 -10.88 8.06 -10.65L11.33 -10.05Q13.82 -9.59 15.07 -8.44Q16.32 -7.28 16.32 -5.45Z M26.07 0.32Q24.22 0.32 22.65 -0.35Q21.07 -1.02 19.91 -2.23Q18.75 -3.44 18.09 -5.04Q17.44 -6.65 17.44 -8.51Q17.44 -10.37 18.09 -11.97Q18.75 -13.57 19.91 -14.78Q21.07 -15.99 22.65 -16.65Q24.22 -17.32 26.07 -17.32Q27.93 -17.32 29.5 -16.65Q31.07 -15.99 32.23 -14.78Q33.4 -13.57 34.05 -11.97Q34.7 -10.37 34.7 -8.51Q34.7 -6.65 34.05 -5.04Q33.4 -3.44 32.23 -2.23Q31.07 -1.02 29.5 -0.35Q27.93 0.32 26.07 0.32ZM26.07 -3.6Q27.18 -3.6 28.11 -4.17Q29.03 -4.74 29.58 -5.84Q30.14 -6.94 30.14 -8.51Q30.14 -10.08 29.58 -11.17Q29.03 -12.26 28.11 -12.82Q27.18 -13.38 26.07 -13.38Q24.98 -13.38 24.05 -12.82Q23.11 -12.26 22.56 -11.17Q22.01 -10.08 22.01 -8.51Q22.01 -6.94 22.56 -5.84Q23.11 -4.74 24.05 -4.17Q24.98 -3.6 26.07 -3.6Z M41.2 0H36.75V-22.86H41.2Z M51.76 0.3Q49.21 0.3 47.3 -0.81Q45.38 -1.92 44.32 -3.92Q43.26 -5.93 43.26 -8.57Q43.26 -11.11 44.35 -13.08Q45.43 -15.05 47.34 -16.19Q49.25 -17.33 51.69 -17.33Q53.72 -17.33 55.35 -16.57Q56.97 -15.82 58.09 -14.46Q59.2 -13.1 59.68 -11.29Q60.16 -9.49 59.86 -7.41H45.87V-10.21H55.16Q55.1 -12.01 54.13 -13.04Q53.16 -14.07 51.6 -14.07Q50.36 -14.07 49.5 -13.44Q48.64 -12.8 48.18 -11.58Q47.72 -10.35 47.72 -8.56Q47.72 -6.81 48.17 -5.6Q48.63 -4.38 49.51 -3.75Q50.39 -3.13 51.66 -3.13Q53.12 -3.13 54.08 -3.82Q55.05 -4.51 55.42 -5.77H59.81Q59.09 -2.9 56.98 -1.3Q54.87 0.3 51.76 0.3Z M66.43 -9.25V0H62.03V-17.01H66.08V-14.59Q67.03 -15.84 68.33 -16.59Q69.64 -17.33 71.32 -17.33Q73.89 -17.33 75.48 -15.69Q77.07 -14.04 77.07 -10.97V0H72.68V-9.5Q72.68 -11.38 71.93 -12.39Q71.19 -13.39 69.68 -13.39Q68.8 -13.39 68.06 -12.93Q67.31 -12.47 66.87 -11.56Q66.43 -10.65 66.43 -9.25Z"/><path fill="#5B616B" transform="translate(996.0 604.5)" d="M16.25 1.15V3.01Q15.08 3.7 13.65 4.08Q12.21 4.47 10.61 4.47Q8.53 4.47 6.75 3.71Q4.96 2.96 3.62 1.62Q2.28 0.29 1.54 -1.49Q0.8 -3.27 0.8 -5.3Q0.8 -7.36 1.56 -9.14Q2.32 -10.91 3.69 -12.25Q5.05 -13.59 6.87 -14.34Q8.7 -15.09 10.83 -15.09Q12.89 -15.09 14.64 -14.43Q16.39 -13.76 17.68 -12.59Q18.96 -11.43 19.68 -9.89Q20.39 -8.34 20.39 -6.59Q20.39 -4.83 19.77 -3.52Q19.15 -2.21 18.09 -1.48Q17.03 -0.76 15.68 -0.76Q14.45 -0.76 13.75 -1.24Q13.05 -1.73 12.79 -2.5Q11.61 -0.76 9.46 -0.76Q8.35 -0.76 7.49 -1.3Q6.64 -1.83 6.17 -2.8Q5.7 -3.76 5.7 -5Q5.7 -6.42 6.24 -7.56Q6.79 -8.7 7.75 -9.36Q8.71 -10.02 9.97 -10.02Q11.01 -10.02 11.75 -9.56Q12.49 -9.09 12.89 -8.23L13.18 -9.71H15.19L14.34 -5.05Q14.3 -4.78 14.27 -4.51Q14.23 -4.24 14.23 -4.03Q14.23 -3.27 14.64 -2.87Q15.04 -2.47 15.78 -2.47Q17 -2.47 17.68 -3.53Q18.36 -4.59 18.36 -6.4Q18.36 -7.79 17.83 -9.04Q17.3 -10.3 16.3 -11.27Q15.3 -12.25 13.92 -12.81Q12.54 -13.38 10.83 -13.38Q9.1 -13.38 7.63 -12.76Q6.17 -12.14 5.09 -11.04Q4.01 -9.95 3.41 -8.48Q2.82 -7.01 2.82 -5.3Q2.82 -3.61 3.39 -2.15Q3.97 -0.69 5.03 0.41Q6.09 1.52 7.51 2.13Q8.93 2.75 10.61 2.75Q12.36 2.75 13.82 2.3Q15.27 1.85 16.25 1.15ZM7.82 -5.12Q7.82 -3.95 8.38 -3.21Q8.94 -2.47 9.88 -2.47Q10.6 -2.47 11.16 -2.89Q11.73 -3.31 12.05 -4.04Q12.37 -4.76 12.37 -5.65Q12.37 -6.91 11.84 -7.6Q11.31 -8.3 10.31 -8.3Q9.54 -8.3 8.98 -7.87Q8.43 -7.43 8.12 -6.71Q7.82 -6 7.82 -5.12Z M29.29 -2.16V-0.2Q28.8 0.03 28.33 0.13Q27.86 0.22 27.32 0.22Q26.24 0.22 25.42 -0.18Q24.6 -0.58 24.13 -1.41Q23.67 -2.25 23.67 -3.52V-9.76H21.11V-11.67H23.67V-15.11H25.89V-11.67H29.4V-9.76H25.89V-4.02Q25.89 -2.82 26.43 -2.33Q26.96 -1.84 27.86 -1.84Q28.25 -1.84 28.61 -1.92Q28.96 -1.99 29.29 -2.16Z M33.75 -6.59V0H31.52V-15.8H33.75V-9.8Q34.32 -10.74 35.21 -11.31Q36.11 -11.89 37.32 -11.89Q39.11 -11.89 40.2 -10.76Q41.29 -9.63 41.29 -7.54V0H39.06V-6.8Q39.06 -8.3 38.43 -9.11Q37.79 -9.91 36.54 -9.91Q35.77 -9.91 35.14 -9.51Q34.5 -9.1 34.12 -8.36Q33.75 -7.62 33.75 -6.59Z M49.13 0.22Q47.89 0.22 46.85 -0.23Q45.8 -0.68 45.04 -1.51Q44.27 -2.33 43.84 -3.44Q43.41 -4.54 43.41 -5.84Q43.41 -7.14 43.84 -8.24Q44.27 -9.34 45.04 -10.16Q45.8 -10.98 46.85 -11.43Q47.89 -11.88 49.13 -11.88Q50.37 -11.88 51.42 -11.43Q52.46 -10.98 53.23 -10.16Q54 -9.34 54.43 -8.24Q54.85 -7.14 54.85 -5.84Q54.85 -4.54 54.43 -3.44Q54 -2.33 53.23 -1.51Q52.46 -0.68 51.42 -0.23Q50.37 0.22 49.13 0.22ZM49.13 -1.74Q50.1 -1.74 50.87 -2.24Q51.65 -2.73 52.1 -3.65Q52.55 -4.57 52.55 -5.84Q52.55 -7.11 52.1 -8.02Q51.65 -8.93 50.87 -9.41Q50.1 -9.9 49.13 -9.9Q48.18 -9.9 47.4 -9.41Q46.62 -8.93 46.16 -8.02Q45.71 -7.11 45.71 -5.84Q45.71 -4.57 46.16 -3.65Q46.62 -2.73 47.4 -2.24Q48.18 -1.74 49.13 -1.74Z M59.33 0H57.11V-11.67H59.17V-9.72Q59.78 -10.74 60.71 -11.31Q61.63 -11.89 62.84 -11.89Q64.12 -11.89 65.05 -11.26Q65.98 -10.63 66.37 -9.47Q66.99 -10.58 67.98 -11.24Q68.97 -11.89 70.31 -11.89Q72.11 -11.89 73.18 -10.75Q74.25 -9.62 74.25 -7.54V0H72.04V-6.84Q72.04 -8.31 71.4 -9.11Q70.76 -9.91 69.54 -9.91Q68.79 -9.91 68.16 -9.51Q67.54 -9.11 67.17 -8.39Q66.8 -7.66 66.8 -6.68V0H64.57V-6.84Q64.57 -8.31 63.94 -9.11Q63.31 -9.91 62.08 -9.91Q61.32 -9.91 60.69 -9.51Q60.06 -9.11 59.7 -8.39Q59.33 -7.66 59.33 -6.68Z M86.03 0H76.42V-1.73L83.05 -9.74H76.54V-11.67H85.81V-9.87L79.19 -1.93H86.03Z M97.06 0H87.45V-1.73L94.07 -9.74H87.56V-11.67H96.83V-9.87L90.21 -1.93H97.06Z M108.5 -3.48Q108.5 -1.77 107.22 -0.77Q105.95 0.22 103.62 0.22Q101.32 0.22 99.99 -0.86Q98.66 -1.93 98.5 -3.8H100.63Q100.68 -2.71 101.51 -2.08Q102.33 -1.45 103.66 -1.45Q104.83 -1.45 105.54 -1.87Q106.25 -2.29 106.25 -3.11Q106.25 -3.83 105.78 -4.2Q105.31 -4.57 104.21 -4.78L102.33 -5.13Q100.72 -5.44 99.84 -6.27Q98.96 -7.09 98.96 -8.41Q98.96 -9.43 99.52 -10.21Q100.08 -11 101.09 -11.44Q102.1 -11.89 103.45 -11.89Q104.85 -11.89 105.91 -11.42Q106.97 -10.94 107.6 -10.07Q108.23 -9.19 108.32 -7.98H106.19Q106.09 -9.03 105.36 -9.62Q104.63 -10.22 103.46 -10.22Q102.41 -10.22 101.76 -9.79Q101.11 -9.36 101.11 -8.6Q101.11 -7.9 101.59 -7.54Q102.06 -7.17 103.12 -6.96L105.1 -6.59Q106.83 -6.27 107.66 -5.5Q108.5 -4.73 108.5 -3.48Z M120.16 -3.48Q120.16 -1.77 118.88 -0.77Q117.61 0.22 115.28 0.22Q112.98 0.22 111.65 -0.86Q110.32 -1.93 110.16 -3.8H112.29Q112.34 -2.71 113.17 -2.08Q113.99 -1.45 115.32 -1.45Q116.49 -1.45 117.2 -1.87Q117.91 -2.29 117.91 -3.11Q117.91 -3.83 117.44 -4.2Q116.97 -4.57 115.87 -4.78L113.99 -5.13Q112.38 -5.44 111.5 -6.27Q110.62 -7.09 110.62 -8.41Q110.62 -9.43 111.18 -10.21Q111.74 -11 112.75 -11.44Q113.76 -11.89 115.11 -11.89Q116.51 -11.89 117.57 -11.42Q118.63 -10.94 119.26 -10.07Q119.89 -9.19 119.98 -7.98H117.85Q117.75 -9.03 117.02 -9.62Q116.29 -10.22 115.12 -10.22Q114.07 -10.22 113.42 -9.79Q112.77 -9.36 112.77 -8.6Q112.77 -7.9 113.25 -7.54Q113.72 -7.17 114.78 -6.96L116.76 -6.59Q118.49 -6.27 119.32 -5.5Q120.16 -4.73 120.16 -3.48Z M132.04 4.25H121.04V2.34H132.04Z"/></svg>