<svg xmlns="http://www.w3.org/2000/svg" xmlns:xlink="http://www.w3.org/1999/xlink" viewBox="0 0 1200 675" width="1200" height="675" role="img" aria-label="Audit #9"><rect width="1200" height="675" fill="#0E1726"/><rect x="110" y="46" width="290" height="500" rx="40" fill="none" stroke="#243049" stroke-width="4"/><rect x="124" y="60" width="262" height="472" rx="28" fill="#1B2740"/><rect x="124" y="60" width="262" height="32" rx="8" fill="#243049"/><rect x="124" y="100" width="262" height="200" rx="8" fill="#243049"/><rect x="140" y="312" width="190" height="16" rx="8" fill="#243049"/><rect x="140" y="338" width="84" height="16" rx="8" fill="#243049"/><rect x="236" y="338" width="118" height="16" rx="8" fill="#243049"/><rect x="140" y="364" width="230" height="30" rx="8" fill="#243049"/><rect x="140" y="404" width="230" height="40" rx="8" fill="#F6F5F1"/><rect x="140" y="454" width="190" height="12" rx="6.0" fill="#243049"/><rect x="140" y="474" width="150" height="12" rx="6.0" fill="#243049"/><rect x="140" y="494" width="230" height="10" rx="5.0" fill="#243049"/><rect x="124" y="60" width="262" height="472" rx="28" fill="#000" fill-opacity="0.45"/><rect x="148" y="190" width="214" height="210" rx="16" fill="#0E1726" stroke="#243049" stroke-width="2"/><rect x="140" y="182" width="230" height="226" rx="12" fill="none" stroke="#F5A524" stroke-width="4"/><circle cx="370" cy="182" r="16" fill="#F5A524"/><path fill="#0E1726" transform="translate(366.4 189.0)" d="M5.73 0H2.94V-11.12H0.39V-13.52H5.73Z"/><path fill="#F5A524" transform="translate(480.0 170.0)" d="M4.96 0H1.62V-15.8H11.83V-12.9H4.96V-8.92H10.76V-6.02H4.96Z M19.22 0H15.88V-15.8H22.07Q25.06 -15.8 26.71 -14.46Q28.37 -13.13 28.37 -10.68Q28.37 -9.08 27.43 -7.86Q26.49 -6.65 24.8 -6.09L28.86 0H24.87L21.31 -5.58H19.22ZM19.22 -13.03V-8.35H21.91Q23.43 -8.35 24.22 -8.93Q25.01 -9.51 25.01 -10.68Q25.01 -11.85 24.22 -12.44Q23.43 -13.03 21.91 -13.03Z M36.05 0H32.71V-15.8H36.05Z M48.05 0.33Q46.39 0.33 44.95 -0.3Q43.5 -0.92 42.42 -2.05Q41.34 -3.18 40.73 -4.68Q40.12 -6.18 40.12 -7.92Q40.12 -9.66 40.73 -11.15Q41.34 -12.63 42.42 -13.75Q43.5 -14.87 44.95 -15.5Q46.39 -16.13 48.05 -16.13Q50.14 -16.13 51.84 -15.27Q53.54 -14.41 54.64 -12.88Q55.75 -11.34 56.01 -9.31H52.48Q52.29 -10.44 51.67 -11.3Q51.05 -12.17 50.13 -12.65Q49.21 -13.14 48.09 -13.14Q47.07 -13.14 46.23 -12.76Q45.4 -12.38 44.8 -11.68Q44.2 -10.99 43.88 -10.03Q43.56 -9.07 43.56 -7.92Q43.56 -6.76 43.88 -5.79Q44.2 -4.83 44.8 -4.13Q45.4 -3.44 46.23 -3.05Q47.07 -2.66 48.09 -2.66Q49.22 -2.66 50.14 -3.15Q51.06 -3.64 51.67 -4.51Q52.28 -5.38 52.48 -6.51H56.01Q55.74 -4.47 54.63 -2.93Q53.53 -1.39 51.83 -0.53Q50.14 0.33 48.05 0.33Z M66.8 0H63.46V-12.78H58.47V-15.8H71.78V-12.78H66.8Z M78.88 0H75.54V-15.8H78.88Z M91.05 0.33Q89.33 0.33 87.86 -0.29Q86.39 -0.9 85.29 -2.02Q84.19 -3.13 83.57 -4.64Q82.96 -6.14 82.96 -7.92Q82.96 -9.7 83.57 -11.19Q84.19 -12.68 85.29 -13.79Q86.39 -14.9 87.86 -15.51Q89.33 -16.13 91.05 -16.13Q92.76 -16.13 94.24 -15.51Q95.71 -14.9 96.81 -13.79Q97.91 -12.68 98.53 -11.19Q99.14 -9.7 99.14 -7.92Q99.14 -6.14 98.53 -4.64Q97.91 -3.13 96.81 -2.02Q95.71 -0.9 94.24 -0.29Q92.76 0.33 91.05 0.33ZM91.05 -2.66Q92.12 -2.66 92.99 -3.07Q93.85 -3.47 94.46 -4.2Q95.06 -4.92 95.38 -5.88Q95.69 -6.84 95.69 -7.92Q95.69 -9 95.38 -9.95Q95.06 -10.9 94.46 -11.61Q93.85 -12.33 92.99 -12.73Q92.12 -13.14 91.05 -13.14Q89.97 -13.14 89.11 -12.73Q88.24 -12.33 87.64 -11.61Q87.03 -10.9 86.71 -9.95Q86.39 -9 86.39 -7.92Q86.39 -6.84 86.71 -5.88Q87.03 -4.92 87.64 -4.2Q88.24 -3.47 89.11 -3.07Q89.97 -2.66 91.05 -2.66Z M113.53 0 106.29 -11.02V0H103.22V-15.8H106.83L113.73 -5.31V-15.8H116.8V0Z  M140.16 0 137.22 -11.04 134.27 0H130.88L126.82 -15.8H130.1L132.65 -5.09L135.54 -15.8H138.95L141.77 -5.05L144.34 -15.8H147.61L143.54 0Z M157.95 0.33Q156.23 0.33 154.76 -0.29Q153.29 -0.9 152.19 -2.02Q151.09 -3.13 150.48 -4.64Q149.86 -6.14 149.86 -7.92Q149.86 -9.7 150.48 -11.19Q151.09 -12.68 152.19 -13.79Q153.29 -14.9 154.76 -15.51Q156.23 -16.13 157.95 -16.13Q159.66 -16.13 161.14 -15.51Q162.61 -14.9 163.71 -13.79Q164.81 -12.68 165.43 -11.19Q166.05 -9.7 166.05 -7.92Q166.05 -6.14 165.43 -4.64Q164.81 -3.13 163.71 -2.02Q162.61 -0.9 161.14 -0.29Q159.66 0.33 157.95 0.33ZM157.95 -2.66Q159.02 -2.66 159.89 -3.07Q160.75 -3.47 161.36 -4.2Q161.96 -4.92 162.28 -5.88Q162.6 -6.84 162.6 -7.92Q162.6 -9 162.28 -9.95Q161.96 -10.9 161.36 -11.61Q160.75 -12.33 159.89 -12.73Q159.02 -13.14 157.95 -13.14Q156.87 -13.14 156.01 -12.73Q155.14 -12.33 154.54 -11.61Q153.93 -10.9 153.61 -9.95Q153.29 -9 153.29 -7.92Q153.29 -6.84 153.61 -5.88Q153.93 -4.92 154.54 -4.2Q155.14 -3.47 156.01 -3.07Q156.87 -2.66 157.95 -2.66Z M173.46 0H170.12V-15.8H176.32Q179.3 -15.8 180.95 -14.46Q182.61 -13.13 182.61 -10.68Q182.61 -9.08 181.67 -7.86Q180.73 -6.65 179.04 -6.09L183.1 0H179.12L175.55 -5.58H173.46ZM173.46 -13.03V-8.35H176.15Q177.67 -8.35 178.46 -8.93Q179.25 -9.51 179.25 -10.68Q179.25 -11.85 178.46 -12.44Q177.67 -13.03 176.15 -13.03Z M193.76 0H190.42V-12.78H185.43V-15.8H198.75V-12.78H193.76Z M205.85 0H202.5V-15.8H205.85V-9.58H212.7V-15.8H216.04V0H212.7V-6.68H205.85Z  M234.48 0H231.14V-12.78H226.15V-15.8H239.47V-12.78H234.48Z M253.85 -2.9V0H243.22V-15.8H253.7V-12.9H246.57V-9.58H253.05V-6.68H246.57V-2.9Z M270.34 -4.91Q270.34 -3.4 269.57 -2.25Q268.8 -1.09 267.37 -0.44Q265.95 0.22 263.95 0.22Q261.97 0.22 260.51 -0.45Q259.06 -1.13 258.22 -2.36Q257.39 -3.59 257.25 -5.25H260.64Q260.71 -3.95 261.53 -3.18Q262.36 -2.4 263.88 -2.4Q264.74 -2.4 265.39 -2.64Q266.05 -2.87 266.42 -3.34Q266.79 -3.8 266.79 -4.43Q266.79 -5.17 266.24 -5.62Q265.69 -6.07 264.67 -6.27L262.08 -6.77Q261.18 -6.94 260.42 -7.28Q259.65 -7.63 259.07 -8.16Q258.49 -8.69 258.17 -9.44Q257.85 -10.19 257.85 -11.16Q257.85 -12.56 258.61 -13.66Q259.36 -14.75 260.69 -15.38Q262.02 -16 263.74 -16Q265.52 -16 266.91 -15.34Q268.3 -14.68 269.15 -13.48Q270 -12.29 270.1 -10.63H266.71Q266.66 -11.47 266.27 -12.09Q265.89 -12.71 265.25 -13.05Q264.62 -13.39 263.77 -13.39Q262.97 -13.39 262.4 -13.12Q261.84 -12.85 261.54 -12.39Q261.23 -11.94 261.23 -11.38Q261.23 -10.84 261.53 -10.49Q261.82 -10.14 262.3 -9.93Q262.79 -9.73 263.35 -9.61L266.07 -9.07Q268.15 -8.65 269.25 -7.65Q270.34 -6.65 270.34 -4.91Z M281.14 0H277.8V-12.78H272.81V-15.8H286.13V-12.78H281.14Z M293.23 0H289.89V-15.8H293.23Z M308.54 0 301.3 -11.02V0H298.22V-15.8H301.83L308.74 -5.31V-15.8H311.81V0Z M324.03 0.33Q322.32 0.33 320.84 -0.28Q319.36 -0.89 318.24 -1.99Q317.13 -3.09 316.51 -4.61Q315.89 -6.13 315.89 -7.96Q315.89 -9.71 316.49 -11.19Q317.09 -12.67 318.17 -13.79Q319.25 -14.91 320.71 -15.52Q322.17 -16.13 323.91 -16.13Q325.91 -16.13 327.5 -15.39Q329.1 -14.66 330.19 -13.35Q331.28 -12.05 331.8 -10.32H327.86Q327.62 -11.13 327.07 -11.76Q326.52 -12.4 325.71 -12.77Q324.89 -13.14 323.82 -13.14Q322.55 -13.14 321.52 -12.53Q320.5 -11.92 319.92 -10.75Q319.33 -9.58 319.33 -7.88Q319.33 -6.36 319.88 -5.14Q320.44 -3.93 321.52 -3.22Q322.61 -2.51 324.19 -2.51Q325.36 -2.51 326.23 -2.94Q327.09 -3.36 327.66 -4.12Q328.22 -4.88 328.44 -5.86H323.85V-8.51H332Q332.08 -6.58 331.56 -4.96Q331.03 -3.35 329.99 -2.16Q328.94 -0.97 327.43 -0.32Q325.92 0.33 324.03 0.33Z  M345.64 0H343.31L344.17 -4H342.36V-6.28H344.6L345.12 -8.63H343.24V-10.95H345.55L346.41 -14.87H348.74L347.89 -10.95H349.69L350.55 -14.87H352.86L352.01 -10.95H353.8V-8.63H351.57L351.05 -6.28H352.92V-4H350.63L349.76 0H347.45L348.31 -4H346.51ZM347.45 -8.63 346.93 -6.28H348.74L349.26 -8.63Z M363.46 -15.06Q365.15 -15.06 366.45 -14.38Q367.74 -13.7 368.47 -12.58Q369.2 -11.45 369.2 -10.12Q369.2 -9.22 369.01 -8.47Q368.81 -7.71 368.39 -6.98Q367.96 -6.26 367.25 -5.4L362.77 0H359.32L363.59 -5.22Q363.4 -5.16 363.22 -5.13Q363.04 -5.1 362.85 -5.1Q361.34 -5.1 360.18 -5.72Q359.01 -6.34 358.35 -7.43Q357.69 -8.52 357.69 -9.93Q357.69 -11.36 358.43 -12.52Q359.16 -13.69 360.46 -14.37Q361.76 -15.06 363.46 -15.06ZM363.43 -12.5Q362.74 -12.5 362.15 -12.22Q361.57 -11.93 361.22 -11.38Q360.87 -10.83 360.87 -10.03Q360.87 -9.2 361.22 -8.63Q361.57 -8.06 362.15 -7.78Q362.74 -7.49 363.43 -7.49Q364.47 -7.49 365.24 -8.1Q366.01 -8.71 366.01 -10.02Q366.01 -10.82 365.65 -11.38Q365.28 -11.93 364.7 -12.22Q364.12 -12.5 363.43 -12.5Z"/><path fill="#F6F5F1" transform="translate(480.0 250.0)" d="M11.73 0H3.83V-37.34H11.73Z M25.2 -15.12V0H18.02V-27.79H24.63V-23.83Q26.19 -25.88 28.31 -27.09Q30.44 -28.31 33.19 -28.31Q37.39 -28.31 39.99 -25.62Q42.59 -22.94 42.59 -17.92V0H35.41V-15.51Q35.41 -18.59 34.19 -20.23Q32.97 -21.87 30.51 -21.87Q29.08 -21.87 27.86 -21.12Q26.64 -20.37 25.92 -18.88Q25.2 -17.4 25.2 -15.12Z M71.48 -8.9Q71.48 -4.55 68.3 -2.02Q65.12 0.52 59.18 0.52Q53.29 0.52 49.99 -2.15Q46.7 -4.82 46.29 -9.46H53.17Q53.24 -7.31 54.92 -6.06Q56.61 -4.81 59.3 -4.81Q61.4 -4.81 62.81 -5.49Q64.22 -6.18 64.22 -7.67Q64.22 -8.97 63.32 -9.63Q62.43 -10.29 60.43 -10.66L55.42 -11.58Q51.71 -12.28 49.57 -14.29Q47.44 -16.31 47.44 -19.57Q47.44 -22.13 48.83 -24.11Q50.23 -26.08 52.77 -27.19Q55.31 -28.31 58.74 -28.31Q62.25 -28.31 64.92 -27.14Q67.58 -25.96 69.18 -23.78Q70.77 -21.59 71.01 -18.59H64.13Q63.94 -20.64 62.49 -21.81Q61.04 -22.98 58.77 -22.98Q56.78 -22.98 55.56 -22.27Q54.34 -21.56 54.34 -20.22Q54.34 -18.98 55.23 -18.38Q56.12 -17.78 57.98 -17.4L63.32 -16.41Q67.39 -15.67 69.44 -13.78Q71.48 -11.9 71.48 -8.9Z M92.36 -7.03V-0.75Q91.04 -0.04 89.72 0.24Q88.4 0.52 86.8 0.52Q83.96 0.52 81.86 -0.56Q79.76 -1.63 78.61 -3.77Q77.46 -5.91 77.46 -9.01V-21.56H71.86V-27.79H77.46V-35.97H84.64V-27.79H92.6V-21.56H84.64V-10.66Q84.64 -8.26 85.7 -7.21Q86.77 -6.15 88.73 -6.15Q89.74 -6.15 90.68 -6.37Q91.61 -6.6 92.36 -7.03Z M112.81 0V-3.44Q111.44 -1.49 109.36 -0.48Q107.28 0.52 104.41 0.52Q100.08 0.52 97.45 -1.83Q94.81 -4.18 94.81 -8.04Q94.81 -12.13 98.02 -14.25Q101.22 -16.38 107.28 -16.38Q108.46 -16.38 109.55 -16.31Q110.64 -16.24 111.89 -16.07V-17.73Q111.89 -20.08 110.63 -21.37Q109.38 -22.66 107.1 -22.66Q104.79 -22.66 103.43 -21.36Q102.07 -20.06 101.88 -17.74H95.39Q95.59 -20.96 97.11 -23.33Q98.64 -25.69 101.22 -27Q103.79 -28.31 107.13 -28.31Q112.59 -28.31 115.63 -25.44Q118.67 -22.58 118.67 -17.45V0ZM101.6 -8.25Q101.6 -6.54 102.78 -5.52Q103.97 -4.49 105.99 -4.49Q108.74 -4.49 110.31 -5.91Q111.89 -7.33 111.89 -9.73V-11.71Q110.65 -11.91 109.67 -11.98Q108.68 -12.05 107.73 -12.05Q104.7 -12.05 103.15 -11.11Q101.6 -10.17 101.6 -8.25Z M131.33 -15.12V0H124.15V-27.79H130.77V-23.83Q132.32 -25.88 134.44 -27.09Q136.57 -28.31 139.32 -28.31Q143.52 -28.31 146.12 -25.62Q148.72 -22.94 148.72 -17.92V0H141.54V-15.51Q141.54 -18.59 140.32 -20.23Q139.1 -21.87 136.64 -21.87Q135.21 -21.87 133.99 -21.12Q132.77 -20.37 132.05 -18.88Q131.33 -17.4 131.33 -15.12Z M171.25 -7.03V-0.75Q169.93 -0.04 168.61 0.24Q167.29 0.52 165.69 0.52Q162.84 0.52 160.74 -0.56Q158.65 -1.63 157.49 -3.77Q156.34 -5.91 156.34 -9.01V-21.56H150.74V-27.79H156.34V-35.97H163.52V-27.79H171.48V-21.56H163.52V-10.66Q163.52 -8.26 164.59 -7.21Q165.65 -6.15 167.61 -6.15Q168.63 -6.15 169.56 -6.37Q170.49 -6.6 171.25 -7.03Z  M212.96 -13.9Q212.96 -9.79 211.43 -6.54Q209.89 -3.28 207.14 -1.38Q204.39 0.52 200.63 0.52Q198.16 0.52 196.09 -0.53Q194.02 -1.58 192.43 -3.57V10.04H185.25V-27.79H191.87V-23.73Q193.48 -25.95 195.72 -27.13Q197.97 -28.31 200.63 -28.31Q204.38 -28.31 207.14 -26.41Q209.89 -24.51 211.43 -21.24Q212.96 -17.97 212.96 -13.9ZM205.51 -13.9Q205.51 -17.8 203.59 -19.84Q201.67 -21.87 199 -21.87Q197.26 -21.87 195.77 -20.96Q194.27 -20.04 193.38 -18.28Q192.49 -16.52 192.49 -13.87Q192.49 -11.26 193.38 -9.48Q194.28 -7.7 195.77 -6.81Q197.25 -5.92 199 -5.92Q201.67 -5.92 203.59 -7.93Q205.51 -9.95 205.51 -13.9Z M229.06 0.52Q226.03 0.52 223.46 -0.57Q220.9 -1.67 218.99 -3.64Q217.09 -5.62 216.03 -8.24Q214.96 -10.86 214.96 -13.9Q214.96 -16.94 216.03 -19.56Q217.09 -22.17 218.99 -24.14Q220.9 -26.11 223.46 -27.2Q226.03 -28.3 229.06 -28.3Q232.09 -28.3 234.66 -27.2Q237.22 -26.11 239.12 -24.14Q241.02 -22.17 242.09 -19.56Q243.16 -16.94 243.16 -13.9Q243.16 -10.86 242.09 -8.24Q241.02 -5.62 239.12 -3.64Q237.22 -1.67 234.66 -0.57Q232.09 0.52 229.06 0.52ZM229.06 -5.88Q230.87 -5.88 232.38 -6.81Q233.89 -7.74 234.8 -9.54Q235.7 -11.33 235.7 -13.9Q235.7 -16.47 234.8 -18.25Q233.89 -20.03 232.38 -20.95Q230.87 -21.86 229.06 -21.86Q227.28 -21.86 225.75 -20.95Q224.22 -20.03 223.32 -18.25Q222.42 -16.47 222.42 -13.9Q222.42 -11.33 223.32 -9.54Q224.22 -7.74 225.75 -6.81Q227.28 -5.88 229.06 -5.88Z M274.74 -13.9Q274.74 -9.79 273.21 -6.54Q271.67 -3.28 268.92 -1.38Q266.17 0.52 262.41 0.52Q259.94 0.52 257.87 -0.53Q255.8 -1.58 254.21 -3.57V10.04H247.02V-27.79H253.64V-23.73Q255.26 -25.95 257.5 -27.13Q259.74 -28.31 262.41 -28.31Q266.16 -28.31 268.91 -26.41Q271.67 -24.51 273.21 -21.24Q274.74 -17.97 274.74 -13.9ZM267.28 -13.9Q267.28 -17.8 265.36 -19.84Q263.44 -21.87 260.78 -21.87Q259.04 -21.87 257.54 -20.96Q256.04 -20.04 255.15 -18.28Q254.26 -16.52 254.26 -13.87Q254.26 -11.26 255.16 -9.48Q256.06 -7.7 257.54 -6.81Q259.03 -5.92 260.78 -5.92Q263.44 -5.92 265.36 -7.93Q267.28 -9.95 267.28 -13.9Z M293.59 -11.06H277.71V-17.52H293.59Z M314.35 -11.7V-27.79H321.53V0H314.92V-3.64Q313.81 -1.82 311.62 -0.65Q309.44 0.52 306.81 0.52Q304.05 0.52 301.86 -0.62Q299.67 -1.76 298.44 -4.12Q297.2 -6.48 297.2 -10.1V-27.79H304.39V-11.48Q304.39 -8.58 305.72 -7.23Q307.04 -5.88 309.24 -5.88Q310.55 -5.88 311.71 -6.56Q312.88 -7.25 313.62 -8.56Q314.35 -9.87 314.35 -11.7Z M354.98 -13.9Q354.98 -9.79 353.44 -6.54Q351.91 -3.28 349.16 -1.38Q346.41 0.52 342.65 0.52Q340.18 0.52 338.1 -0.53Q336.03 -1.58 334.44 -3.57V10.04H327.26V-27.79H333.88V-23.73Q335.49 -25.95 337.74 -27.13Q339.98 -28.31 342.65 -28.31Q346.39 -28.31 349.15 -26.41Q351.91 -24.51 353.44 -21.24Q354.98 -17.97 354.98 -13.9ZM347.52 -13.9Q347.52 -17.8 345.6 -19.84Q343.68 -21.87 341.01 -21.87Q339.28 -21.87 337.78 -20.96Q336.28 -20.04 335.39 -18.28Q334.5 -16.52 334.5 -13.87Q334.5 -11.26 335.4 -9.48Q336.29 -7.7 337.78 -6.81Q339.26 -5.92 341.01 -5.92Q343.68 -5.92 345.6 -7.93Q347.52 -9.95 347.52 -13.9Z  M381.16 0.52Q378.13 0.52 375.56 -0.57Q373 -1.67 371.09 -3.64Q369.19 -5.62 368.13 -8.24Q367.06 -10.86 367.06 -13.9Q367.06 -16.94 368.13 -19.56Q369.19 -22.17 371.09 -24.14Q373 -26.11 375.56 -27.2Q378.13 -28.3 381.16 -28.3Q384.19 -28.3 386.76 -27.2Q389.32 -26.11 391.22 -24.14Q393.12 -22.17 394.19 -19.56Q395.26 -16.94 395.26 -13.9Q395.26 -10.86 394.19 -8.24Q393.12 -5.62 391.22 -3.64Q389.32 -1.67 386.76 -0.57Q384.19 0.52 381.16 0.52ZM381.16 -5.88Q382.97 -5.88 384.48 -6.81Q385.99 -7.74 386.9 -9.54Q387.8 -11.33 387.8 -13.9Q387.8 -16.47 386.9 -18.25Q385.99 -20.03 384.48 -20.95Q382.97 -21.86 381.16 -21.86Q379.38 -21.86 377.85 -20.95Q376.32 -20.03 375.42 -18.25Q374.52 -16.47 374.52 -13.9Q374.52 -11.33 375.42 -9.54Q376.32 -7.74 377.85 -6.81Q379.38 -5.88 381.16 -5.88Z M406.31 -15.12V0H399.12V-27.79H405.74V-23.83Q407.29 -25.88 409.42 -27.09Q411.55 -28.31 414.3 -28.31Q418.5 -28.31 421.1 -25.62Q423.7 -22.94 423.7 -17.92V0H416.52V-15.51Q416.52 -18.59 415.3 -20.23Q414.08 -21.87 411.62 -21.87Q410.19 -21.87 408.97 -21.12Q407.75 -20.37 407.03 -18.88Q406.31 -17.4 406.31 -15.12Z  M446.45 0H439.27V-27.79H445.89V-23.81Q447.42 -25.93 449.44 -27.12Q451.45 -28.31 454.23 -28.31Q457.06 -28.31 459.18 -27.03Q461.3 -25.75 462.35 -23.33Q463.99 -25.65 466.19 -26.98Q468.38 -28.31 471.49 -28.31Q475.69 -28.31 478.29 -25.62Q480.88 -22.93 480.88 -17.92V0H473.71V-15.67Q473.71 -18.6 472.5 -20.24Q471.28 -21.87 468.9 -21.87Q467.49 -21.87 466.3 -21.14Q465.1 -20.41 464.39 -18.98Q463.67 -17.56 463.67 -15.47V0H456.49V-15.67Q456.49 -18.6 455.28 -20.24Q454.07 -21.87 451.68 -21.87Q450.23 -21.87 449.03 -21.14Q447.84 -20.41 447.15 -18.98Q446.45 -17.56 446.45 -15.47Z M498.57 0.52Q495.54 0.52 492.98 -0.57Q490.41 -1.67 488.51 -3.64Q486.61 -5.62 485.54 -8.24Q484.47 -10.86 484.47 -13.9Q484.47 -16.94 485.54 -19.56Q486.61 -22.17 488.51 -24.14Q490.41 -26.11 492.98 -27.2Q495.54 -28.3 498.57 -28.3Q501.61 -28.3 504.17 -27.2Q506.74 -26.11 508.64 -24.14Q510.54 -22.17 511.61 -19.56Q512.67 -16.94 512.67 -13.9Q512.67 -10.86 511.61 -8.24Q510.54 -5.62 508.64 -3.64Q506.74 -1.67 504.17 -0.57Q501.61 0.52 498.57 0.52ZM498.57 -5.88Q500.39 -5.88 501.9 -6.81Q503.41 -7.74 504.31 -9.54Q505.22 -11.33 505.22 -13.9Q505.22 -16.47 504.31 -18.25Q503.41 -20.03 501.9 -20.95Q500.39 -21.86 498.57 -21.86Q496.8 -21.86 495.27 -20.95Q493.74 -20.03 492.84 -18.25Q491.93 -16.47 491.93 -13.9Q491.93 -11.33 492.84 -9.54Q493.74 -7.74 495.27 -6.81Q496.8 -5.88 498.57 -5.88Z M544.26 -13.9Q544.26 -9.83 542.72 -6.56Q541.19 -3.28 538.43 -1.38Q535.67 0.52 531.91 0.52Q529.25 0.52 527.02 -0.67Q524.79 -1.85 523.16 -4.01V0H516.54V-37.34H523.72V-24.17Q525.29 -26.2 527.36 -27.25Q529.43 -28.31 531.91 -28.31Q535.67 -28.31 538.42 -26.43Q541.17 -24.55 542.72 -21.28Q544.26 -18.01 544.26 -13.9ZM536.8 -13.9Q536.8 -17.88 534.88 -19.88Q532.96 -21.87 530.28 -21.87Q528.54 -21.87 527.06 -21Q525.59 -20.12 524.68 -18.36Q523.78 -16.6 523.78 -13.97Q523.78 -11.38 524.66 -9.58Q525.53 -7.78 527.03 -6.85Q528.53 -5.92 530.28 -5.92Q532.96 -5.92 534.88 -7.95Q536.8 -9.99 536.8 -13.9Z M555.29 0H548.1V-27.79H555.29ZM556.46 -34.24Q556.46 -32.38 555.12 -31.16Q553.79 -29.93 551.64 -29.93Q549.5 -29.93 548.16 -31.16Q546.82 -32.38 546.82 -34.24Q546.82 -36.14 548.16 -37.35Q549.5 -38.56 551.64 -38.56Q553.79 -38.56 555.12 -37.35Q556.46 -36.14 556.46 -34.24Z M568.26 0H561V-37.34H568.26Z M586.03 0.49Q581.87 0.49 578.74 -1.32Q575.61 -3.13 573.88 -6.41Q572.15 -9.69 572.15 -14Q572.15 -18.15 573.92 -21.37Q575.7 -24.59 578.82 -26.45Q581.94 -28.31 585.92 -28.31Q589.23 -28.31 591.89 -27.07Q594.55 -25.83 596.37 -23.61Q598.18 -21.39 598.97 -18.44Q599.76 -15.5 599.26 -12.1H576.42V-16.68H591.59Q591.49 -19.61 589.91 -21.3Q588.33 -22.98 585.77 -22.98Q583.75 -22.98 582.34 -21.95Q580.94 -20.91 580.19 -18.91Q579.43 -16.9 579.43 -13.98Q579.43 -11.13 580.17 -9.14Q580.91 -7.15 582.35 -6.13Q583.79 -5.11 585.87 -5.11Q588.25 -5.11 589.83 -6.24Q591.41 -7.36 592.01 -9.43H599.18Q598 -4.73 594.56 -2.12Q591.12 0.49 586.03 0.49Z M617.81 -4.48Q617.81 -2.41 616.37 -1.07Q614.93 0.26 612.75 0.26Q610.57 0.26 609.11 -1.07Q607.65 -2.41 607.65 -4.48Q607.65 -6.56 609.09 -7.91Q610.53 -9.26 612.75 -9.26Q614.97 -9.26 616.39 -7.91Q617.81 -6.56 617.81 -4.48ZM607.76 -26.88H601.02Q601.15 -30.14 602.84 -32.6Q604.54 -35.07 607.4 -36.46Q610.25 -37.86 613.81 -37.86Q617.45 -37.86 620.22 -36.59Q622.99 -35.33 624.53 -33.1Q626.07 -30.88 626.07 -27.97Q626.07 -25.78 624.84 -23.87Q623.61 -21.96 621.41 -20.17L617.83 -17.31Q616.64 -16.31 616.03 -15.44Q615.42 -14.57 615.32 -13.61Q615.22 -12.65 615.44 -11.26H610.78Q610.06 -13.22 609.81 -14.73Q609.56 -16.25 610.07 -17.59Q610.59 -18.92 612.09 -20.2L615.56 -23.16Q616.78 -24.23 617.44 -25.15Q618.1 -26.08 618.1 -27.41Q618.1 -29.23 616.77 -30.34Q615.44 -31.46 613.06 -31.46Q610.8 -31.46 609.38 -30.2Q607.96 -28.93 607.76 -26.88Z"/><path fill="#F6F5F1" transform="translate(480.0 309.8)" d="M11.73 0H3.83V-37.34H11.73Z M24.22 -23.54H18.61L18.17 -37.34H24.68Z M28.69 -13.9Q28.69 -18.01 30.23 -21.28Q31.76 -24.55 34.54 -26.43Q37.32 -28.31 41.04 -28.31Q43.51 -28.31 45.6 -27.25Q47.69 -26.19 49.23 -24.18V-37.34H56.41V0H49.79V-4.01Q48.18 -1.85 45.95 -0.67Q43.72 0.52 41.04 0.52Q37.32 0.52 34.54 -1.38Q31.76 -3.28 30.23 -6.56Q28.69 -9.83 28.69 -13.9ZM36.15 -13.9Q36.15 -9.99 38.07 -7.95Q39.98 -5.92 42.66 -5.92Q44.47 -5.92 45.95 -6.85Q47.43 -7.78 48.3 -9.58Q49.17 -11.38 49.17 -13.97Q49.17 -16.6 48.27 -18.36Q47.36 -20.12 45.89 -21Q44.41 -21.87 42.66 -21.87Q39.98 -21.87 38.07 -19.88Q36.15 -17.88 36.15 -13.9Z  M89.45 -7.03V-0.75Q88.13 -0.04 86.81 0.24Q85.49 0.52 83.89 0.52Q81.05 0.52 78.95 -0.56Q76.85 -1.63 75.7 -3.77Q74.55 -5.91 74.55 -9.01V-21.56H68.95V-27.79H74.55V-35.97H81.73V-27.79H89.68V-21.56H81.73V-10.66Q81.73 -8.26 82.79 -7.21Q83.86 -6.15 85.81 -6.15Q86.83 -6.15 87.76 -6.37Q88.7 -6.6 89.45 -7.03Z M104.77 0.49Q100.61 0.49 97.48 -1.32Q94.35 -3.13 92.62 -6.41Q90.89 -9.69 90.89 -14Q90.89 -18.15 92.66 -21.37Q94.44 -24.59 97.56 -26.45Q100.68 -28.31 104.66 -28.31Q107.97 -28.31 110.63 -27.07Q113.29 -25.83 115.11 -23.61Q116.92 -21.39 117.71 -18.44Q118.5 -15.5 118 -12.1H95.16V-16.68H110.33Q110.23 -19.61 108.65 -21.3Q107.07 -22.98 104.51 -22.98Q102.49 -22.98 101.08 -21.95Q99.68 -20.91 98.93 -18.91Q98.17 -16.9 98.17 -13.98Q98.17 -11.13 98.91 -9.14Q99.65 -7.15 101.09 -6.13Q102.53 -5.11 104.61 -5.11Q106.99 -5.11 108.57 -6.24Q110.15 -7.36 110.75 -9.43H117.92Q116.74 -4.73 113.3 -2.12Q109.86 0.49 104.77 0.49Z M145.48 -8.9Q145.48 -4.55 142.3 -2.02Q139.12 0.52 133.17 0.52Q127.28 0.52 123.99 -2.15Q120.69 -4.82 120.29 -9.46H127.17Q127.23 -7.31 128.92 -6.06Q130.61 -4.81 133.29 -4.81Q135.4 -4.81 136.81 -5.49Q138.21 -6.18 138.21 -7.67Q138.21 -8.97 137.32 -9.63Q136.42 -10.29 134.43 -10.66L129.42 -11.58Q125.7 -12.28 123.57 -14.29Q121.43 -16.31 121.43 -19.57Q121.43 -22.13 122.83 -24.11Q124.22 -26.08 126.76 -27.19Q129.3 -28.31 132.73 -28.31Q136.25 -28.31 138.91 -27.14Q141.58 -25.96 143.17 -23.78Q144.77 -21.59 145.01 -18.59H138.12Q137.93 -20.64 136.49 -21.81Q135.04 -22.98 132.77 -22.98Q130.77 -22.98 129.56 -22.27Q128.34 -21.56 128.34 -20.22Q128.34 -18.98 129.23 -18.38Q130.12 -17.78 131.98 -17.4L137.32 -16.41Q141.39 -15.67 143.43 -13.78Q145.48 -11.9 145.48 -8.9Z M166.36 -7.03V-0.75Q165.04 -0.04 163.72 0.24Q162.4 0.52 160.8 0.52Q157.96 0.52 155.86 -0.56Q153.76 -1.63 152.61 -3.77Q151.45 -5.91 151.45 -9.01V-21.56H145.85V-27.79H151.45V-35.97H158.64V-27.79H166.59V-21.56H158.64V-10.66Q158.64 -8.26 159.7 -7.21Q160.77 -6.15 162.72 -6.15Q163.74 -6.15 164.67 -6.37Q165.61 -6.6 166.36 -7.03Z  M196.89 0V-3.44Q195.52 -1.49 193.44 -0.48Q191.36 0.52 188.5 0.52Q184.17 0.52 181.53 -1.83Q178.9 -4.18 178.9 -8.04Q178.9 -12.13 182.1 -14.25Q185.31 -16.38 191.36 -16.38Q192.54 -16.38 193.63 -16.31Q194.72 -16.24 195.97 -16.07V-17.73Q195.97 -20.08 194.72 -21.37Q193.47 -22.66 191.18 -22.66Q188.88 -22.66 187.52 -21.36Q186.16 -20.06 185.96 -17.74H179.47Q179.67 -20.96 181.2 -23.33Q182.72 -25.69 185.3 -27Q187.88 -28.31 191.21 -28.31Q196.67 -28.31 199.71 -25.44Q202.76 -22.58 202.76 -17.45V0ZM185.68 -8.25Q185.68 -6.54 186.87 -5.52Q188.05 -4.49 190.08 -4.49Q192.82 -4.49 194.4 -5.91Q195.97 -7.33 195.97 -9.73V-11.71Q194.73 -11.91 193.75 -11.98Q192.77 -12.05 191.81 -12.05Q188.79 -12.05 187.24 -11.11Q185.68 -10.17 185.68 -8.25Z  M216.47 -13.9Q216.47 -18.01 218 -21.28Q219.54 -24.55 222.31 -26.43Q225.09 -28.31 228.81 -28.31Q231.28 -28.31 233.37 -27.25Q235.46 -26.19 237 -24.18V-37.34H244.18V0H237.57V-4.01Q235.95 -1.85 233.72 -0.67Q231.49 0.52 228.81 0.52Q225.09 0.52 222.31 -1.38Q219.54 -3.28 218 -6.56Q216.47 -9.83 216.47 -13.9ZM223.92 -13.9Q223.92 -9.99 225.84 -7.95Q227.75 -5.92 230.43 -5.92Q232.24 -5.92 233.72 -6.85Q235.2 -7.78 236.07 -9.58Q236.95 -11.38 236.95 -13.97Q236.95 -16.6 236.04 -18.36Q235.14 -20.12 233.66 -21Q232.18 -21.87 230.43 -21.87Q227.75 -21.87 225.84 -19.88Q223.92 -17.88 223.92 -13.9Z M261.91 0.49Q257.76 0.49 254.62 -1.32Q251.49 -3.13 249.76 -6.41Q248.03 -9.69 248.03 -14Q248.03 -18.15 249.81 -21.37Q251.58 -24.59 254.7 -26.45Q257.82 -28.31 261.81 -28.31Q265.12 -28.31 267.78 -27.07Q270.43 -25.83 272.25 -23.61Q274.07 -21.39 274.85 -18.44Q275.64 -15.5 275.14 -12.1H252.3V-16.68H267.47Q267.37 -19.61 265.79 -21.3Q264.21 -22.98 261.65 -22.98Q259.63 -22.98 258.23 -21.95Q256.82 -20.91 256.07 -18.91Q255.32 -16.9 255.32 -13.98Q255.32 -11.13 256.06 -9.14Q256.8 -7.15 258.24 -6.13Q259.67 -5.11 261.75 -5.11Q264.14 -5.11 265.71 -6.24Q267.29 -7.36 267.89 -9.43H275.06Q273.88 -4.73 270.44 -2.12Q267 0.49 261.91 0.49Z M286.47 0H279.21V-37.34H286.47Z M308.74 0V-3.44Q307.37 -1.49 305.29 -0.48Q303.21 0.52 300.35 0.52Q296.02 0.52 293.38 -1.83Q290.75 -4.18 290.75 -8.04Q290.75 -12.13 293.95 -14.25Q297.16 -16.38 303.21 -16.38Q304.4 -16.38 305.49 -16.31Q306.58 -16.24 307.82 -16.07V-17.73Q307.82 -20.08 306.57 -21.37Q305.32 -22.66 303.04 -22.66Q300.73 -22.66 299.37 -21.36Q298.01 -20.06 297.81 -17.74H291.33Q291.52 -20.96 293.05 -23.33Q294.57 -25.69 297.15 -27Q299.73 -28.31 303.06 -28.31Q308.52 -28.31 311.57 -25.44Q314.61 -22.58 314.61 -17.45V0ZM297.54 -8.25Q297.54 -6.54 298.72 -5.52Q299.9 -4.49 301.93 -4.49Q304.68 -4.49 306.25 -5.91Q307.82 -7.33 307.82 -9.73V-11.71Q306.58 -11.91 305.6 -11.98Q304.62 -12.05 303.66 -12.05Q300.64 -12.05 299.09 -11.11Q297.54 -10.17 297.54 -8.25Z M344.11 -27.79 330.56 10.04H322.73L326.66 -0.32L315.75 -27.79H323.55L330.51 -8.74L336.86 -27.79Z M351.42 -4.63Q351.42 -2.49 350.07 -1.11Q348.72 0.26 346.57 0.26Q344.42 0.26 343.05 -1.11Q341.68 -2.49 341.68 -4.63Q341.68 -6.83 343.05 -8.21Q344.42 -9.58 346.57 -9.58Q348.72 -9.58 350.07 -8.21Q351.42 -6.83 351.42 -4.63Z"/><path fill="#8A8F98" transform="translate(480.0 371.8)" d="M4.89 0H2.02V-18.67H4.89V-10.86H14.34V-18.67H17.21V0H14.34V-8.38H4.89Z M32.12 -13.79 25.21 5.02H22.36L24.34 -0.17L18.89 -13.79H21.74L25.74 -3.29L29.45 -13.79Z M46.74 -6.9Q46.74 -4.82 45.99 -3.2Q45.24 -1.58 43.88 -0.66Q42.52 0.26 40.66 0.26Q39.26 0.26 38.12 -0.42Q36.97 -1.09 36.22 -2.33V5.02H33.59V-13.79H36.02V-11.26Q36.78 -12.6 37.99 -13.32Q39.2 -14.05 40.66 -14.05Q42.51 -14.05 43.87 -13.13Q45.24 -12.21 45.99 -10.59Q46.74 -8.97 46.74 -6.9ZM44.02 -6.9Q44.02 -9.2 42.92 -10.46Q41.82 -11.72 40.13 -11.72Q39.04 -11.72 38.15 -11.15Q37.26 -10.59 36.74 -9.52Q36.21 -8.46 36.21 -6.9Q36.21 -5.39 36.73 -4.3Q37.25 -3.21 38.14 -2.64Q39.03 -2.07 40.13 -2.07Q41.82 -2.07 42.92 -3.32Q44.02 -4.57 44.02 -6.9Z M54.79 0.26Q53.32 0.26 52.09 -0.27Q50.86 -0.8 49.95 -1.78Q49.04 -2.75 48.53 -4.06Q48.03 -5.37 48.03 -6.9Q48.03 -8.44 48.53 -9.74Q49.04 -11.04 49.95 -12Q50.86 -12.97 52.09 -13.5Q53.32 -14.04 54.79 -14.04Q56.26 -14.04 57.49 -13.5Q58.72 -12.97 59.63 -12Q60.54 -11.04 61.05 -9.74Q61.55 -8.44 61.55 -6.9Q61.55 -5.37 61.05 -4.06Q60.54 -2.75 59.63 -1.78Q58.72 -0.8 57.49 -0.27Q56.26 0.26 54.79 0.26ZM54.79 -2.06Q55.93 -2.06 56.85 -2.64Q57.76 -3.23 58.3 -4.31Q58.83 -5.4 58.83 -6.9Q58.83 -8.4 58.3 -9.48Q57.76 -10.55 56.85 -11.13Q55.93 -11.7 54.79 -11.7Q53.66 -11.7 52.74 -11.13Q51.82 -10.55 51.28 -9.48Q50.75 -8.4 50.75 -6.9Q50.75 -5.4 51.28 -4.31Q51.82 -3.23 52.74 -2.64Q53.66 -2.06 54.79 -2.06Z M71.33 -2.55V-0.24Q70.75 0.04 70.2 0.15Q69.64 0.26 69 0.26Q67.73 0.26 66.76 -0.21Q65.78 -0.68 65.23 -1.67Q64.68 -2.65 64.68 -4.16V-11.53H61.66V-13.79H64.68V-17.86H67.31V-13.79H71.46V-11.53H67.31V-4.75Q67.31 -3.34 67.94 -2.76Q68.58 -2.18 69.63 -2.18Q70.1 -2.18 70.52 -2.27Q70.94 -2.36 71.33 -2.55Z M76.2 -7.78V0H73.57V-18.67H76.2V-11.58Q76.88 -12.69 77.93 -13.37Q78.99 -14.05 80.42 -14.05Q82.54 -14.05 83.83 -12.72Q85.12 -11.38 85.12 -8.92V0H82.49V-8.03Q82.49 -9.81 81.73 -10.76Q80.98 -11.72 79.5 -11.72Q78.6 -11.72 77.85 -11.24Q77.09 -10.76 76.65 -9.88Q76.2 -9.01 76.2 -7.78Z M93.88 0.26Q91.89 0.26 90.4 -0.64Q88.9 -1.55 88.07 -3.18Q87.24 -4.82 87.24 -6.98Q87.24 -9.02 88.09 -10.61Q88.94 -12.2 90.42 -13.13Q91.91 -14.05 93.8 -14.05Q95.36 -14.05 96.6 -13.47Q97.85 -12.88 98.71 -11.82Q99.57 -10.77 99.97 -9.35Q100.37 -7.92 100.19 -6.25H88.76V-7.98H97.39Q97.31 -9.9 96.34 -10.98Q95.36 -12.07 93.75 -12.07Q92.57 -12.07 91.71 -11.46Q90.85 -10.84 90.37 -9.71Q89.89 -8.57 89.89 -6.98Q89.89 -5.36 90.35 -4.2Q90.82 -3.04 91.7 -2.42Q92.59 -1.81 93.83 -1.81Q95.31 -1.81 96.28 -2.56Q97.26 -3.31 97.57 -4.67H100.19Q99.67 -2.37 98 -1.05Q96.33 0.26 93.88 0.26Z M113.48 -4.11Q113.48 -2.09 111.98 -0.91Q110.47 0.26 107.72 0.26Q105 0.26 103.43 -1.01Q101.86 -2.28 101.67 -4.49H104.18Q104.25 -3.21 105.22 -2.46Q106.19 -1.72 107.76 -1.72Q109.15 -1.72 109.99 -2.21Q110.83 -2.7 110.83 -3.67Q110.83 -4.53 110.27 -4.97Q109.71 -5.4 108.41 -5.65L106.19 -6.07Q104.29 -6.43 103.25 -7.41Q102.21 -8.38 102.21 -9.94Q102.21 -11.14 102.87 -12.07Q103.54 -13 104.73 -13.52Q105.92 -14.05 107.52 -14.05Q109.18 -14.05 110.43 -13.49Q111.68 -12.93 112.43 -11.9Q113.17 -10.86 113.27 -9.43H110.76Q110.64 -10.67 109.78 -11.37Q108.92 -12.07 107.53 -12.07Q106.28 -12.07 105.52 -11.57Q104.75 -11.06 104.75 -10.17Q104.75 -9.34 105.32 -8.91Q105.88 -8.47 107.13 -8.22L109.47 -7.78Q111.51 -7.41 112.49 -6.5Q113.48 -5.59 113.48 -4.11Z M118.58 0H115.95V-13.79H118.58ZM119.16 -16.99Q119.16 -16.24 118.63 -15.74Q118.1 -15.25 117.25 -15.25Q116.41 -15.25 115.88 -15.74Q115.34 -16.24 115.34 -16.99Q115.34 -17.75 115.88 -18.23Q116.41 -18.71 117.25 -18.71Q118.1 -18.71 118.63 -18.23Q119.16 -17.75 119.16 -16.99Z M132.75 -4.11Q132.75 -2.09 131.24 -0.91Q129.74 0.26 126.99 0.26Q124.27 0.26 122.7 -1.01Q121.13 -2.28 120.93 -4.49H123.45Q123.51 -3.21 124.49 -2.46Q125.46 -1.72 127.03 -1.72Q128.42 -1.72 129.26 -2.21Q130.09 -2.7 130.09 -3.67Q130.09 -4.53 129.54 -4.97Q128.98 -5.4 127.68 -5.65L125.46 -6.07Q123.56 -6.43 122.52 -7.41Q121.48 -8.38 121.48 -9.94Q121.48 -11.14 122.14 -12.07Q122.8 -13 123.99 -13.52Q125.19 -14.05 126.78 -14.05Q128.44 -14.05 129.69 -13.49Q130.95 -12.93 131.69 -11.9Q132.44 -10.86 132.54 -9.43H130.03Q129.91 -10.67 129.05 -11.37Q128.18 -12.07 126.79 -12.07Q125.55 -12.07 124.78 -11.57Q124.02 -11.06 124.02 -10.17Q124.02 -9.34 124.58 -8.91Q125.14 -8.47 126.39 -8.22L128.73 -7.78Q130.77 -7.41 131.76 -6.5Q132.75 -5.59 132.75 -4.11Z M138.8 -1.11Q138.8 0.13 138.19 1.12Q137.57 2.12 136.49 2.71Q135.41 3.31 133.98 3.34V1.86Q135.25 1.81 136.05 1.19Q136.86 0.57 136.96 -0.39Q136.79 -0.34 136.66 -0.32Q136.53 -0.3 136.39 -0.3Q135.65 -0.3 135.16 -0.81Q134.67 -1.33 134.67 -2.05Q134.67 -2.9 135.22 -3.4Q135.78 -3.91 136.58 -3.91Q137.65 -3.91 138.22 -3.17Q138.8 -2.43 138.8 -1.11Z  M149.26 -7.78V0H146.63V-13.79H149.07V-11.49Q149.78 -12.64 150.92 -13.34Q152.05 -14.05 153.48 -14.05Q155.6 -14.05 156.89 -12.72Q158.18 -11.38 158.18 -8.92V0H155.55V-8.03Q155.55 -9.81 154.79 -10.76Q154.04 -11.72 152.56 -11.72Q151.66 -11.72 150.91 -11.24Q150.15 -10.76 149.71 -9.88Q149.26 -9.01 149.26 -7.78Z M167.06 0.26Q165.59 0.26 164.36 -0.27Q163.12 -0.8 162.22 -1.78Q161.31 -2.75 160.8 -4.06Q160.3 -5.37 160.3 -6.9Q160.3 -8.44 160.8 -9.74Q161.31 -11.04 162.22 -12Q163.12 -12.97 164.36 -13.5Q165.59 -14.04 167.06 -14.04Q168.52 -14.04 169.76 -13.5Q170.99 -12.97 171.9 -12Q172.81 -11.04 173.31 -9.74Q173.82 -8.44 173.82 -6.9Q173.82 -5.37 173.31 -4.06Q172.81 -2.75 171.9 -1.78Q170.99 -0.8 169.76 -0.27Q168.52 0.26 167.06 0.26ZM167.06 -2.06Q168.2 -2.06 169.11 -2.64Q170.03 -3.23 170.57 -4.31Q171.1 -5.4 171.1 -6.9Q171.1 -8.4 170.57 -9.48Q170.03 -10.55 169.11 -11.13Q168.2 -11.7 167.06 -11.7Q165.93 -11.7 165.01 -11.13Q164.09 -10.55 163.55 -9.48Q163.01 -8.4 163.01 -6.9Q163.01 -5.4 163.55 -4.31Q164.09 -3.23 165.01 -2.64Q165.93 -2.06 167.06 -2.06Z M183.6 -2.55V-0.24Q183.02 0.04 182.46 0.15Q181.91 0.26 181.26 0.26Q180 0.26 179.02 -0.21Q178.05 -0.68 177.5 -1.67Q176.95 -2.65 176.95 -4.16V-11.53H173.92V-13.79H176.95V-17.86H179.58V-13.79H183.73V-11.53H179.58V-4.75Q179.58 -3.34 180.21 -2.76Q180.85 -2.18 181.9 -2.18Q182.37 -2.18 182.79 -2.27Q183.21 -2.36 183.6 -2.55Z  M199.24 0V-2.13Q198.6 -1 197.47 -0.37Q196.34 0.26 194.82 0.26Q192.68 0.26 191.38 -0.88Q190.09 -2.01 190.09 -3.9Q190.09 -5.92 191.68 -6.97Q193.27 -8.01 196.34 -8.01Q196.96 -8.01 197.53 -7.98Q198.1 -7.95 198.93 -7.86V-8.87Q198.93 -10.33 198.17 -11.15Q197.41 -11.97 196.04 -11.97Q194.61 -11.97 193.77 -11.15Q192.92 -10.32 192.86 -8.88H190.47Q190.53 -10.45 191.25 -11.61Q191.96 -12.76 193.19 -13.41Q194.43 -14.05 196.04 -14.05Q198.59 -14.05 200.01 -12.67Q201.43 -11.3 201.43 -8.83V0ZM192.59 -3.97Q192.59 -2.91 193.34 -2.26Q194.09 -1.61 195.33 -1.61Q196.99 -1.61 197.96 -2.57Q198.93 -3.52 198.93 -5.1V-6.21Q198.17 -6.3 197.59 -6.34Q197.02 -6.37 196.5 -6.37Q194.54 -6.37 193.57 -5.78Q192.59 -5.19 192.59 -3.97Z  M212.21 -7.06V0H209.58V-13.79H212.02V-10.87Q212.76 -12.29 214.21 -13.13Q215.65 -13.97 217.33 -13.97V-11.23Q215.85 -11.3 214.69 -10.89Q213.54 -10.47 212.87 -9.53Q212.21 -8.58 212.21 -7.06Z M224.63 0.26Q222.65 0.26 221.15 -0.64Q219.65 -1.55 218.82 -3.18Q217.99 -4.82 217.99 -6.98Q217.99 -9.02 218.84 -10.61Q219.69 -12.2 221.18 -13.13Q222.66 -14.05 224.56 -14.05Q226.11 -14.05 227.36 -13.47Q228.6 -12.88 229.46 -11.82Q230.33 -10.77 230.72 -9.35Q231.12 -7.92 230.94 -6.25H219.51V-7.98H228.15Q228.07 -9.9 227.09 -10.98Q226.12 -12.07 224.5 -12.07Q223.33 -12.07 222.46 -11.46Q221.6 -10.84 221.12 -9.71Q220.64 -8.57 220.64 -6.98Q220.64 -5.36 221.11 -4.2Q221.57 -3.04 222.46 -2.42Q223.34 -1.81 224.58 -1.81Q226.06 -1.81 227.04 -2.56Q228.01 -3.31 228.33 -4.67H230.94Q230.43 -2.37 228.76 -1.05Q227.09 0.26 224.63 0.26Z M244.24 -4.11Q244.24 -2.09 242.73 -0.91Q241.23 0.26 238.48 0.26Q235.76 0.26 234.19 -1.01Q232.62 -2.28 232.42 -4.49H234.93Q235 -3.21 235.97 -2.46Q236.95 -1.72 238.52 -1.72Q239.91 -1.72 240.74 -2.21Q241.58 -2.7 241.58 -3.67Q241.58 -4.53 241.02 -4.97Q240.47 -5.4 239.17 -5.65L236.94 -6.07Q235.04 -6.43 234 -7.41Q232.97 -8.38 232.97 -9.94Q232.97 -11.14 233.63 -12.07Q234.29 -13 235.48 -13.52Q236.68 -14.05 238.27 -14.05Q239.93 -14.05 241.18 -13.49Q242.43 -12.93 243.18 -11.9Q243.92 -10.86 244.03 -9.43H241.51Q241.4 -10.67 240.53 -11.37Q239.67 -12.07 238.28 -12.07Q237.04 -12.07 236.27 -11.57Q235.51 -11.06 235.51 -10.17Q235.51 -9.34 236.07 -8.91Q236.63 -8.47 237.88 -8.22L240.22 -7.78Q242.26 -7.41 243.25 -6.5Q244.24 -5.59 244.24 -4.11Z M255.32 -5.67V-13.79H257.95V0H255.51V-2.17Q254.98 -1.11 253.84 -0.43Q252.7 0.26 251.28 0.26Q249.9 0.26 248.83 -0.29Q247.76 -0.84 247.17 -1.99Q246.58 -3.14 246.58 -4.91V-13.79H249.21V-5.44Q249.21 -3.64 250.02 -2.85Q250.83 -2.06 252.11 -2.06Q253 -2.06 253.73 -2.51Q254.46 -2.97 254.89 -3.78Q255.32 -4.6 255.32 -5.67Z M263.85 0H261.19V-18.67H263.85Z M274.86 -2.55V-0.24Q274.28 0.04 273.72 0.15Q273.17 0.26 272.52 0.26Q271.26 0.26 270.28 -0.21Q269.31 -0.68 268.76 -1.67Q268.21 -2.65 268.21 -4.16V-11.53H265.18V-13.79H268.21V-17.86H270.84V-13.79H274.99V-11.53H270.84V-4.75Q270.84 -3.34 271.47 -2.76Q272.11 -2.18 273.16 -2.18Q273.63 -2.18 274.05 -2.27Q274.47 -2.36 274.86 -2.55Z M280.94 -1.88Q280.94 -1.01 280.38 -0.44Q279.82 0.13 278.94 0.13Q278.06 0.13 277.5 -0.44Q276.93 -1.01 276.93 -1.88Q276.93 -2.78 277.5 -3.35Q278.06 -3.92 278.94 -3.92Q279.82 -3.92 280.38 -3.35Q280.94 -2.78 280.94 -1.88Z"/><g transform="translate(72.0 579.0) scale(0.1328)"><path fill="#F6F5F1" d="M120.07 41.77 A99.12 99.12 0 0 0 120.07 240 Z"/><path fill="#F5A524" d="M135.93 16 A99.12 99.12 0 0 1 135.93 214.23 Z"/></g><path fill="#F6F5F1" transform="translate(116.2 604.5)" d="M16.32 -5.45Q16.32 -2.79 14.37 -1.23Q12.43 0.32 8.79 0.32Q5.18 0.32 3.16 -1.32Q1.15 -2.95 0.9 -5.79H5.11Q5.15 -4.48 6.18 -3.71Q7.22 -2.94 8.86 -2.94Q10.15 -2.94 11.01 -3.36Q11.87 -3.78 11.87 -4.7Q11.87 -5.49 11.33 -5.89Q10.78 -6.3 9.56 -6.53L6.49 -7.09Q4.21 -7.52 2.91 -8.75Q1.6 -9.99 1.6 -11.98Q1.6 -13.55 2.45 -14.76Q3.31 -15.97 4.86 -16.65Q6.42 -17.33 8.52 -17.33Q10.67 -17.33 12.3 -16.61Q13.93 -15.9 14.91 -14.56Q15.89 -13.22 16.03 -11.38H11.82Q11.7 -12.64 10.82 -13.35Q9.93 -14.07 8.54 -14.07Q7.32 -14.07 6.57 -13.63Q5.83 -13.2 5.83 -12.38Q5.83 -11.62 6.37 -11.25Q6.92 -10.88 8.06 -10.65L11.33 -10.05Q13.82 -9.59 15.07 -8.44Q16.32 -7.28 16.32 -5.45Z M26.07 0.32Q24.22 0.32 22.65 -0.35Q21.07 -1.02 19.91 -2.23Q18.75 -3.44 18.09 -5.04Q17.44 -6.65 17.44 -8.51Q17.44 -10.37 18.09 -11.97Q18.75 -13.57 19.91 -14.78Q21.07 -15.99 22.65 -16.65Q24.22 -17.32 26.07 -17.32Q27.93 -17.32 29.5 -16.65Q31.07 -15.99 32.23 -14.78Q33.4 -13.57 34.05 -11.97Q34.7 -10.37 34.7 -8.51Q34.7 -6.65 34.05 -5.04Q33.4 -3.44 32.23 -2.23Q31.07 -1.02 29.5 -0.35Q27.93 0.32 26.07 0.32ZM26.07 -3.6Q27.18 -3.6 28.11 -4.17Q29.03 -4.74 29.58 -5.84Q30.14 -6.94 30.14 -8.51Q30.14 -10.08 29.58 -11.17Q29.03 -12.26 28.11 -12.82Q27.18 -13.38 26.07 -13.38Q24.98 -13.38 24.05 -12.82Q23.11 -12.26 22.56 -11.17Q22.01 -10.08 22.01 -8.51Q22.01 -6.94 22.56 -5.84Q23.11 -4.74 24.05 -4.17Q24.98 -3.6 26.07 -3.6Z M41.2 0H36.75V-22.86H41.2Z M51.76 0.3Q49.21 0.3 47.3 -0.81Q45.38 -1.92 44.32 -3.92Q43.26 -5.93 43.26 -8.57Q43.26 -11.11 44.35 -13.08Q45.43 -15.05 47.34 -16.19Q49.25 -17.33 51.69 -17.33Q53.72 -17.33 55.35 -16.57Q56.97 -15.82 58.09 -14.46Q59.2 -13.1 59.68 -11.29Q60.16 -9.49 59.86 -7.41H45.87V-10.21H55.16Q55.1 -12.01 54.13 -13.04Q53.16 -14.07 51.6 -14.07Q50.36 -14.07 49.5 -13.44Q48.64 -12.8 48.18 -11.58Q47.72 -10.35 47.72 -8.56Q47.72 -6.81 48.17 -5.6Q48.63 -4.38 49.51 -3.75Q50.39 -3.13 51.66 -3.13Q53.12 -3.13 54.08 -3.82Q55.05 -4.51 55.42 -5.77H59.81Q59.09 -2.9 56.98 -1.3Q54.87 0.3 51.76 0.3Z M66.43 -9.25V0H62.03V-17.01H66.08V-14.59Q67.03 -15.84 68.33 -16.59Q69.64 -17.33 71.32 -17.33Q73.89 -17.33 75.48 -15.69Q77.07 -14.04 77.07 -10.97V0H72.68V-9.5Q72.68 -11.38 71.93 -12.39Q71.19 -13.39 69.68 -13.39Q68.8 -13.39 68.06 -12.93Q67.31 -12.47 66.87 -11.56Q66.43 -10.65 66.43 -9.25Z"/><path fill="#8A8F98" transform="translate(996.0 604.5)" d="M16.25 1.15V3.01Q15.08 3.7 13.65 4.08Q12.21 4.47 10.61 4.47Q8.53 4.47 6.75 3.71Q4.96 2.96 3.62 1.62Q2.28 0.29 1.54 -1.49Q0.8 -3.27 0.8 -5.3Q0.8 -7.36 1.56 -9.14Q2.32 -10.91 3.69 -12.25Q5.05 -13.59 6.87 -14.34Q8.7 -15.09 10.83 -15.09Q12.89 -15.09 14.64 -14.43Q16.39 -13.76 17.68 -12.59Q18.96 -11.43 19.68 -9.89Q20.39 -8.34 20.39 -6.59Q20.39 -4.83 19.77 -3.52Q19.15 -2.21 18.09 -1.48Q17.03 -0.76 15.68 -0.76Q14.45 -0.76 13.75 -1.24Q13.05 -1.73 12.79 -2.5Q11.61 -0.76 9.46 -0.76Q8.35 -0.76 7.49 -1.3Q6.64 -1.83 6.17 -2.8Q5.7 -3.76 5.7 -5Q5.7 -6.42 6.24 -7.56Q6.79 -8.7 7.75 -9.36Q8.71 -10.02 9.97 -10.02Q11.01 -10.02 11.75 -9.56Q12.49 -9.09 12.89 -8.23L13.18 -9.71H15.19L14.34 -5.05Q14.3 -4.78 14.27 -4.51Q14.23 -4.24 14.23 -4.03Q14.23 -3.27 14.64 -2.87Q15.04 -2.47 15.78 -2.47Q17 -2.47 17.68 -3.53Q18.36 -4.59 18.36 -6.4Q18.36 -7.79 17.83 -9.04Q17.3 -10.3 16.3 -11.27Q15.3 -12.25 13.92 -12.81Q12.54 -13.38 10.83 -13.38Q9.1 -13.38 7.63 -12.76Q6.17 -12.14 5.09 -11.04Q4.01 -9.95 3.41 -8.48Q2.82 -7.01 2.82 -5.3Q2.82 -3.61 3.39 -2.15Q3.97 -0.69 5.03 0.41Q6.09 1.52 7.51 2.13Q8.93 2.75 10.61 2.75Q12.36 2.75 13.82 2.3Q15.27 1.85 16.25 1.15ZM7.82 -5.12Q7.82 -3.95 8.38 -3.21Q8.94 -2.47 9.88 -2.47Q10.6 -2.47 11.16 -2.89Q11.73 -3.31 12.05 -4.04Q12.37 -4.76 12.37 -5.65Q12.37 -6.91 11.84 -7.6Q11.31 -8.3 10.31 -8.3Q9.54 -8.3 8.98 -7.87Q8.43 -7.43 8.12 -6.71Q7.82 -6 7.82 -5.12Z M29.29 -2.16V-0.2Q28.8 0.03 28.33 0.13Q27.86 0.22 27.32 0.22Q26.24 0.22 25.42 -0.18Q24.6 -0.58 24.13 -1.41Q23.67 -2.25 23.67 -3.52V-9.76H21.11V-11.67H23.67V-15.11H25.89V-11.67H29.4V-9.76H25.89V-4.02Q25.89 -2.82 26.43 -2.33Q26.96 -1.84 27.86 -1.84Q28.25 -1.84 28.61 -1.92Q28.96 -1.99 29.29 -2.16Z M33.75 -6.59V0H31.52V-15.8H33.75V-9.8Q34.32 -10.74 35.21 -11.31Q36.11 -11.89 37.32 -11.89Q39.11 -11.89 40.2 -10.76Q41.29 -9.63 41.29 -7.54V0H39.06V-6.8Q39.06 -8.3 38.43 -9.11Q37.79 -9.91 36.54 -9.91Q35.77 -9.91 35.14 -9.51Q34.5 -9.1 34.12 -8.36Q33.75 -7.62 33.75 -6.59Z M49.13 0.22Q47.89 0.22 46.85 -0.23Q45.8 -0.68 45.04 -1.51Q44.27 -2.33 43.84 -3.44Q43.41 -4.54 43.41 -5.84Q43.41 -7.14 43.84 -8.24Q44.27 -9.34 45.04 -10.16Q45.8 -10.98 46.85 -11.43Q47.89 -11.88 49.13 -11.88Q50.37 -11.88 51.42 -11.43Q52.46 -10.98 53.23 -10.16Q54 -9.34 54.43 -8.24Q54.85 -7.14 54.85 -5.84Q54.85 -4.54 54.43 -3.44Q54 -2.33 53.23 -1.51Q52.46 -0.68 51.42 -0.23Q50.37 0.22 49.13 0.22ZM49.13 -1.74Q50.1 -1.74 50.87 -2.24Q51.65 -2.73 52.1 -3.65Q52.55 -4.57 52.55 -5.84Q52.55 -7.11 52.1 -8.02Q51.65 -8.93 50.87 -9.41Q50.1 -9.9 49.13 -9.9Q48.18 -9.9 47.4 -9.41Q46.62 -8.93 46.16 -8.02Q45.71 -7.11 45.71 -5.84Q45.71 -4.57 46.16 -3.65Q46.62 -2.73 47.4 -2.24Q48.18 -1.74 49.13 -1.74Z M59.33 0H57.11V-11.67H59.17V-9.72Q59.78 -10.74 60.71 -11.31Q61.63 -11.89 62.84 -11.89Q64.12 -11.89 65.05 -11.26Q65.98 -10.63 66.37 -9.47Q66.99 -10.58 67.98 -11.24Q68.97 -11.89 70.31 -11.89Q72.11 -11.89 73.18 -10.75Q74.25 -9.62 74.25 -7.54V0H72.04V-6.84Q72.04 -8.31 71.4 -9.11Q70.76 -9.91 69.54 -9.91Q68.79 -9.91 68.16 -9.51Q67.54 -9.11 67.17 -8.39Q66.8 -7.66 66.8 -6.68V0H64.57V-6.84Q64.57 -8.31 63.94 -9.11Q63.31 -9.91 62.08 -9.91Q61.32 -9.91 60.69 -9.51Q60.06 -9.11 59.7 -8.39Q59.33 -7.66 59.33 -6.68Z M86.03 0H76.42V-1.73L83.05 -9.74H76.54V-11.67H85.81V-9.87L79.19 -1.93H86.03Z M97.06 0H87.45V-1.73L94.07 -9.74H87.56V-11.67H96.83V-9.87L90.21 -1.93H97.06Z M108.5 -3.48Q108.5 -1.77 107.22 -0.77Q105.95 0.22 103.62 0.22Q101.32 0.22 99.99 -0.86Q98.66 -1.93 98.5 -3.8H100.63Q100.68 -2.71 101.51 -2.08Q102.33 -1.45 103.66 -1.45Q104.83 -1.45 105.54 -1.87Q106.25 -2.29 106.25 -3.11Q106.25 -3.83 105.78 -4.2Q105.31 -4.57 104.21 -4.78L102.33 -5.13Q100.72 -5.44 99.84 -6.27Q98.96 -7.09 98.96 -8.41Q98.96 -9.43 99.52 -10.21Q100.08 -11 101.09 -11.44Q102.1 -11.89 103.45 -11.89Q104.85 -11.89 105.91 -11.42Q106.97 -10.94 107.6 -10.07Q108.23 -9.19 108.32 -7.98H106.19Q106.09 -9.03 105.36 -9.62Q104.63 -10.22 103.46 -10.22Q102.41 -10.22 101.76 -9.79Q101.11 -9.36 101.11 -8.6Q101.11 -7.9 101.59 -7.54Q102.06 -7.17 103.12 -6.96L105.1 -6.59Q106.83 -6.27 107.66 -5.5Q108.5 -4.73 108.5 -3.48Z M120.16 -3.48Q120.16 -1.77 118.88 -0.77Q117.61 0.22 115.28 0.22Q112.98 0.22 111.65 -0.86Q110.32 -1.93 110.16 -3.8H112.29Q112.34 -2.71 113.17 -2.08Q113.99 -1.45 115.32 -1.45Q116.49 -1.45 117.2 -1.87Q117.91 -2.29 117.91 -3.11Q117.91 -3.83 117.44 -4.2Q116.97 -4.57 115.87 -4.78L113.99 -5.13Q112.38 -5.44 111.5 -6.27Q110.62 -7.09 110.62 -8.41Q110.62 -9.43 111.18 -10.21Q111.74 -11 112.75 -11.44Q113.76 -11.89 115.11 -11.89Q116.51 -11.89 117.57 -11.42Q118.63 -10.94 119.26 -10.07Q119.89 -9.19 119.98 -7.98H117.85Q117.75 -9.03 117.02 -9.62Q116.29 -10.22 115.12 -10.22Q114.07 -10.22 113.42 -9.79Q112.77 -9.36 112.77 -8.6Q112.77 -7.9 113.25 -7.54Q113.72 -7.17 114.78 -6.96L116.76 -6.59Q118.49 -6.27 119.32 -5.5Q120.16 -4.73 120.16 -3.48Z M132.04 4.25H121.04V2.34H132.04Z"/></svg>